G04 #@! TF.GenerationSoftware,KiCad,Pcbnew,(5.0.2)-1*
G04 #@! TF.CreationDate,2019-10-30T16:47:08+01:00*
G04 #@! TF.ProjectId,pcb_thesis,7063625f-7468-4657-9369-732e6b696361,rev?*
G04 #@! TF.SameCoordinates,Original*
G04 #@! TF.FileFunction,Legend,Top*
G04 #@! TF.FilePolarity,Positive*
%FSLAX46Y46*%
G04 Gerber Fmt 4.6, Leading zero omitted, Abs format (unit mm)*
G04 Created by KiCad (PCBNEW (5.0.2)-1) date 30.10.2019 16:47:08*
%MOMM*%
%LPD*%
G01*
G04 APERTURE LIST*
%ADD10C,0.150000*%
%ADD11C,0.120000*%
%ADD12R,1.700000X0.750000*%
%ADD13R,0.750000X1.700000*%
%ADD14C,0.100000*%
%ADD15C,1.350000*%
%ADD16R,1.900000X1.900000*%
%ADD17O,1.900000X1.900000*%
%ADD18R,2.200000X1.800000*%
%ADD19R,1.724000X1.724000*%
%ADD20R,2.200000X8.075000*%
G04 APERTURE END LIST*
D10*
G04 #@! TO.C,U1*
X145383000Y-80359000D02*
X145383000Y-79784000D01*
X135033000Y-80359000D02*
X135033000Y-79684000D01*
X135033000Y-70009000D02*
X135033000Y-70684000D01*
X145383000Y-70009000D02*
X145383000Y-70684000D01*
X145383000Y-80359000D02*
X144708000Y-80359000D01*
X145383000Y-70009000D02*
X144708000Y-70009000D01*
X135033000Y-70009000D02*
X135708000Y-70009000D01*
X135033000Y-80359000D02*
X135708000Y-80359000D01*
X145383000Y-79784000D02*
X146658000Y-79784000D01*
D11*
G04 #@! TO.C,C1*
X155570000Y-65518748D02*
X155570000Y-66041252D01*
X154150000Y-65518748D02*
X154150000Y-66041252D01*
G04 #@! TO.C,C2*
X154170000Y-77528748D02*
X154170000Y-78051252D01*
X155590000Y-77528748D02*
X155590000Y-78051252D01*
G04 #@! TO.C,D1*
X132064000Y-65826000D02*
X129204000Y-65826000D01*
X129204000Y-65826000D02*
X129204000Y-67746000D01*
X129204000Y-67746000D02*
X132064000Y-67746000D01*
G04 #@! TO.C,D2*
X128950000Y-64698000D02*
X131810000Y-64698000D01*
X128950000Y-62778000D02*
X128950000Y-64698000D01*
X131810000Y-62778000D02*
X128950000Y-62778000D01*
G04 #@! TO.C,J1*
X159260000Y-69920000D02*
X159260000Y-85280000D01*
X159260000Y-85280000D02*
X161920000Y-85280000D01*
X161920000Y-85280000D02*
X161920000Y-69920000D01*
X161920000Y-69920000D02*
X159260000Y-69920000D01*
X161920000Y-70870000D02*
X167920000Y-70870000D01*
X167920000Y-70870000D02*
X167920000Y-71630000D01*
X167920000Y-71630000D02*
X161920000Y-71630000D01*
X161920000Y-70930000D02*
X167920000Y-70930000D01*
X161920000Y-71050000D02*
X167920000Y-71050000D01*
X161920000Y-71170000D02*
X167920000Y-71170000D01*
X161920000Y-71290000D02*
X167920000Y-71290000D01*
X161920000Y-71410000D02*
X167920000Y-71410000D01*
X161920000Y-71530000D02*
X167920000Y-71530000D01*
X158930000Y-70870000D02*
X159260000Y-70870000D01*
X158930000Y-71630000D02*
X159260000Y-71630000D01*
X159260000Y-72520000D02*
X161920000Y-72520000D01*
X161920000Y-73410000D02*
X167920000Y-73410000D01*
X167920000Y-73410000D02*
X167920000Y-74170000D01*
X167920000Y-74170000D02*
X161920000Y-74170000D01*
X158862929Y-73410000D02*
X159260000Y-73410000D01*
X158862929Y-74170000D02*
X159260000Y-74170000D01*
X159260000Y-75060000D02*
X161920000Y-75060000D01*
X161920000Y-75950000D02*
X167920000Y-75950000D01*
X167920000Y-75950000D02*
X167920000Y-76710000D01*
X167920000Y-76710000D02*
X161920000Y-76710000D01*
X158862929Y-75950000D02*
X159260000Y-75950000D01*
X158862929Y-76710000D02*
X159260000Y-76710000D01*
X159260000Y-77600000D02*
X161920000Y-77600000D01*
X161920000Y-78490000D02*
X167920000Y-78490000D01*
X167920000Y-78490000D02*
X167920000Y-79250000D01*
X167920000Y-79250000D02*
X161920000Y-79250000D01*
X158862929Y-78490000D02*
X159260000Y-78490000D01*
X158862929Y-79250000D02*
X159260000Y-79250000D01*
X159260000Y-80140000D02*
X161920000Y-80140000D01*
X161920000Y-81030000D02*
X167920000Y-81030000D01*
X167920000Y-81030000D02*
X167920000Y-81790000D01*
X167920000Y-81790000D02*
X161920000Y-81790000D01*
X158862929Y-81030000D02*
X159260000Y-81030000D01*
X158862929Y-81790000D02*
X159260000Y-81790000D01*
X159260000Y-82680000D02*
X161920000Y-82680000D01*
X161920000Y-83570000D02*
X167920000Y-83570000D01*
X167920000Y-83570000D02*
X167920000Y-84330000D01*
X167920000Y-84330000D02*
X161920000Y-84330000D01*
X158862929Y-83570000D02*
X159260000Y-83570000D01*
X158862929Y-84330000D02*
X159260000Y-84330000D01*
X156550000Y-71250000D02*
X156550000Y-69980000D01*
X156550000Y-69980000D02*
X157820000Y-69980000D01*
G04 #@! TO.C,J2*
X156550000Y-63800000D02*
X157820000Y-63800000D01*
X156550000Y-65070000D02*
X156550000Y-63800000D01*
X158862929Y-67990000D02*
X159260000Y-67990000D01*
X158862929Y-67230000D02*
X159260000Y-67230000D01*
X167920000Y-67990000D02*
X161920000Y-67990000D01*
X167920000Y-67230000D02*
X167920000Y-67990000D01*
X161920000Y-67230000D02*
X167920000Y-67230000D01*
X159260000Y-66340000D02*
X161920000Y-66340000D01*
X158930000Y-65450000D02*
X159260000Y-65450000D01*
X158930000Y-64690000D02*
X159260000Y-64690000D01*
X161920000Y-65350000D02*
X167920000Y-65350000D01*
X161920000Y-65230000D02*
X167920000Y-65230000D01*
X161920000Y-65110000D02*
X167920000Y-65110000D01*
X161920000Y-64990000D02*
X167920000Y-64990000D01*
X161920000Y-64870000D02*
X167920000Y-64870000D01*
X161920000Y-64750000D02*
X167920000Y-64750000D01*
X167920000Y-65450000D02*
X161920000Y-65450000D01*
X167920000Y-64690000D02*
X167920000Y-65450000D01*
X161920000Y-64690000D02*
X167920000Y-64690000D01*
X161920000Y-63740000D02*
X159260000Y-63740000D01*
X161920000Y-68940000D02*
X161920000Y-63740000D01*
X159260000Y-68940000D02*
X161920000Y-68940000D01*
X159260000Y-63740000D02*
X159260000Y-68940000D01*
G04 #@! TO.C,J3*
X124400000Y-82560000D02*
X129600000Y-82560000D01*
X129600000Y-82560000D02*
X129600000Y-79900000D01*
X129600000Y-79900000D02*
X124400000Y-79900000D01*
X124400000Y-79900000D02*
X124400000Y-82560000D01*
X125350000Y-79900000D02*
X125350000Y-73900000D01*
X125350000Y-73900000D02*
X126110000Y-73900000D01*
X126110000Y-73900000D02*
X126110000Y-79900000D01*
X125410000Y-79900000D02*
X125410000Y-73900000D01*
X125530000Y-79900000D02*
X125530000Y-73900000D01*
X125650000Y-79900000D02*
X125650000Y-73900000D01*
X125770000Y-79900000D02*
X125770000Y-73900000D01*
X125890000Y-79900000D02*
X125890000Y-73900000D01*
X126010000Y-79900000D02*
X126010000Y-73900000D01*
X125350000Y-82890000D02*
X125350000Y-82560000D01*
X126110000Y-82890000D02*
X126110000Y-82560000D01*
X127000000Y-82560000D02*
X127000000Y-79900000D01*
X127890000Y-79900000D02*
X127890000Y-73900000D01*
X127890000Y-73900000D02*
X128650000Y-73900000D01*
X128650000Y-73900000D02*
X128650000Y-79900000D01*
X127890000Y-82957071D02*
X127890000Y-82560000D01*
X128650000Y-82957071D02*
X128650000Y-82560000D01*
X125730000Y-85270000D02*
X124460000Y-85270000D01*
X124460000Y-85270000D02*
X124460000Y-84000000D01*
G04 #@! TO.C,R2*
X127261252Y-67496000D02*
X126738748Y-67496000D01*
X127261252Y-66076000D02*
X126738748Y-66076000D01*
G04 #@! TO.C,R3*
X127261252Y-64448000D02*
X126738748Y-64448000D01*
X127261252Y-63028000D02*
X126738748Y-63028000D01*
G04 #@! TO.C,SW1*
X143458000Y-86432000D02*
X143458000Y-85782000D01*
X143458000Y-82732000D02*
X143458000Y-83382000D01*
X149658000Y-83382000D02*
X149658000Y-82732000D01*
X149658000Y-86432000D02*
X149658000Y-85782000D01*
X143458000Y-86432000D02*
X149658000Y-86432000D01*
X149658000Y-82732000D02*
X143458000Y-82732000D01*
D10*
G04 #@! TO.C,SW3*
X145350000Y-64980000D02*
X146350000Y-64980000D01*
X146350000Y-64980000D02*
X146850000Y-64980000D01*
X146850000Y-64980000D02*
X146850000Y-61980000D01*
X146850000Y-61980000D02*
X145350000Y-61980000D01*
X136850000Y-64980000D02*
X135850000Y-64980000D01*
X135850000Y-64980000D02*
X135850000Y-61980000D01*
X135850000Y-61980000D02*
X136850000Y-61980000D01*
D11*
G04 #@! TO.C,Y1*
X153720000Y-78210000D02*
X153720000Y-62235000D01*
X153720000Y-62235000D02*
X148620000Y-62235000D01*
X148620000Y-62235000D02*
X148620000Y-78210000D01*
G04 #@! TO.C,U1*
D10*
X133548095Y-82952380D02*
X133548095Y-83761904D01*
X133595714Y-83857142D01*
X133643333Y-83904761D01*
X133738571Y-83952380D01*
X133929047Y-83952380D01*
X134024285Y-83904761D01*
X134071904Y-83857142D01*
X134119523Y-83761904D01*
X134119523Y-82952380D01*
X135119523Y-83952380D02*
X134548095Y-83952380D01*
X134833809Y-83952380D02*
X134833809Y-82952380D01*
X134738571Y-83095238D01*
X134643333Y-83190476D01*
X134548095Y-83238095D01*
G04 #@! TO.C,C1*
X154669333Y-63501142D02*
X154621714Y-63548761D01*
X154478857Y-63596380D01*
X154383619Y-63596380D01*
X154240761Y-63548761D01*
X154145523Y-63453523D01*
X154097904Y-63358285D01*
X154050285Y-63167809D01*
X154050285Y-63024952D01*
X154097904Y-62834476D01*
X154145523Y-62739238D01*
X154240761Y-62644000D01*
X154383619Y-62596380D01*
X154478857Y-62596380D01*
X154621714Y-62644000D01*
X154669333Y-62691619D01*
X155621714Y-63596380D02*
X155050285Y-63596380D01*
X155336000Y-63596380D02*
X155336000Y-62596380D01*
X155240761Y-62739238D01*
X155145523Y-62834476D01*
X155050285Y-62882095D01*
G04 #@! TO.C,C2*
X154629333Y-75473142D02*
X154581714Y-75520761D01*
X154438857Y-75568380D01*
X154343619Y-75568380D01*
X154200761Y-75520761D01*
X154105523Y-75425523D01*
X154057904Y-75330285D01*
X154010285Y-75139809D01*
X154010285Y-74996952D01*
X154057904Y-74806476D01*
X154105523Y-74711238D01*
X154200761Y-74616000D01*
X154343619Y-74568380D01*
X154438857Y-74568380D01*
X154581714Y-74616000D01*
X154629333Y-74663619D01*
X155010285Y-74663619D02*
X155057904Y-74616000D01*
X155153142Y-74568380D01*
X155391238Y-74568380D01*
X155486476Y-74616000D01*
X155534095Y-74663619D01*
X155581714Y-74758857D01*
X155581714Y-74854095D01*
X155534095Y-74996952D01*
X154962666Y-75568380D01*
X155581714Y-75568380D01*
G04 #@! TO.C,D1*
X130271904Y-68922380D02*
X130271904Y-67922380D01*
X130510000Y-67922380D01*
X130652857Y-67970000D01*
X130748095Y-68065238D01*
X130795714Y-68160476D01*
X130843333Y-68350952D01*
X130843333Y-68493809D01*
X130795714Y-68684285D01*
X130748095Y-68779523D01*
X130652857Y-68874761D01*
X130510000Y-68922380D01*
X130271904Y-68922380D01*
X131795714Y-68922380D02*
X131224285Y-68922380D01*
X131510000Y-68922380D02*
X131510000Y-67922380D01*
X131414761Y-68065238D01*
X131319523Y-68160476D01*
X131224285Y-68208095D01*
G04 #@! TO.C,D2*
X130121904Y-62532380D02*
X130121904Y-61532380D01*
X130360000Y-61532380D01*
X130502857Y-61580000D01*
X130598095Y-61675238D01*
X130645714Y-61770476D01*
X130693333Y-61960952D01*
X130693333Y-62103809D01*
X130645714Y-62294285D01*
X130598095Y-62389523D01*
X130502857Y-62484761D01*
X130360000Y-62532380D01*
X130121904Y-62532380D01*
X131074285Y-61627619D02*
X131121904Y-61580000D01*
X131217142Y-61532380D01*
X131455238Y-61532380D01*
X131550476Y-61580000D01*
X131598095Y-61627619D01*
X131645714Y-61722857D01*
X131645714Y-61818095D01*
X131598095Y-61960952D01*
X131026666Y-62532380D01*
X131645714Y-62532380D01*
G04 #@! TO.C,J1*
X154666666Y-80452380D02*
X154666666Y-81166666D01*
X154619047Y-81309523D01*
X154523809Y-81404761D01*
X154380952Y-81452380D01*
X154285714Y-81452380D01*
X155666666Y-81452380D02*
X155095238Y-81452380D01*
X155380952Y-81452380D02*
X155380952Y-80452380D01*
X155285714Y-80595238D01*
X155190476Y-80690476D01*
X155095238Y-80738095D01*
G04 #@! TO.C,J2*
X154606666Y-68382380D02*
X154606666Y-69096666D01*
X154559047Y-69239523D01*
X154463809Y-69334761D01*
X154320952Y-69382380D01*
X154225714Y-69382380D01*
X155035238Y-68477619D02*
X155082857Y-68430000D01*
X155178095Y-68382380D01*
X155416190Y-68382380D01*
X155511428Y-68430000D01*
X155559047Y-68477619D01*
X155606666Y-68572857D01*
X155606666Y-68668095D01*
X155559047Y-68810952D01*
X154987619Y-69382380D01*
X155606666Y-69382380D01*
G04 #@! TO.C,J3*
X126556666Y-86052380D02*
X126556666Y-86766666D01*
X126509047Y-86909523D01*
X126413809Y-87004761D01*
X126270952Y-87052380D01*
X126175714Y-87052380D01*
X126937619Y-86052380D02*
X127556666Y-86052380D01*
X127223333Y-86433333D01*
X127366190Y-86433333D01*
X127461428Y-86480952D01*
X127509047Y-86528571D01*
X127556666Y-86623809D01*
X127556666Y-86861904D01*
X127509047Y-86957142D01*
X127461428Y-87004761D01*
X127366190Y-87052380D01*
X127080476Y-87052380D01*
X126985238Y-87004761D01*
X126937619Y-86957142D01*
G04 #@! TO.C,R2*
X126853333Y-68922380D02*
X126520000Y-68446190D01*
X126281904Y-68922380D02*
X126281904Y-67922380D01*
X126662857Y-67922380D01*
X126758095Y-67970000D01*
X126805714Y-68017619D01*
X126853333Y-68112857D01*
X126853333Y-68255714D01*
X126805714Y-68350952D01*
X126758095Y-68398571D01*
X126662857Y-68446190D01*
X126281904Y-68446190D01*
X127234285Y-68017619D02*
X127281904Y-67970000D01*
X127377142Y-67922380D01*
X127615238Y-67922380D01*
X127710476Y-67970000D01*
X127758095Y-68017619D01*
X127805714Y-68112857D01*
X127805714Y-68208095D01*
X127758095Y-68350952D01*
X127186666Y-68922380D01*
X127805714Y-68922380D01*
G04 #@! TO.C,R3*
X126823333Y-62592380D02*
X126490000Y-62116190D01*
X126251904Y-62592380D02*
X126251904Y-61592380D01*
X126632857Y-61592380D01*
X126728095Y-61640000D01*
X126775714Y-61687619D01*
X126823333Y-61782857D01*
X126823333Y-61925714D01*
X126775714Y-62020952D01*
X126728095Y-62068571D01*
X126632857Y-62116190D01*
X126251904Y-62116190D01*
X127156666Y-61592380D02*
X127775714Y-61592380D01*
X127442380Y-61973333D01*
X127585238Y-61973333D01*
X127680476Y-62020952D01*
X127728095Y-62068571D01*
X127775714Y-62163809D01*
X127775714Y-62401904D01*
X127728095Y-62497142D01*
X127680476Y-62544761D01*
X127585238Y-62592380D01*
X127299523Y-62592380D01*
X127204285Y-62544761D01*
X127156666Y-62497142D01*
G04 #@! TO.C,SW1*
X138666666Y-85404761D02*
X138809523Y-85452380D01*
X139047619Y-85452380D01*
X139142857Y-85404761D01*
X139190476Y-85357142D01*
X139238095Y-85261904D01*
X139238095Y-85166666D01*
X139190476Y-85071428D01*
X139142857Y-85023809D01*
X139047619Y-84976190D01*
X138857142Y-84928571D01*
X138761904Y-84880952D01*
X138714285Y-84833333D01*
X138666666Y-84738095D01*
X138666666Y-84642857D01*
X138714285Y-84547619D01*
X138761904Y-84500000D01*
X138857142Y-84452380D01*
X139095238Y-84452380D01*
X139238095Y-84500000D01*
X139571428Y-84452380D02*
X139809523Y-85452380D01*
X140000000Y-84738095D01*
X140190476Y-85452380D01*
X140428571Y-84452380D01*
X141333333Y-85452380D02*
X140761904Y-85452380D01*
X141047619Y-85452380D02*
X141047619Y-84452380D01*
X140952380Y-84595238D01*
X140857142Y-84690476D01*
X140761904Y-84738095D01*
G04 #@! TO.C,Y1*
X154243809Y-72286190D02*
X154243809Y-72762380D01*
X153910476Y-71762380D02*
X154243809Y-72286190D01*
X154577142Y-71762380D01*
X155434285Y-72762380D02*
X154862857Y-72762380D01*
X155148571Y-72762380D02*
X155148571Y-71762380D01*
X155053333Y-71905238D01*
X154958095Y-72000476D01*
X154862857Y-72048095D01*
G04 #@! TD*
%LPC*%
D12*
G04 #@! TO.C,U1*
X145908000Y-79184000D03*
X145908000Y-78384000D03*
X145908000Y-77584000D03*
X145908000Y-76784000D03*
X145908000Y-75984000D03*
X145908000Y-75184000D03*
X145908000Y-74384000D03*
X145908000Y-73584000D03*
X145908000Y-72784000D03*
X145908000Y-71984000D03*
X145908000Y-71184000D03*
D13*
X144208000Y-69484000D03*
X143408000Y-69484000D03*
X142608000Y-69484000D03*
X141808000Y-69484000D03*
X141008000Y-69484000D03*
X140208000Y-69484000D03*
X139408000Y-69484000D03*
X138608000Y-69484000D03*
X137808000Y-69484000D03*
X137008000Y-69484000D03*
X136208000Y-69484000D03*
D12*
X134508000Y-71184000D03*
X134508000Y-71984000D03*
X134508000Y-72784000D03*
X134508000Y-73584000D03*
X134508000Y-74384000D03*
X134508000Y-75184000D03*
X134508000Y-75984000D03*
X134508000Y-76784000D03*
X134508000Y-77584000D03*
X134508000Y-78384000D03*
X134508000Y-79184000D03*
D13*
X136208000Y-80884000D03*
X137008000Y-80884000D03*
X137808000Y-80884000D03*
X138608000Y-80884000D03*
X139408000Y-80884000D03*
X140208000Y-80884000D03*
X141008000Y-80884000D03*
X141808000Y-80884000D03*
X142608000Y-80884000D03*
X143408000Y-80884000D03*
X144208000Y-80884000D03*
G04 #@! TD*
D14*
G04 #@! TO.C,C1*
G36*
X155395289Y-64081413D02*
X155423778Y-64085639D01*
X155451715Y-64092637D01*
X155478832Y-64102340D01*
X155504867Y-64114653D01*
X155529570Y-64129460D01*
X155552703Y-64146616D01*
X155574043Y-64165957D01*
X155593384Y-64187297D01*
X155610540Y-64210430D01*
X155625347Y-64235133D01*
X155637660Y-64261168D01*
X155647363Y-64288285D01*
X155654361Y-64316222D01*
X155658587Y-64344711D01*
X155660000Y-64373477D01*
X155660000Y-65136523D01*
X155658587Y-65165289D01*
X155654361Y-65193778D01*
X155647363Y-65221715D01*
X155637660Y-65248832D01*
X155625347Y-65274867D01*
X155610540Y-65299570D01*
X155593384Y-65322703D01*
X155574043Y-65344043D01*
X155552703Y-65363384D01*
X155529570Y-65380540D01*
X155504867Y-65395347D01*
X155478832Y-65407660D01*
X155451715Y-65417363D01*
X155423778Y-65424361D01*
X155395289Y-65428587D01*
X155366523Y-65430000D01*
X154353477Y-65430000D01*
X154324711Y-65428587D01*
X154296222Y-65424361D01*
X154268285Y-65417363D01*
X154241168Y-65407660D01*
X154215133Y-65395347D01*
X154190430Y-65380540D01*
X154167297Y-65363384D01*
X154145957Y-65344043D01*
X154126616Y-65322703D01*
X154109460Y-65299570D01*
X154094653Y-65274867D01*
X154082340Y-65248832D01*
X154072637Y-65221715D01*
X154065639Y-65193778D01*
X154061413Y-65165289D01*
X154060000Y-65136523D01*
X154060000Y-64373477D01*
X154061413Y-64344711D01*
X154065639Y-64316222D01*
X154072637Y-64288285D01*
X154082340Y-64261168D01*
X154094653Y-64235133D01*
X154109460Y-64210430D01*
X154126616Y-64187297D01*
X154145957Y-64165957D01*
X154167297Y-64146616D01*
X154190430Y-64129460D01*
X154215133Y-64114653D01*
X154241168Y-64102340D01*
X154268285Y-64092637D01*
X154296222Y-64085639D01*
X154324711Y-64081413D01*
X154353477Y-64080000D01*
X155366523Y-64080000D01*
X155395289Y-64081413D01*
X155395289Y-64081413D01*
G37*
D15*
X154860000Y-64755000D03*
D14*
G36*
X155395289Y-66131413D02*
X155423778Y-66135639D01*
X155451715Y-66142637D01*
X155478832Y-66152340D01*
X155504867Y-66164653D01*
X155529570Y-66179460D01*
X155552703Y-66196616D01*
X155574043Y-66215957D01*
X155593384Y-66237297D01*
X155610540Y-66260430D01*
X155625347Y-66285133D01*
X155637660Y-66311168D01*
X155647363Y-66338285D01*
X155654361Y-66366222D01*
X155658587Y-66394711D01*
X155660000Y-66423477D01*
X155660000Y-67186523D01*
X155658587Y-67215289D01*
X155654361Y-67243778D01*
X155647363Y-67271715D01*
X155637660Y-67298832D01*
X155625347Y-67324867D01*
X155610540Y-67349570D01*
X155593384Y-67372703D01*
X155574043Y-67394043D01*
X155552703Y-67413384D01*
X155529570Y-67430540D01*
X155504867Y-67445347D01*
X155478832Y-67457660D01*
X155451715Y-67467363D01*
X155423778Y-67474361D01*
X155395289Y-67478587D01*
X155366523Y-67480000D01*
X154353477Y-67480000D01*
X154324711Y-67478587D01*
X154296222Y-67474361D01*
X154268285Y-67467363D01*
X154241168Y-67457660D01*
X154215133Y-67445347D01*
X154190430Y-67430540D01*
X154167297Y-67413384D01*
X154145957Y-67394043D01*
X154126616Y-67372703D01*
X154109460Y-67349570D01*
X154094653Y-67324867D01*
X154082340Y-67298832D01*
X154072637Y-67271715D01*
X154065639Y-67243778D01*
X154061413Y-67215289D01*
X154060000Y-67186523D01*
X154060000Y-66423477D01*
X154061413Y-66394711D01*
X154065639Y-66366222D01*
X154072637Y-66338285D01*
X154082340Y-66311168D01*
X154094653Y-66285133D01*
X154109460Y-66260430D01*
X154126616Y-66237297D01*
X154145957Y-66215957D01*
X154167297Y-66196616D01*
X154190430Y-66179460D01*
X154215133Y-66164653D01*
X154241168Y-66152340D01*
X154268285Y-66142637D01*
X154296222Y-66135639D01*
X154324711Y-66131413D01*
X154353477Y-66130000D01*
X155366523Y-66130000D01*
X155395289Y-66131413D01*
X155395289Y-66131413D01*
G37*
D15*
X154860000Y-66805000D03*
G04 #@! TD*
D14*
G04 #@! TO.C,C2*
G36*
X155415289Y-78141413D02*
X155443778Y-78145639D01*
X155471715Y-78152637D01*
X155498832Y-78162340D01*
X155524867Y-78174653D01*
X155549570Y-78189460D01*
X155572703Y-78206616D01*
X155594043Y-78225957D01*
X155613384Y-78247297D01*
X155630540Y-78270430D01*
X155645347Y-78295133D01*
X155657660Y-78321168D01*
X155667363Y-78348285D01*
X155674361Y-78376222D01*
X155678587Y-78404711D01*
X155680000Y-78433477D01*
X155680000Y-79196523D01*
X155678587Y-79225289D01*
X155674361Y-79253778D01*
X155667363Y-79281715D01*
X155657660Y-79308832D01*
X155645347Y-79334867D01*
X155630540Y-79359570D01*
X155613384Y-79382703D01*
X155594043Y-79404043D01*
X155572703Y-79423384D01*
X155549570Y-79440540D01*
X155524867Y-79455347D01*
X155498832Y-79467660D01*
X155471715Y-79477363D01*
X155443778Y-79484361D01*
X155415289Y-79488587D01*
X155386523Y-79490000D01*
X154373477Y-79490000D01*
X154344711Y-79488587D01*
X154316222Y-79484361D01*
X154288285Y-79477363D01*
X154261168Y-79467660D01*
X154235133Y-79455347D01*
X154210430Y-79440540D01*
X154187297Y-79423384D01*
X154165957Y-79404043D01*
X154146616Y-79382703D01*
X154129460Y-79359570D01*
X154114653Y-79334867D01*
X154102340Y-79308832D01*
X154092637Y-79281715D01*
X154085639Y-79253778D01*
X154081413Y-79225289D01*
X154080000Y-79196523D01*
X154080000Y-78433477D01*
X154081413Y-78404711D01*
X154085639Y-78376222D01*
X154092637Y-78348285D01*
X154102340Y-78321168D01*
X154114653Y-78295133D01*
X154129460Y-78270430D01*
X154146616Y-78247297D01*
X154165957Y-78225957D01*
X154187297Y-78206616D01*
X154210430Y-78189460D01*
X154235133Y-78174653D01*
X154261168Y-78162340D01*
X154288285Y-78152637D01*
X154316222Y-78145639D01*
X154344711Y-78141413D01*
X154373477Y-78140000D01*
X155386523Y-78140000D01*
X155415289Y-78141413D01*
X155415289Y-78141413D01*
G37*
D15*
X154880000Y-78815000D03*
D14*
G36*
X155415289Y-76091413D02*
X155443778Y-76095639D01*
X155471715Y-76102637D01*
X155498832Y-76112340D01*
X155524867Y-76124653D01*
X155549570Y-76139460D01*
X155572703Y-76156616D01*
X155594043Y-76175957D01*
X155613384Y-76197297D01*
X155630540Y-76220430D01*
X155645347Y-76245133D01*
X155657660Y-76271168D01*
X155667363Y-76298285D01*
X155674361Y-76326222D01*
X155678587Y-76354711D01*
X155680000Y-76383477D01*
X155680000Y-77146523D01*
X155678587Y-77175289D01*
X155674361Y-77203778D01*
X155667363Y-77231715D01*
X155657660Y-77258832D01*
X155645347Y-77284867D01*
X155630540Y-77309570D01*
X155613384Y-77332703D01*
X155594043Y-77354043D01*
X155572703Y-77373384D01*
X155549570Y-77390540D01*
X155524867Y-77405347D01*
X155498832Y-77417660D01*
X155471715Y-77427363D01*
X155443778Y-77434361D01*
X155415289Y-77438587D01*
X155386523Y-77440000D01*
X154373477Y-77440000D01*
X154344711Y-77438587D01*
X154316222Y-77434361D01*
X154288285Y-77427363D01*
X154261168Y-77417660D01*
X154235133Y-77405347D01*
X154210430Y-77390540D01*
X154187297Y-77373384D01*
X154165957Y-77354043D01*
X154146616Y-77332703D01*
X154129460Y-77309570D01*
X154114653Y-77284867D01*
X154102340Y-77258832D01*
X154092637Y-77231715D01*
X154085639Y-77203778D01*
X154081413Y-77175289D01*
X154080000Y-77146523D01*
X154080000Y-76383477D01*
X154081413Y-76354711D01*
X154085639Y-76326222D01*
X154092637Y-76298285D01*
X154102340Y-76271168D01*
X154114653Y-76245133D01*
X154129460Y-76220430D01*
X154146616Y-76197297D01*
X154165957Y-76175957D01*
X154187297Y-76156616D01*
X154210430Y-76139460D01*
X154235133Y-76124653D01*
X154261168Y-76112340D01*
X154288285Y-76102637D01*
X154316222Y-76095639D01*
X154344711Y-76091413D01*
X154373477Y-76090000D01*
X155386523Y-76090000D01*
X155415289Y-76091413D01*
X155415289Y-76091413D01*
G37*
D15*
X154880000Y-76765000D03*
G04 #@! TD*
D14*
G04 #@! TO.C,D1*
G36*
X130449289Y-65987413D02*
X130477778Y-65991639D01*
X130505715Y-65998637D01*
X130532832Y-66008340D01*
X130558867Y-66020653D01*
X130583570Y-66035460D01*
X130606703Y-66052616D01*
X130628043Y-66071957D01*
X130647384Y-66093297D01*
X130664540Y-66116430D01*
X130679347Y-66141133D01*
X130691660Y-66167168D01*
X130701363Y-66194285D01*
X130708361Y-66222222D01*
X130712587Y-66250711D01*
X130714000Y-66279477D01*
X130714000Y-67292523D01*
X130712587Y-67321289D01*
X130708361Y-67349778D01*
X130701363Y-67377715D01*
X130691660Y-67404832D01*
X130679347Y-67430867D01*
X130664540Y-67455570D01*
X130647384Y-67478703D01*
X130628043Y-67500043D01*
X130606703Y-67519384D01*
X130583570Y-67536540D01*
X130558867Y-67551347D01*
X130532832Y-67563660D01*
X130505715Y-67573363D01*
X130477778Y-67580361D01*
X130449289Y-67584587D01*
X130420523Y-67586000D01*
X129657477Y-67586000D01*
X129628711Y-67584587D01*
X129600222Y-67580361D01*
X129572285Y-67573363D01*
X129545168Y-67563660D01*
X129519133Y-67551347D01*
X129494430Y-67536540D01*
X129471297Y-67519384D01*
X129449957Y-67500043D01*
X129430616Y-67478703D01*
X129413460Y-67455570D01*
X129398653Y-67430867D01*
X129386340Y-67404832D01*
X129376637Y-67377715D01*
X129369639Y-67349778D01*
X129365413Y-67321289D01*
X129364000Y-67292523D01*
X129364000Y-66279477D01*
X129365413Y-66250711D01*
X129369639Y-66222222D01*
X129376637Y-66194285D01*
X129386340Y-66167168D01*
X129398653Y-66141133D01*
X129413460Y-66116430D01*
X129430616Y-66093297D01*
X129449957Y-66071957D01*
X129471297Y-66052616D01*
X129494430Y-66035460D01*
X129519133Y-66020653D01*
X129545168Y-66008340D01*
X129572285Y-65998637D01*
X129600222Y-65991639D01*
X129628711Y-65987413D01*
X129657477Y-65986000D01*
X130420523Y-65986000D01*
X130449289Y-65987413D01*
X130449289Y-65987413D01*
G37*
D15*
X130039000Y-66786000D03*
D14*
G36*
X132499289Y-65987413D02*
X132527778Y-65991639D01*
X132555715Y-65998637D01*
X132582832Y-66008340D01*
X132608867Y-66020653D01*
X132633570Y-66035460D01*
X132656703Y-66052616D01*
X132678043Y-66071957D01*
X132697384Y-66093297D01*
X132714540Y-66116430D01*
X132729347Y-66141133D01*
X132741660Y-66167168D01*
X132751363Y-66194285D01*
X132758361Y-66222222D01*
X132762587Y-66250711D01*
X132764000Y-66279477D01*
X132764000Y-67292523D01*
X132762587Y-67321289D01*
X132758361Y-67349778D01*
X132751363Y-67377715D01*
X132741660Y-67404832D01*
X132729347Y-67430867D01*
X132714540Y-67455570D01*
X132697384Y-67478703D01*
X132678043Y-67500043D01*
X132656703Y-67519384D01*
X132633570Y-67536540D01*
X132608867Y-67551347D01*
X132582832Y-67563660D01*
X132555715Y-67573363D01*
X132527778Y-67580361D01*
X132499289Y-67584587D01*
X132470523Y-67586000D01*
X131707477Y-67586000D01*
X131678711Y-67584587D01*
X131650222Y-67580361D01*
X131622285Y-67573363D01*
X131595168Y-67563660D01*
X131569133Y-67551347D01*
X131544430Y-67536540D01*
X131521297Y-67519384D01*
X131499957Y-67500043D01*
X131480616Y-67478703D01*
X131463460Y-67455570D01*
X131448653Y-67430867D01*
X131436340Y-67404832D01*
X131426637Y-67377715D01*
X131419639Y-67349778D01*
X131415413Y-67321289D01*
X131414000Y-67292523D01*
X131414000Y-66279477D01*
X131415413Y-66250711D01*
X131419639Y-66222222D01*
X131426637Y-66194285D01*
X131436340Y-66167168D01*
X131448653Y-66141133D01*
X131463460Y-66116430D01*
X131480616Y-66093297D01*
X131499957Y-66071957D01*
X131521297Y-66052616D01*
X131544430Y-66035460D01*
X131569133Y-66020653D01*
X131595168Y-66008340D01*
X131622285Y-65998637D01*
X131650222Y-65991639D01*
X131678711Y-65987413D01*
X131707477Y-65986000D01*
X132470523Y-65986000D01*
X132499289Y-65987413D01*
X132499289Y-65987413D01*
G37*
D15*
X132089000Y-66786000D03*
G04 #@! TD*
D14*
G04 #@! TO.C,D2*
G36*
X132245289Y-62939413D02*
X132273778Y-62943639D01*
X132301715Y-62950637D01*
X132328832Y-62960340D01*
X132354867Y-62972653D01*
X132379570Y-62987460D01*
X132402703Y-63004616D01*
X132424043Y-63023957D01*
X132443384Y-63045297D01*
X132460540Y-63068430D01*
X132475347Y-63093133D01*
X132487660Y-63119168D01*
X132497363Y-63146285D01*
X132504361Y-63174222D01*
X132508587Y-63202711D01*
X132510000Y-63231477D01*
X132510000Y-64244523D01*
X132508587Y-64273289D01*
X132504361Y-64301778D01*
X132497363Y-64329715D01*
X132487660Y-64356832D01*
X132475347Y-64382867D01*
X132460540Y-64407570D01*
X132443384Y-64430703D01*
X132424043Y-64452043D01*
X132402703Y-64471384D01*
X132379570Y-64488540D01*
X132354867Y-64503347D01*
X132328832Y-64515660D01*
X132301715Y-64525363D01*
X132273778Y-64532361D01*
X132245289Y-64536587D01*
X132216523Y-64538000D01*
X131453477Y-64538000D01*
X131424711Y-64536587D01*
X131396222Y-64532361D01*
X131368285Y-64525363D01*
X131341168Y-64515660D01*
X131315133Y-64503347D01*
X131290430Y-64488540D01*
X131267297Y-64471384D01*
X131245957Y-64452043D01*
X131226616Y-64430703D01*
X131209460Y-64407570D01*
X131194653Y-64382867D01*
X131182340Y-64356832D01*
X131172637Y-64329715D01*
X131165639Y-64301778D01*
X131161413Y-64273289D01*
X131160000Y-64244523D01*
X131160000Y-63231477D01*
X131161413Y-63202711D01*
X131165639Y-63174222D01*
X131172637Y-63146285D01*
X131182340Y-63119168D01*
X131194653Y-63093133D01*
X131209460Y-63068430D01*
X131226616Y-63045297D01*
X131245957Y-63023957D01*
X131267297Y-63004616D01*
X131290430Y-62987460D01*
X131315133Y-62972653D01*
X131341168Y-62960340D01*
X131368285Y-62950637D01*
X131396222Y-62943639D01*
X131424711Y-62939413D01*
X131453477Y-62938000D01*
X132216523Y-62938000D01*
X132245289Y-62939413D01*
X132245289Y-62939413D01*
G37*
D15*
X131835000Y-63738000D03*
D14*
G36*
X130195289Y-62939413D02*
X130223778Y-62943639D01*
X130251715Y-62950637D01*
X130278832Y-62960340D01*
X130304867Y-62972653D01*
X130329570Y-62987460D01*
X130352703Y-63004616D01*
X130374043Y-63023957D01*
X130393384Y-63045297D01*
X130410540Y-63068430D01*
X130425347Y-63093133D01*
X130437660Y-63119168D01*
X130447363Y-63146285D01*
X130454361Y-63174222D01*
X130458587Y-63202711D01*
X130460000Y-63231477D01*
X130460000Y-64244523D01*
X130458587Y-64273289D01*
X130454361Y-64301778D01*
X130447363Y-64329715D01*
X130437660Y-64356832D01*
X130425347Y-64382867D01*
X130410540Y-64407570D01*
X130393384Y-64430703D01*
X130374043Y-64452043D01*
X130352703Y-64471384D01*
X130329570Y-64488540D01*
X130304867Y-64503347D01*
X130278832Y-64515660D01*
X130251715Y-64525363D01*
X130223778Y-64532361D01*
X130195289Y-64536587D01*
X130166523Y-64538000D01*
X129403477Y-64538000D01*
X129374711Y-64536587D01*
X129346222Y-64532361D01*
X129318285Y-64525363D01*
X129291168Y-64515660D01*
X129265133Y-64503347D01*
X129240430Y-64488540D01*
X129217297Y-64471384D01*
X129195957Y-64452043D01*
X129176616Y-64430703D01*
X129159460Y-64407570D01*
X129144653Y-64382867D01*
X129132340Y-64356832D01*
X129122637Y-64329715D01*
X129115639Y-64301778D01*
X129111413Y-64273289D01*
X129110000Y-64244523D01*
X129110000Y-63231477D01*
X129111413Y-63202711D01*
X129115639Y-63174222D01*
X129122637Y-63146285D01*
X129132340Y-63119168D01*
X129144653Y-63093133D01*
X129159460Y-63068430D01*
X129176616Y-63045297D01*
X129195957Y-63023957D01*
X129217297Y-63004616D01*
X129240430Y-62987460D01*
X129265133Y-62972653D01*
X129291168Y-62960340D01*
X129318285Y-62950637D01*
X129346222Y-62943639D01*
X129374711Y-62939413D01*
X129403477Y-62938000D01*
X130166523Y-62938000D01*
X130195289Y-62939413D01*
X130195289Y-62939413D01*
G37*
D15*
X129785000Y-63738000D03*
G04 #@! TD*
D16*
G04 #@! TO.C,J1*
X157820000Y-71250000D03*
D17*
X157820000Y-73790000D03*
X157820000Y-76330000D03*
X157820000Y-78870000D03*
X157820000Y-81410000D03*
X157820000Y-83950000D03*
G04 #@! TD*
G04 #@! TO.C,J2*
X157820000Y-67610000D03*
D16*
X157820000Y-65070000D03*
G04 #@! TD*
G04 #@! TO.C,J3*
X125730000Y-84000000D03*
D17*
X128270000Y-84000000D03*
G04 #@! TD*
D14*
G04 #@! TO.C,R2*
G36*
X128435289Y-65987413D02*
X128463778Y-65991639D01*
X128491715Y-65998637D01*
X128518832Y-66008340D01*
X128544867Y-66020653D01*
X128569570Y-66035460D01*
X128592703Y-66052616D01*
X128614043Y-66071957D01*
X128633384Y-66093297D01*
X128650540Y-66116430D01*
X128665347Y-66141133D01*
X128677660Y-66167168D01*
X128687363Y-66194285D01*
X128694361Y-66222222D01*
X128698587Y-66250711D01*
X128700000Y-66279477D01*
X128700000Y-67292523D01*
X128698587Y-67321289D01*
X128694361Y-67349778D01*
X128687363Y-67377715D01*
X128677660Y-67404832D01*
X128665347Y-67430867D01*
X128650540Y-67455570D01*
X128633384Y-67478703D01*
X128614043Y-67500043D01*
X128592703Y-67519384D01*
X128569570Y-67536540D01*
X128544867Y-67551347D01*
X128518832Y-67563660D01*
X128491715Y-67573363D01*
X128463778Y-67580361D01*
X128435289Y-67584587D01*
X128406523Y-67586000D01*
X127643477Y-67586000D01*
X127614711Y-67584587D01*
X127586222Y-67580361D01*
X127558285Y-67573363D01*
X127531168Y-67563660D01*
X127505133Y-67551347D01*
X127480430Y-67536540D01*
X127457297Y-67519384D01*
X127435957Y-67500043D01*
X127416616Y-67478703D01*
X127399460Y-67455570D01*
X127384653Y-67430867D01*
X127372340Y-67404832D01*
X127362637Y-67377715D01*
X127355639Y-67349778D01*
X127351413Y-67321289D01*
X127350000Y-67292523D01*
X127350000Y-66279477D01*
X127351413Y-66250711D01*
X127355639Y-66222222D01*
X127362637Y-66194285D01*
X127372340Y-66167168D01*
X127384653Y-66141133D01*
X127399460Y-66116430D01*
X127416616Y-66093297D01*
X127435957Y-66071957D01*
X127457297Y-66052616D01*
X127480430Y-66035460D01*
X127505133Y-66020653D01*
X127531168Y-66008340D01*
X127558285Y-65998637D01*
X127586222Y-65991639D01*
X127614711Y-65987413D01*
X127643477Y-65986000D01*
X128406523Y-65986000D01*
X128435289Y-65987413D01*
X128435289Y-65987413D01*
G37*
D15*
X128025000Y-66786000D03*
D14*
G36*
X126385289Y-65987413D02*
X126413778Y-65991639D01*
X126441715Y-65998637D01*
X126468832Y-66008340D01*
X126494867Y-66020653D01*
X126519570Y-66035460D01*
X126542703Y-66052616D01*
X126564043Y-66071957D01*
X126583384Y-66093297D01*
X126600540Y-66116430D01*
X126615347Y-66141133D01*
X126627660Y-66167168D01*
X126637363Y-66194285D01*
X126644361Y-66222222D01*
X126648587Y-66250711D01*
X126650000Y-66279477D01*
X126650000Y-67292523D01*
X126648587Y-67321289D01*
X126644361Y-67349778D01*
X126637363Y-67377715D01*
X126627660Y-67404832D01*
X126615347Y-67430867D01*
X126600540Y-67455570D01*
X126583384Y-67478703D01*
X126564043Y-67500043D01*
X126542703Y-67519384D01*
X126519570Y-67536540D01*
X126494867Y-67551347D01*
X126468832Y-67563660D01*
X126441715Y-67573363D01*
X126413778Y-67580361D01*
X126385289Y-67584587D01*
X126356523Y-67586000D01*
X125593477Y-67586000D01*
X125564711Y-67584587D01*
X125536222Y-67580361D01*
X125508285Y-67573363D01*
X125481168Y-67563660D01*
X125455133Y-67551347D01*
X125430430Y-67536540D01*
X125407297Y-67519384D01*
X125385957Y-67500043D01*
X125366616Y-67478703D01*
X125349460Y-67455570D01*
X125334653Y-67430867D01*
X125322340Y-67404832D01*
X125312637Y-67377715D01*
X125305639Y-67349778D01*
X125301413Y-67321289D01*
X125300000Y-67292523D01*
X125300000Y-66279477D01*
X125301413Y-66250711D01*
X125305639Y-66222222D01*
X125312637Y-66194285D01*
X125322340Y-66167168D01*
X125334653Y-66141133D01*
X125349460Y-66116430D01*
X125366616Y-66093297D01*
X125385957Y-66071957D01*
X125407297Y-66052616D01*
X125430430Y-66035460D01*
X125455133Y-66020653D01*
X125481168Y-66008340D01*
X125508285Y-65998637D01*
X125536222Y-65991639D01*
X125564711Y-65987413D01*
X125593477Y-65986000D01*
X126356523Y-65986000D01*
X126385289Y-65987413D01*
X126385289Y-65987413D01*
G37*
D15*
X125975000Y-66786000D03*
G04 #@! TD*
D14*
G04 #@! TO.C,R3*
G36*
X128435289Y-62939413D02*
X128463778Y-62943639D01*
X128491715Y-62950637D01*
X128518832Y-62960340D01*
X128544867Y-62972653D01*
X128569570Y-62987460D01*
X128592703Y-63004616D01*
X128614043Y-63023957D01*
X128633384Y-63045297D01*
X128650540Y-63068430D01*
X128665347Y-63093133D01*
X128677660Y-63119168D01*
X128687363Y-63146285D01*
X128694361Y-63174222D01*
X128698587Y-63202711D01*
X128700000Y-63231477D01*
X128700000Y-64244523D01*
X128698587Y-64273289D01*
X128694361Y-64301778D01*
X128687363Y-64329715D01*
X128677660Y-64356832D01*
X128665347Y-64382867D01*
X128650540Y-64407570D01*
X128633384Y-64430703D01*
X128614043Y-64452043D01*
X128592703Y-64471384D01*
X128569570Y-64488540D01*
X128544867Y-64503347D01*
X128518832Y-64515660D01*
X128491715Y-64525363D01*
X128463778Y-64532361D01*
X128435289Y-64536587D01*
X128406523Y-64538000D01*
X127643477Y-64538000D01*
X127614711Y-64536587D01*
X127586222Y-64532361D01*
X127558285Y-64525363D01*
X127531168Y-64515660D01*
X127505133Y-64503347D01*
X127480430Y-64488540D01*
X127457297Y-64471384D01*
X127435957Y-64452043D01*
X127416616Y-64430703D01*
X127399460Y-64407570D01*
X127384653Y-64382867D01*
X127372340Y-64356832D01*
X127362637Y-64329715D01*
X127355639Y-64301778D01*
X127351413Y-64273289D01*
X127350000Y-64244523D01*
X127350000Y-63231477D01*
X127351413Y-63202711D01*
X127355639Y-63174222D01*
X127362637Y-63146285D01*
X127372340Y-63119168D01*
X127384653Y-63093133D01*
X127399460Y-63068430D01*
X127416616Y-63045297D01*
X127435957Y-63023957D01*
X127457297Y-63004616D01*
X127480430Y-62987460D01*
X127505133Y-62972653D01*
X127531168Y-62960340D01*
X127558285Y-62950637D01*
X127586222Y-62943639D01*
X127614711Y-62939413D01*
X127643477Y-62938000D01*
X128406523Y-62938000D01*
X128435289Y-62939413D01*
X128435289Y-62939413D01*
G37*
D15*
X128025000Y-63738000D03*
D14*
G36*
X126385289Y-62939413D02*
X126413778Y-62943639D01*
X126441715Y-62950637D01*
X126468832Y-62960340D01*
X126494867Y-62972653D01*
X126519570Y-62987460D01*
X126542703Y-63004616D01*
X126564043Y-63023957D01*
X126583384Y-63045297D01*
X126600540Y-63068430D01*
X126615347Y-63093133D01*
X126627660Y-63119168D01*
X126637363Y-63146285D01*
X126644361Y-63174222D01*
X126648587Y-63202711D01*
X126650000Y-63231477D01*
X126650000Y-64244523D01*
X126648587Y-64273289D01*
X126644361Y-64301778D01*
X126637363Y-64329715D01*
X126627660Y-64356832D01*
X126615347Y-64382867D01*
X126600540Y-64407570D01*
X126583384Y-64430703D01*
X126564043Y-64452043D01*
X126542703Y-64471384D01*
X126519570Y-64488540D01*
X126494867Y-64503347D01*
X126468832Y-64515660D01*
X126441715Y-64525363D01*
X126413778Y-64532361D01*
X126385289Y-64536587D01*
X126356523Y-64538000D01*
X125593477Y-64538000D01*
X125564711Y-64536587D01*
X125536222Y-64532361D01*
X125508285Y-64525363D01*
X125481168Y-64515660D01*
X125455133Y-64503347D01*
X125430430Y-64488540D01*
X125407297Y-64471384D01*
X125385957Y-64452043D01*
X125366616Y-64430703D01*
X125349460Y-64407570D01*
X125334653Y-64382867D01*
X125322340Y-64356832D01*
X125312637Y-64329715D01*
X125305639Y-64301778D01*
X125301413Y-64273289D01*
X125300000Y-64244523D01*
X125300000Y-63231477D01*
X125301413Y-63202711D01*
X125305639Y-63174222D01*
X125312637Y-63146285D01*
X125322340Y-63119168D01*
X125334653Y-63093133D01*
X125349460Y-63068430D01*
X125366616Y-63045297D01*
X125385957Y-63023957D01*
X125407297Y-63004616D01*
X125430430Y-62987460D01*
X125455133Y-62972653D01*
X125481168Y-62960340D01*
X125508285Y-62950637D01*
X125536222Y-62943639D01*
X125564711Y-62939413D01*
X125593477Y-62938000D01*
X126356523Y-62938000D01*
X126385289Y-62939413D01*
X126385289Y-62939413D01*
G37*
D15*
X125975000Y-63738000D03*
G04 #@! TD*
D18*
G04 #@! TO.C,SW1*
X143858000Y-84582000D03*
X149258000Y-84582000D03*
G04 #@! TD*
D19*
G04 #@! TO.C,SW3*
X145350000Y-63480000D03*
X141350000Y-63480000D03*
X137350000Y-63480000D03*
G04 #@! TD*
D20*
G04 #@! TO.C,Y1*
X151170000Y-66372500D03*
X151170000Y-78247500D03*
G04 #@! TD*
M02*
