G04 #@! TF.GenerationSoftware,KiCad,Pcbnew,(5.0.2)-1*
G04 #@! TF.CreationDate,2019-10-30T16:47:08+01:00*
G04 #@! TF.ProjectId,pcb_thesis,7063625f-7468-4657-9369-732e6b696361,rev?*
G04 #@! TF.SameCoordinates,Original*
G04 #@! TF.FileFunction,Soldermask,Bot*
G04 #@! TF.FilePolarity,Negative*
%FSLAX46Y46*%
G04 Gerber Fmt 4.6, Leading zero omitted, Abs format (unit mm)*
G04 Created by KiCad (PCBNEW (5.0.2)-1) date 30.10.2019 16:47:08*
%MOMM*%
%LPD*%
G01*
G04 APERTURE LIST*
%ADD10C,0.100000*%
G04 APERTURE END LIST*
D10*
G36*
X142089724Y-84373512D02*
X142127868Y-84385083D01*
X142163020Y-84403872D01*
X142193837Y-84429163D01*
X142219128Y-84459980D01*
X142237917Y-84495132D01*
X142249488Y-84533276D01*
X142254000Y-84579089D01*
X142254000Y-86108911D01*
X142249488Y-86154724D01*
X142237917Y-86192868D01*
X142219128Y-86228020D01*
X142193837Y-86258837D01*
X142163020Y-86284128D01*
X142127868Y-86302917D01*
X142089724Y-86314488D01*
X142043911Y-86319000D01*
X140839089Y-86319000D01*
X140793276Y-86314488D01*
X140755132Y-86302917D01*
X140719980Y-86284128D01*
X140689163Y-86258837D01*
X140663872Y-86228020D01*
X140645083Y-86192868D01*
X140633512Y-86154724D01*
X140629000Y-86108911D01*
X140629000Y-84579089D01*
X140633512Y-84533276D01*
X140645083Y-84495132D01*
X140663872Y-84459980D01*
X140689163Y-84429163D01*
X140719980Y-84403872D01*
X140755132Y-84385083D01*
X140793276Y-84373512D01*
X140839089Y-84369000D01*
X142043911Y-84369000D01*
X142089724Y-84373512D01*
X142089724Y-84373512D01*
G37*
G36*
X139114724Y-84373512D02*
X139152868Y-84385083D01*
X139188020Y-84403872D01*
X139218837Y-84429163D01*
X139244128Y-84459980D01*
X139262917Y-84495132D01*
X139274488Y-84533276D01*
X139279000Y-84579089D01*
X139279000Y-86108911D01*
X139274488Y-86154724D01*
X139262917Y-86192868D01*
X139244128Y-86228020D01*
X139218837Y-86258837D01*
X139188020Y-86284128D01*
X139152868Y-86302917D01*
X139114724Y-86314488D01*
X139068911Y-86319000D01*
X137864089Y-86319000D01*
X137818276Y-86314488D01*
X137780132Y-86302917D01*
X137744980Y-86284128D01*
X137714163Y-86258837D01*
X137688872Y-86228020D01*
X137670083Y-86192868D01*
X137658512Y-86154724D01*
X137654000Y-86108911D01*
X137654000Y-84579089D01*
X137658512Y-84533276D01*
X137670083Y-84495132D01*
X137688872Y-84459980D01*
X137714163Y-84429163D01*
X137744980Y-84403872D01*
X137780132Y-84385083D01*
X137818276Y-84373512D01*
X137864089Y-84369000D01*
X139068911Y-84369000D01*
X139114724Y-84373512D01*
X139114724Y-84373512D01*
G37*
G36*
X126680000Y-84950000D02*
X124780000Y-84950000D01*
X124780000Y-83050000D01*
X126680000Y-83050000D01*
X126680000Y-84950000D01*
X126680000Y-84950000D01*
G37*
G36*
X128386448Y-83056873D02*
X128456232Y-83063746D01*
X128545770Y-83090907D01*
X128635309Y-83118068D01*
X128800347Y-83206283D01*
X128945001Y-83324999D01*
X129063717Y-83469653D01*
X129151932Y-83634691D01*
X129151932Y-83634692D01*
X129206254Y-83813768D01*
X129224596Y-84000000D01*
X129211179Y-84136232D01*
X129206254Y-84186231D01*
X129151932Y-84365309D01*
X129063717Y-84530347D01*
X128945001Y-84675001D01*
X128800347Y-84793717D01*
X128635309Y-84881932D01*
X128575746Y-84900000D01*
X128456232Y-84936254D01*
X128386448Y-84943127D01*
X128316666Y-84950000D01*
X128223334Y-84950000D01*
X128153552Y-84943127D01*
X128083768Y-84936254D01*
X127964254Y-84900000D01*
X127904691Y-84881932D01*
X127739653Y-84793717D01*
X127594999Y-84675001D01*
X127476283Y-84530347D01*
X127388068Y-84365309D01*
X127333746Y-84186231D01*
X127328822Y-84136232D01*
X127315404Y-84000000D01*
X127333746Y-83813768D01*
X127388068Y-83634692D01*
X127388068Y-83634691D01*
X127476283Y-83469653D01*
X127594999Y-83324999D01*
X127739653Y-83206283D01*
X127904691Y-83118068D01*
X127994230Y-83090907D01*
X128083768Y-83063746D01*
X128153552Y-83056873D01*
X128223334Y-83050000D01*
X128316666Y-83050000D01*
X128386448Y-83056873D01*
X128386448Y-83056873D01*
G37*
G36*
X157936448Y-83006873D02*
X158006232Y-83013746D01*
X158095770Y-83040907D01*
X158185309Y-83068068D01*
X158350347Y-83156283D01*
X158495001Y-83274999D01*
X158613717Y-83419653D01*
X158701932Y-83584691D01*
X158701932Y-83584692D01*
X158756254Y-83763768D01*
X158765055Y-83853126D01*
X158774596Y-83950000D01*
X158756254Y-84136231D01*
X158701932Y-84315309D01*
X158613717Y-84480347D01*
X158495001Y-84625001D01*
X158350347Y-84743717D01*
X158185309Y-84831932D01*
X158140620Y-84845488D01*
X158006232Y-84886254D01*
X157866666Y-84900000D01*
X157773334Y-84900000D01*
X157633768Y-84886254D01*
X157499380Y-84845488D01*
X157454691Y-84831932D01*
X157289653Y-84743717D01*
X157144999Y-84625001D01*
X157026283Y-84480347D01*
X156938068Y-84315309D01*
X156883746Y-84136231D01*
X156865404Y-83950000D01*
X156874945Y-83853126D01*
X156883746Y-83763768D01*
X156938068Y-83584692D01*
X156938068Y-83584691D01*
X157026283Y-83419653D01*
X157144999Y-83274999D01*
X157289653Y-83156283D01*
X157454691Y-83068068D01*
X157544230Y-83040907D01*
X157633768Y-83013746D01*
X157703552Y-83006873D01*
X157773334Y-83000000D01*
X157866666Y-83000000D01*
X157936448Y-83006873D01*
X157936448Y-83006873D01*
G37*
G36*
X132382724Y-83229512D02*
X132420868Y-83241083D01*
X132456020Y-83259872D01*
X132486837Y-83285163D01*
X132512128Y-83315980D01*
X132530917Y-83351132D01*
X132542488Y-83389276D01*
X132547000Y-83435089D01*
X132547000Y-84639911D01*
X132542488Y-84685724D01*
X132530917Y-84723868D01*
X132512128Y-84759020D01*
X132486837Y-84789837D01*
X132456020Y-84815128D01*
X132420868Y-84833917D01*
X132382724Y-84845488D01*
X132336911Y-84850000D01*
X130807089Y-84850000D01*
X130761276Y-84845488D01*
X130723132Y-84833917D01*
X130687980Y-84815128D01*
X130657163Y-84789837D01*
X130631872Y-84759020D01*
X130613083Y-84723868D01*
X130601512Y-84685724D01*
X130597000Y-84639911D01*
X130597000Y-83435089D01*
X130601512Y-83389276D01*
X130613083Y-83351132D01*
X130631872Y-83315980D01*
X130657163Y-83285163D01*
X130687980Y-83259872D01*
X130723132Y-83241083D01*
X130761276Y-83229512D01*
X130807089Y-83225000D01*
X132336911Y-83225000D01*
X132382724Y-83229512D01*
X132382724Y-83229512D01*
G37*
G36*
X139424527Y-82262874D02*
X139466216Y-82275521D01*
X139504630Y-82296053D01*
X139538308Y-82323692D01*
X139565947Y-82357370D01*
X139586479Y-82395784D01*
X139599126Y-82437473D01*
X139604000Y-82486964D01*
X139604000Y-83629036D01*
X139599126Y-83678527D01*
X139586479Y-83720216D01*
X139565947Y-83758630D01*
X139538308Y-83792308D01*
X139504630Y-83819947D01*
X139466216Y-83840479D01*
X139424527Y-83853126D01*
X139375036Y-83858000D01*
X138482964Y-83858000D01*
X138433473Y-83853126D01*
X138391784Y-83840479D01*
X138353370Y-83819947D01*
X138319692Y-83792308D01*
X138292053Y-83758630D01*
X138271521Y-83720216D01*
X138258874Y-83678527D01*
X138254000Y-83629036D01*
X138254000Y-82486964D01*
X138258874Y-82437473D01*
X138271521Y-82395784D01*
X138292053Y-82357370D01*
X138319692Y-82323692D01*
X138353370Y-82296053D01*
X138391784Y-82275521D01*
X138433473Y-82262874D01*
X138482964Y-82258000D01*
X139375036Y-82258000D01*
X139424527Y-82262874D01*
X139424527Y-82262874D01*
G37*
G36*
X141474527Y-82262874D02*
X141516216Y-82275521D01*
X141554630Y-82296053D01*
X141588308Y-82323692D01*
X141615947Y-82357370D01*
X141636479Y-82395784D01*
X141649126Y-82437473D01*
X141654000Y-82486964D01*
X141654000Y-83629036D01*
X141649126Y-83678527D01*
X141636479Y-83720216D01*
X141615947Y-83758630D01*
X141588308Y-83792308D01*
X141554630Y-83819947D01*
X141516216Y-83840479D01*
X141474527Y-83853126D01*
X141425036Y-83858000D01*
X140532964Y-83858000D01*
X140483473Y-83853126D01*
X140441784Y-83840479D01*
X140403370Y-83819947D01*
X140369692Y-83792308D01*
X140342053Y-83758630D01*
X140321521Y-83720216D01*
X140308874Y-83678527D01*
X140304000Y-83629036D01*
X140304000Y-82486964D01*
X140308874Y-82437473D01*
X140321521Y-82395784D01*
X140342053Y-82357370D01*
X140369692Y-82323692D01*
X140403370Y-82296053D01*
X140441784Y-82275521D01*
X140483473Y-82262874D01*
X140532964Y-82258000D01*
X141425036Y-82258000D01*
X141474527Y-82262874D01*
X141474527Y-82262874D01*
G37*
G36*
X157936448Y-80466873D02*
X158006232Y-80473746D01*
X158095770Y-80500907D01*
X158185309Y-80528068D01*
X158350347Y-80616283D01*
X158495001Y-80734999D01*
X158613717Y-80879653D01*
X158701932Y-81044691D01*
X158756254Y-81223769D01*
X158774596Y-81410000D01*
X158756254Y-81596231D01*
X158701932Y-81775309D01*
X158613717Y-81940347D01*
X158495001Y-82085001D01*
X158350347Y-82203717D01*
X158185309Y-82291932D01*
X158134119Y-82307460D01*
X158006232Y-82346254D01*
X157866666Y-82360000D01*
X157773334Y-82360000D01*
X157633768Y-82346254D01*
X157505881Y-82307460D01*
X157454691Y-82291932D01*
X157289653Y-82203717D01*
X157144999Y-82085001D01*
X157026283Y-81940347D01*
X156938068Y-81775309D01*
X156883746Y-81596231D01*
X156865404Y-81410000D01*
X156883746Y-81223769D01*
X156938068Y-81044691D01*
X157026283Y-80879653D01*
X157144999Y-80734999D01*
X157289653Y-80616283D01*
X157454691Y-80528068D01*
X157544230Y-80500907D01*
X157633768Y-80473746D01*
X157703552Y-80466873D01*
X157773334Y-80460000D01*
X157866666Y-80460000D01*
X157936448Y-80466873D01*
X157936448Y-80466873D01*
G37*
G36*
X132382724Y-80254512D02*
X132420868Y-80266083D01*
X132456020Y-80284872D01*
X132486837Y-80310163D01*
X132512128Y-80340980D01*
X132530917Y-80376132D01*
X132542488Y-80414276D01*
X132547000Y-80460089D01*
X132547000Y-81664911D01*
X132542488Y-81710724D01*
X132530917Y-81748868D01*
X132512128Y-81784020D01*
X132486837Y-81814837D01*
X132456020Y-81840128D01*
X132420868Y-81858917D01*
X132382724Y-81870488D01*
X132336911Y-81875000D01*
X130807089Y-81875000D01*
X130761276Y-81870488D01*
X130723132Y-81858917D01*
X130687980Y-81840128D01*
X130657163Y-81814837D01*
X130631872Y-81784020D01*
X130613083Y-81748868D01*
X130601512Y-81710724D01*
X130597000Y-81664911D01*
X130597000Y-80460089D01*
X130601512Y-80414276D01*
X130613083Y-80376132D01*
X130631872Y-80340980D01*
X130657163Y-80310163D01*
X130687980Y-80284872D01*
X130723132Y-80266083D01*
X130761276Y-80254512D01*
X130807089Y-80250000D01*
X132336911Y-80250000D01*
X132382724Y-80254512D01*
X132382724Y-80254512D01*
G37*
G36*
X158006232Y-77933746D02*
X158095770Y-77960907D01*
X158185309Y-77988068D01*
X158350347Y-78076283D01*
X158495001Y-78194999D01*
X158613717Y-78339653D01*
X158701932Y-78504691D01*
X158756254Y-78683769D01*
X158774596Y-78870000D01*
X158756254Y-79056231D01*
X158701932Y-79235309D01*
X158613717Y-79400347D01*
X158495001Y-79545001D01*
X158350347Y-79663717D01*
X158185309Y-79751932D01*
X158140620Y-79765488D01*
X158006232Y-79806254D01*
X157866666Y-79820000D01*
X157773334Y-79820000D01*
X157633768Y-79806254D01*
X157499380Y-79765488D01*
X157454691Y-79751932D01*
X157289653Y-79663717D01*
X157144999Y-79545001D01*
X157026283Y-79400347D01*
X156938068Y-79235309D01*
X156883746Y-79056231D01*
X156865404Y-78870000D01*
X156883746Y-78683769D01*
X156938068Y-78504691D01*
X157026283Y-78339653D01*
X157144999Y-78194999D01*
X157289653Y-78076283D01*
X157454691Y-77988068D01*
X157544230Y-77960907D01*
X157633768Y-77933746D01*
X157773334Y-77920000D01*
X157866666Y-77920000D01*
X158006232Y-77933746D01*
X158006232Y-77933746D01*
G37*
G36*
X132382724Y-78149512D02*
X132420868Y-78161083D01*
X132456020Y-78179872D01*
X132486837Y-78205163D01*
X132512128Y-78235980D01*
X132530917Y-78271132D01*
X132542488Y-78309276D01*
X132547000Y-78355089D01*
X132547000Y-79559911D01*
X132542488Y-79605724D01*
X132530917Y-79643868D01*
X132512128Y-79679020D01*
X132486837Y-79709837D01*
X132456020Y-79735128D01*
X132420868Y-79753917D01*
X132382724Y-79765488D01*
X132336911Y-79770000D01*
X130807089Y-79770000D01*
X130761276Y-79765488D01*
X130723132Y-79753917D01*
X130687980Y-79735128D01*
X130657163Y-79709837D01*
X130631872Y-79679020D01*
X130613083Y-79643868D01*
X130601512Y-79605724D01*
X130597000Y-79559911D01*
X130597000Y-78355089D01*
X130601512Y-78309276D01*
X130613083Y-78271132D01*
X130631872Y-78235980D01*
X130657163Y-78205163D01*
X130687980Y-78179872D01*
X130723132Y-78161083D01*
X130761276Y-78149512D01*
X130807089Y-78145000D01*
X132336911Y-78145000D01*
X132382724Y-78149512D01*
X132382724Y-78149512D01*
G37*
G36*
X158006232Y-75393746D02*
X158095770Y-75420907D01*
X158185309Y-75448068D01*
X158350347Y-75536283D01*
X158495001Y-75654999D01*
X158613717Y-75799653D01*
X158701932Y-75964691D01*
X158756254Y-76143769D01*
X158774596Y-76330000D01*
X158756254Y-76516231D01*
X158701932Y-76695309D01*
X158613717Y-76860347D01*
X158495001Y-77005001D01*
X158350347Y-77123717D01*
X158185309Y-77211932D01*
X158095770Y-77239093D01*
X158006232Y-77266254D01*
X157866666Y-77280000D01*
X157773334Y-77280000D01*
X157633768Y-77266254D01*
X157544230Y-77239093D01*
X157454691Y-77211932D01*
X157289653Y-77123717D01*
X157144999Y-77005001D01*
X157026283Y-76860347D01*
X156938068Y-76695309D01*
X156883746Y-76516231D01*
X156865404Y-76330000D01*
X156883746Y-76143769D01*
X156938068Y-75964691D01*
X157026283Y-75799653D01*
X157144999Y-75654999D01*
X157289653Y-75536283D01*
X157454691Y-75448068D01*
X157544230Y-75420907D01*
X157633768Y-75393746D01*
X157773334Y-75380000D01*
X157866666Y-75380000D01*
X158006232Y-75393746D01*
X158006232Y-75393746D01*
G37*
G36*
X132382724Y-75174512D02*
X132420868Y-75186083D01*
X132456020Y-75204872D01*
X132486837Y-75230163D01*
X132512128Y-75260980D01*
X132530917Y-75296132D01*
X132542488Y-75334276D01*
X132547000Y-75380089D01*
X132547000Y-76584911D01*
X132542488Y-76630724D01*
X132530917Y-76668868D01*
X132512128Y-76704020D01*
X132486837Y-76734837D01*
X132456020Y-76760128D01*
X132420868Y-76778917D01*
X132382724Y-76790488D01*
X132336911Y-76795000D01*
X130807089Y-76795000D01*
X130761276Y-76790488D01*
X130723132Y-76778917D01*
X130687980Y-76760128D01*
X130657163Y-76734837D01*
X130631872Y-76704020D01*
X130613083Y-76668868D01*
X130601512Y-76630724D01*
X130597000Y-76584911D01*
X130597000Y-75380089D01*
X130601512Y-75334276D01*
X130613083Y-75296132D01*
X130631872Y-75260980D01*
X130657163Y-75230163D01*
X130687980Y-75204872D01*
X130723132Y-75186083D01*
X130761276Y-75174512D01*
X130807089Y-75170000D01*
X132336911Y-75170000D01*
X132382724Y-75174512D01*
X132382724Y-75174512D01*
G37*
G36*
X158006232Y-72853746D02*
X158095770Y-72880907D01*
X158185309Y-72908068D01*
X158350347Y-72996283D01*
X158495001Y-73114999D01*
X158613717Y-73259653D01*
X158701932Y-73424691D01*
X158756254Y-73603769D01*
X158774596Y-73790000D01*
X158756254Y-73976231D01*
X158701932Y-74155309D01*
X158613717Y-74320347D01*
X158495001Y-74465001D01*
X158350347Y-74583717D01*
X158185309Y-74671932D01*
X158095770Y-74699093D01*
X158006232Y-74726254D01*
X157866666Y-74740000D01*
X157773334Y-74740000D01*
X157633768Y-74726254D01*
X157544230Y-74699093D01*
X157454691Y-74671932D01*
X157289653Y-74583717D01*
X157144999Y-74465001D01*
X157026283Y-74320347D01*
X156938068Y-74155309D01*
X156883746Y-73976231D01*
X156865404Y-73790000D01*
X156883746Y-73603769D01*
X156938068Y-73424691D01*
X157026283Y-73259653D01*
X157144999Y-73114999D01*
X157289653Y-72996283D01*
X157454691Y-72908068D01*
X157544230Y-72880907D01*
X157633768Y-72853746D01*
X157773334Y-72840000D01*
X157866666Y-72840000D01*
X158006232Y-72853746D01*
X158006232Y-72853746D01*
G37*
G36*
X137590000Y-73290000D02*
X132890000Y-73290000D01*
X132890000Y-69790000D01*
X137590000Y-69790000D01*
X137590000Y-73290000D01*
X137590000Y-73290000D01*
G37*
G36*
X128790000Y-73290000D02*
X124090000Y-73290000D01*
X124090000Y-69790000D01*
X128790000Y-69790000D01*
X128790000Y-73290000D01*
X128790000Y-73290000D01*
G37*
G36*
X158770000Y-72200000D02*
X156870000Y-72200000D01*
X156870000Y-70300000D01*
X158770000Y-70300000D01*
X158770000Y-72200000D01*
X158770000Y-72200000D01*
G37*
G36*
X157936448Y-66666873D02*
X158006232Y-66673746D01*
X158095770Y-66700907D01*
X158185309Y-66728068D01*
X158350347Y-66816283D01*
X158495001Y-66934999D01*
X158613717Y-67079653D01*
X158701932Y-67244691D01*
X158756254Y-67423769D01*
X158774596Y-67610000D01*
X158756254Y-67796231D01*
X158701932Y-67975309D01*
X158613717Y-68140347D01*
X158495001Y-68285001D01*
X158350347Y-68403717D01*
X158185309Y-68491932D01*
X158095770Y-68519093D01*
X158006232Y-68546254D01*
X157866666Y-68560000D01*
X157773334Y-68560000D01*
X157633768Y-68546254D01*
X157544230Y-68519093D01*
X157454691Y-68491932D01*
X157289653Y-68403717D01*
X157144999Y-68285001D01*
X157026283Y-68140347D01*
X156938068Y-67975309D01*
X156883746Y-67796231D01*
X156865404Y-67610000D01*
X156883746Y-67423769D01*
X156938068Y-67244691D01*
X157026283Y-67079653D01*
X157144999Y-66934999D01*
X157289653Y-66816283D01*
X157454691Y-66728068D01*
X157544230Y-66700907D01*
X157633768Y-66673746D01*
X157703552Y-66666873D01*
X157773334Y-66660000D01*
X157866666Y-66660000D01*
X157936448Y-66666873D01*
X157936448Y-66666873D01*
G37*
G36*
X139170527Y-66514874D02*
X139212216Y-66527521D01*
X139250630Y-66548053D01*
X139284308Y-66575692D01*
X139311947Y-66609370D01*
X139332479Y-66647784D01*
X139345126Y-66689473D01*
X139350000Y-66738964D01*
X139350000Y-67881036D01*
X139345126Y-67930527D01*
X139332479Y-67972216D01*
X139311947Y-68010630D01*
X139284308Y-68044308D01*
X139250630Y-68071947D01*
X139212216Y-68092479D01*
X139170527Y-68105126D01*
X139121036Y-68110000D01*
X138228964Y-68110000D01*
X138179473Y-68105126D01*
X138137784Y-68092479D01*
X138099370Y-68071947D01*
X138065692Y-68044308D01*
X138038053Y-68010630D01*
X138017521Y-67972216D01*
X138004874Y-67930527D01*
X138000000Y-67881036D01*
X138000000Y-66738964D01*
X138004874Y-66689473D01*
X138017521Y-66647784D01*
X138038053Y-66609370D01*
X138065692Y-66575692D01*
X138099370Y-66548053D01*
X138137784Y-66527521D01*
X138179473Y-66514874D01*
X138228964Y-66510000D01*
X139121036Y-66510000D01*
X139170527Y-66514874D01*
X139170527Y-66514874D01*
G37*
G36*
X141220527Y-66514874D02*
X141262216Y-66527521D01*
X141300630Y-66548053D01*
X141334308Y-66575692D01*
X141361947Y-66609370D01*
X141382479Y-66647784D01*
X141395126Y-66689473D01*
X141400000Y-66738964D01*
X141400000Y-67881036D01*
X141395126Y-67930527D01*
X141382479Y-67972216D01*
X141361947Y-68010630D01*
X141334308Y-68044308D01*
X141300630Y-68071947D01*
X141262216Y-68092479D01*
X141220527Y-68105126D01*
X141171036Y-68110000D01*
X140278964Y-68110000D01*
X140229473Y-68105126D01*
X140187784Y-68092479D01*
X140149370Y-68071947D01*
X140115692Y-68044308D01*
X140088053Y-68010630D01*
X140067521Y-67972216D01*
X140054874Y-67930527D01*
X140050000Y-67881036D01*
X140050000Y-66738964D01*
X140054874Y-66689473D01*
X140067521Y-66647784D01*
X140088053Y-66609370D01*
X140115692Y-66575692D01*
X140149370Y-66548053D01*
X140187784Y-66527521D01*
X140229473Y-66514874D01*
X140278964Y-66510000D01*
X141171036Y-66510000D01*
X141220527Y-66514874D01*
X141220527Y-66514874D01*
G37*
G36*
X134806000Y-67666000D02*
X132606000Y-67666000D01*
X132606000Y-65966000D01*
X134806000Y-65966000D01*
X134806000Y-67666000D01*
X134806000Y-67666000D01*
G37*
G36*
X145000527Y-66264874D02*
X145042216Y-66277521D01*
X145080630Y-66298053D01*
X145114308Y-66325692D01*
X145141947Y-66359370D01*
X145162479Y-66397784D01*
X145175126Y-66439473D01*
X145180000Y-66488964D01*
X145180000Y-67381036D01*
X145175126Y-67430527D01*
X145162479Y-67472216D01*
X145141947Y-67510630D01*
X145114308Y-67544308D01*
X145080630Y-67571947D01*
X145042216Y-67592479D01*
X145000527Y-67605126D01*
X144951036Y-67610000D01*
X143808964Y-67610000D01*
X143759473Y-67605126D01*
X143717784Y-67592479D01*
X143679370Y-67571947D01*
X143645692Y-67544308D01*
X143618053Y-67510630D01*
X143597521Y-67472216D01*
X143584874Y-67430527D01*
X143580000Y-67381036D01*
X143580000Y-66488964D01*
X143584874Y-66439473D01*
X143597521Y-66397784D01*
X143618053Y-66359370D01*
X143645692Y-66325692D01*
X143679370Y-66298053D01*
X143717784Y-66277521D01*
X143759473Y-66264874D01*
X143808964Y-66260000D01*
X144951036Y-66260000D01*
X145000527Y-66264874D01*
X145000527Y-66264874D01*
G37*
G36*
X128506000Y-66516000D02*
X126306000Y-66516000D01*
X126306000Y-62516000D01*
X128506000Y-62516000D01*
X128506000Y-66516000D01*
X128506000Y-66516000D01*
G37*
G36*
X158770000Y-66020000D02*
X156870000Y-66020000D01*
X156870000Y-64120000D01*
X158770000Y-64120000D01*
X158770000Y-66020000D01*
X158770000Y-66020000D01*
G37*
G36*
X141581724Y-64053512D02*
X141619868Y-64065083D01*
X141655020Y-64083872D01*
X141685837Y-64109163D01*
X141711128Y-64139980D01*
X141729917Y-64175132D01*
X141741488Y-64213276D01*
X141746000Y-64259089D01*
X141746000Y-65788911D01*
X141741488Y-65834724D01*
X141729917Y-65872868D01*
X141711128Y-65908020D01*
X141685837Y-65938837D01*
X141655020Y-65964128D01*
X141619868Y-65982917D01*
X141581724Y-65994488D01*
X141535911Y-65999000D01*
X140331089Y-65999000D01*
X140285276Y-65994488D01*
X140247132Y-65982917D01*
X140211980Y-65964128D01*
X140181163Y-65938837D01*
X140155872Y-65908020D01*
X140137083Y-65872868D01*
X140125512Y-65834724D01*
X140121000Y-65788911D01*
X140121000Y-64259089D01*
X140125512Y-64213276D01*
X140137083Y-64175132D01*
X140155872Y-64139980D01*
X140181163Y-64109163D01*
X140211980Y-64083872D01*
X140247132Y-64065083D01*
X140285276Y-64053512D01*
X140331089Y-64049000D01*
X141535911Y-64049000D01*
X141581724Y-64053512D01*
X141581724Y-64053512D01*
G37*
G36*
X138606724Y-64053512D02*
X138644868Y-64065083D01*
X138680020Y-64083872D01*
X138710837Y-64109163D01*
X138736128Y-64139980D01*
X138754917Y-64175132D01*
X138766488Y-64213276D01*
X138771000Y-64259089D01*
X138771000Y-65788911D01*
X138766488Y-65834724D01*
X138754917Y-65872868D01*
X138736128Y-65908020D01*
X138710837Y-65938837D01*
X138680020Y-65964128D01*
X138644868Y-65982917D01*
X138606724Y-65994488D01*
X138560911Y-65999000D01*
X137356089Y-65999000D01*
X137310276Y-65994488D01*
X137272132Y-65982917D01*
X137236980Y-65964128D01*
X137206163Y-65938837D01*
X137180872Y-65908020D01*
X137162083Y-65872868D01*
X137150512Y-65834724D01*
X137146000Y-65788911D01*
X137146000Y-64259089D01*
X137150512Y-64213276D01*
X137162083Y-64175132D01*
X137180872Y-64139980D01*
X137206163Y-64109163D01*
X137236980Y-64083872D01*
X137272132Y-64065083D01*
X137310276Y-64053512D01*
X137356089Y-64049000D01*
X138560911Y-64049000D01*
X138606724Y-64053512D01*
X138606724Y-64053512D01*
G37*
G36*
X145000527Y-64214874D02*
X145042216Y-64227521D01*
X145080630Y-64248053D01*
X145114308Y-64275692D01*
X145141947Y-64309370D01*
X145162479Y-64347784D01*
X145175126Y-64389473D01*
X145180000Y-64438964D01*
X145180000Y-65331036D01*
X145175126Y-65380527D01*
X145162479Y-65422216D01*
X145141947Y-65460630D01*
X145114308Y-65494308D01*
X145080630Y-65521947D01*
X145042216Y-65542479D01*
X145000527Y-65555126D01*
X144951036Y-65560000D01*
X143808964Y-65560000D01*
X143759473Y-65555126D01*
X143717784Y-65542479D01*
X143679370Y-65521947D01*
X143645692Y-65494308D01*
X143618053Y-65460630D01*
X143597521Y-65422216D01*
X143584874Y-65380527D01*
X143580000Y-65331036D01*
X143580000Y-64438964D01*
X143584874Y-64389473D01*
X143597521Y-64347784D01*
X143618053Y-64309370D01*
X143645692Y-64275692D01*
X143679370Y-64248053D01*
X143717784Y-64227521D01*
X143759473Y-64214874D01*
X143808964Y-64210000D01*
X144951036Y-64210000D01*
X145000527Y-64214874D01*
X145000527Y-64214874D01*
G37*
G36*
X134806000Y-65366000D02*
X132606000Y-65366000D01*
X132606000Y-63666000D01*
X134806000Y-63666000D01*
X134806000Y-65366000D01*
X134806000Y-65366000D01*
G37*
G36*
X134806000Y-63066000D02*
X132606000Y-63066000D01*
X132606000Y-61366000D01*
X134806000Y-61366000D01*
X134806000Y-63066000D01*
X134806000Y-63066000D01*
G37*
M02*
