M48
;DRILL file {KiCad (5.0.2)-1} date 30.10.2019 16:48:25
;FORMAT={-:-/ absolute / inch / decimal}
FMAT,2
INCH,TZ
T1C0.0197
T2C0.0394
%
G90
G05
T1
X5.24Y-3.16
X5.38Y-2.65
X5.38Y-3.27
X5.4105Y-2.9014
X5.58Y-3.02
X5.5869Y-2.63
X5.6142Y-3.252
X5.67Y-3.38
X5.7535Y-2.6567
X5.7559Y-3.2051
X5.8098Y-3.1642
X5.8149Y-2.7977
X5.819Y-2.8567
X5.8205Y-2.9766
X5.8217Y-3.0488
X5.8547Y-3.1142
T2
X4.95Y-3.3071
X5.05Y-3.3071
X6.2134Y-2.5618
X6.2134Y-2.6618
X6.2134Y-2.8051
X6.2134Y-2.9051
X6.2134Y-3.0051
X6.2134Y-3.1051
X6.2134Y-3.2051
X6.2134Y-3.3051
T0
M30
