G04 #@! TF.GenerationSoftware,KiCad,Pcbnew,(5.0.2)-1*
G04 #@! TF.CreationDate,2019-10-30T16:47:08+01:00*
G04 #@! TF.ProjectId,pcb_thesis,7063625f-7468-4657-9369-732e6b696361,rev?*
G04 #@! TF.SameCoordinates,Original*
G04 #@! TF.FileFunction,Legend,Bot*
G04 #@! TF.FilePolarity,Positive*
%FSLAX46Y46*%
G04 Gerber Fmt 4.6, Leading zero omitted, Abs format (unit mm)*
G04 Created by KiCad (PCBNEW (5.0.2)-1) date 30.10.2019 16:47:08*
%MOMM*%
%LPD*%
G01*
G04 APERTURE LIST*
%ADD10C,0.120000*%
%ADD11C,0.150000*%
%ADD12C,0.100000*%
%ADD13C,1.350000*%
%ADD14C,1.625000*%
%ADD15R,4.700000X3.500000*%
%ADD16R,1.900000X1.900000*%
%ADD17O,1.900000X1.900000*%
%ADD18R,2.200000X4.000000*%
%ADD19R,2.200000X1.700000*%
G04 APERTURE END LIST*
D10*
G04 #@! TO.C,C5*
X139438748Y-66600000D02*
X139961252Y-66600000D01*
X139438748Y-68020000D02*
X139961252Y-68020000D01*
G04 #@! TO.C,C3*
X140048064Y-65934000D02*
X138843936Y-65934000D01*
X140048064Y-64114000D02*
X138843936Y-64114000D01*
G04 #@! TO.C,C4*
X140215252Y-82348000D02*
X139692748Y-82348000D01*
X140215252Y-83768000D02*
X139692748Y-83768000D01*
G04 #@! TO.C,D5*
X124040000Y-68290000D02*
X124040000Y-74790000D01*
X124040000Y-68290000D02*
X135240000Y-68290000D01*
X124040000Y-74790000D02*
X135240000Y-74790000D01*
G04 #@! TO.C,Q1*
X128646000Y-67926000D02*
X128646000Y-66666000D01*
X128646000Y-61106000D02*
X128646000Y-62366000D01*
X132406000Y-67926000D02*
X128646000Y-67926000D01*
X134656000Y-61106000D02*
X128646000Y-61106000D01*
G04 #@! TO.C,R1*
X139351936Y-86254000D02*
X140556064Y-86254000D01*
X139351936Y-84434000D02*
X140556064Y-84434000D01*
G04 #@! TO.C,R4*
X145090000Y-65648748D02*
X145090000Y-66171252D01*
X143670000Y-65648748D02*
X143670000Y-66171252D01*
G04 #@! TO.C,R5*
X130662000Y-83152064D02*
X130662000Y-81947936D01*
X132482000Y-83152064D02*
X132482000Y-81947936D01*
G04 #@! TO.C,R6*
X132482000Y-78072064D02*
X132482000Y-76867936D01*
X130662000Y-78072064D02*
X130662000Y-76867936D01*
G04 #@! TO.C,C5*
D11*
X141126666Y-69827142D02*
X141174285Y-69874761D01*
X141317142Y-69922380D01*
X141412380Y-69922380D01*
X141555238Y-69874761D01*
X141650476Y-69779523D01*
X141698095Y-69684285D01*
X141745714Y-69493809D01*
X141745714Y-69350952D01*
X141698095Y-69160476D01*
X141650476Y-69065238D01*
X141555238Y-68970000D01*
X141412380Y-68922380D01*
X141317142Y-68922380D01*
X141174285Y-68970000D01*
X141126666Y-69017619D01*
X140221904Y-68922380D02*
X140698095Y-68922380D01*
X140745714Y-69398571D01*
X140698095Y-69350952D01*
X140602857Y-69303333D01*
X140364761Y-69303333D01*
X140269523Y-69350952D01*
X140221904Y-69398571D01*
X140174285Y-69493809D01*
X140174285Y-69731904D01*
X140221904Y-69827142D01*
X140269523Y-69874761D01*
X140364761Y-69922380D01*
X140602857Y-69922380D01*
X140698095Y-69874761D01*
X140745714Y-69827142D01*
G04 #@! TO.C,C3*
X139616666Y-63407142D02*
X139664285Y-63454761D01*
X139807142Y-63502380D01*
X139902380Y-63502380D01*
X140045238Y-63454761D01*
X140140476Y-63359523D01*
X140188095Y-63264285D01*
X140235714Y-63073809D01*
X140235714Y-62930952D01*
X140188095Y-62740476D01*
X140140476Y-62645238D01*
X140045238Y-62550000D01*
X139902380Y-62502380D01*
X139807142Y-62502380D01*
X139664285Y-62550000D01*
X139616666Y-62597619D01*
X139283333Y-62502380D02*
X138664285Y-62502380D01*
X138997619Y-62883333D01*
X138854761Y-62883333D01*
X138759523Y-62930952D01*
X138711904Y-62978571D01*
X138664285Y-63073809D01*
X138664285Y-63311904D01*
X138711904Y-63407142D01*
X138759523Y-63454761D01*
X138854761Y-63502380D01*
X139140476Y-63502380D01*
X139235714Y-63454761D01*
X139283333Y-63407142D01*
G04 #@! TO.C,C4*
X144126666Y-83227142D02*
X144174285Y-83274761D01*
X144317142Y-83322380D01*
X144412380Y-83322380D01*
X144555238Y-83274761D01*
X144650476Y-83179523D01*
X144698095Y-83084285D01*
X144745714Y-82893809D01*
X144745714Y-82750952D01*
X144698095Y-82560476D01*
X144650476Y-82465238D01*
X144555238Y-82370000D01*
X144412380Y-82322380D01*
X144317142Y-82322380D01*
X144174285Y-82370000D01*
X144126666Y-82417619D01*
X143269523Y-82655714D02*
X143269523Y-83322380D01*
X143507619Y-82274761D02*
X143745714Y-82989047D01*
X143126666Y-82989047D01*
G04 #@! TO.C,D5*
X128918095Y-76462380D02*
X128918095Y-75462380D01*
X128680000Y-75462380D01*
X128537142Y-75510000D01*
X128441904Y-75605238D01*
X128394285Y-75700476D01*
X128346666Y-75890952D01*
X128346666Y-76033809D01*
X128394285Y-76224285D01*
X128441904Y-76319523D01*
X128537142Y-76414761D01*
X128680000Y-76462380D01*
X128918095Y-76462380D01*
X127441904Y-75462380D02*
X127918095Y-75462380D01*
X127965714Y-75938571D01*
X127918095Y-75890952D01*
X127822857Y-75843333D01*
X127584761Y-75843333D01*
X127489523Y-75890952D01*
X127441904Y-75938571D01*
X127394285Y-76033809D01*
X127394285Y-76271904D01*
X127441904Y-76367142D01*
X127489523Y-76414761D01*
X127584761Y-76462380D01*
X127822857Y-76462380D01*
X127918095Y-76414761D01*
X127965714Y-76367142D01*
G04 #@! TO.C,Q1*
X125045238Y-64967619D02*
X125140476Y-64920000D01*
X125235714Y-64824761D01*
X125378571Y-64681904D01*
X125473809Y-64634285D01*
X125569047Y-64634285D01*
X125521428Y-64872380D02*
X125616666Y-64824761D01*
X125711904Y-64729523D01*
X125759523Y-64539047D01*
X125759523Y-64205714D01*
X125711904Y-64015238D01*
X125616666Y-63920000D01*
X125521428Y-63872380D01*
X125330952Y-63872380D01*
X125235714Y-63920000D01*
X125140476Y-64015238D01*
X125092857Y-64205714D01*
X125092857Y-64539047D01*
X125140476Y-64729523D01*
X125235714Y-64824761D01*
X125330952Y-64872380D01*
X125521428Y-64872380D01*
X124140476Y-64872380D02*
X124711904Y-64872380D01*
X124426190Y-64872380D02*
X124426190Y-63872380D01*
X124521428Y-64015238D01*
X124616666Y-64110476D01*
X124711904Y-64158095D01*
G04 #@! TO.C,R1*
X136656666Y-85862380D02*
X136990000Y-85386190D01*
X137228095Y-85862380D02*
X137228095Y-84862380D01*
X136847142Y-84862380D01*
X136751904Y-84910000D01*
X136704285Y-84957619D01*
X136656666Y-85052857D01*
X136656666Y-85195714D01*
X136704285Y-85290952D01*
X136751904Y-85338571D01*
X136847142Y-85386190D01*
X137228095Y-85386190D01*
X135704285Y-85862380D02*
X136275714Y-85862380D01*
X135990000Y-85862380D02*
X135990000Y-84862380D01*
X136085238Y-85005238D01*
X136180476Y-85100476D01*
X136275714Y-85148095D01*
G04 #@! TO.C,R4*
X146760666Y-66038380D02*
X147094000Y-65562190D01*
X147332095Y-66038380D02*
X147332095Y-65038380D01*
X146951142Y-65038380D01*
X146855904Y-65086000D01*
X146808285Y-65133619D01*
X146760666Y-65228857D01*
X146760666Y-65371714D01*
X146808285Y-65466952D01*
X146855904Y-65514571D01*
X146951142Y-65562190D01*
X147332095Y-65562190D01*
X145903523Y-65371714D02*
X145903523Y-66038380D01*
X146141619Y-64990761D02*
X146379714Y-65705047D01*
X145760666Y-65705047D01*
G04 #@! TO.C,R5*
X134166666Y-82952380D02*
X134500000Y-82476190D01*
X134738095Y-82952380D02*
X134738095Y-81952380D01*
X134357142Y-81952380D01*
X134261904Y-82000000D01*
X134214285Y-82047619D01*
X134166666Y-82142857D01*
X134166666Y-82285714D01*
X134214285Y-82380952D01*
X134261904Y-82428571D01*
X134357142Y-82476190D01*
X134738095Y-82476190D01*
X133261904Y-81952380D02*
X133738095Y-81952380D01*
X133785714Y-82428571D01*
X133738095Y-82380952D01*
X133642857Y-82333333D01*
X133404761Y-82333333D01*
X133309523Y-82380952D01*
X133261904Y-82428571D01*
X133214285Y-82523809D01*
X133214285Y-82761904D01*
X133261904Y-82857142D01*
X133309523Y-82904761D01*
X133404761Y-82952380D01*
X133642857Y-82952380D01*
X133738095Y-82904761D01*
X133785714Y-82857142D01*
G04 #@! TO.C,R6*
X134166666Y-77922380D02*
X134500000Y-77446190D01*
X134738095Y-77922380D02*
X134738095Y-76922380D01*
X134357142Y-76922380D01*
X134261904Y-76970000D01*
X134214285Y-77017619D01*
X134166666Y-77112857D01*
X134166666Y-77255714D01*
X134214285Y-77350952D01*
X134261904Y-77398571D01*
X134357142Y-77446190D01*
X134738095Y-77446190D01*
X133309523Y-76922380D02*
X133500000Y-76922380D01*
X133595238Y-76970000D01*
X133642857Y-77017619D01*
X133738095Y-77160476D01*
X133785714Y-77350952D01*
X133785714Y-77731904D01*
X133738095Y-77827142D01*
X133690476Y-77874761D01*
X133595238Y-77922380D01*
X133404761Y-77922380D01*
X133309523Y-77874761D01*
X133261904Y-77827142D01*
X133214285Y-77731904D01*
X133214285Y-77493809D01*
X133261904Y-77398571D01*
X133309523Y-77350952D01*
X133404761Y-77303333D01*
X133595238Y-77303333D01*
X133690476Y-77350952D01*
X133738095Y-77398571D01*
X133785714Y-77493809D01*
G04 #@! TD*
%LPC*%
D12*
G04 #@! TO.C,C5*
G36*
X141135289Y-66511413D02*
X141163778Y-66515639D01*
X141191715Y-66522637D01*
X141218832Y-66532340D01*
X141244867Y-66544653D01*
X141269570Y-66559460D01*
X141292703Y-66576616D01*
X141314043Y-66595957D01*
X141333384Y-66617297D01*
X141350540Y-66640430D01*
X141365347Y-66665133D01*
X141377660Y-66691168D01*
X141387363Y-66718285D01*
X141394361Y-66746222D01*
X141398587Y-66774711D01*
X141400000Y-66803477D01*
X141400000Y-67816523D01*
X141398587Y-67845289D01*
X141394361Y-67873778D01*
X141387363Y-67901715D01*
X141377660Y-67928832D01*
X141365347Y-67954867D01*
X141350540Y-67979570D01*
X141333384Y-68002703D01*
X141314043Y-68024043D01*
X141292703Y-68043384D01*
X141269570Y-68060540D01*
X141244867Y-68075347D01*
X141218832Y-68087660D01*
X141191715Y-68097363D01*
X141163778Y-68104361D01*
X141135289Y-68108587D01*
X141106523Y-68110000D01*
X140343477Y-68110000D01*
X140314711Y-68108587D01*
X140286222Y-68104361D01*
X140258285Y-68097363D01*
X140231168Y-68087660D01*
X140205133Y-68075347D01*
X140180430Y-68060540D01*
X140157297Y-68043384D01*
X140135957Y-68024043D01*
X140116616Y-68002703D01*
X140099460Y-67979570D01*
X140084653Y-67954867D01*
X140072340Y-67928832D01*
X140062637Y-67901715D01*
X140055639Y-67873778D01*
X140051413Y-67845289D01*
X140050000Y-67816523D01*
X140050000Y-66803477D01*
X140051413Y-66774711D01*
X140055639Y-66746222D01*
X140062637Y-66718285D01*
X140072340Y-66691168D01*
X140084653Y-66665133D01*
X140099460Y-66640430D01*
X140116616Y-66617297D01*
X140135957Y-66595957D01*
X140157297Y-66576616D01*
X140180430Y-66559460D01*
X140205133Y-66544653D01*
X140231168Y-66532340D01*
X140258285Y-66522637D01*
X140286222Y-66515639D01*
X140314711Y-66511413D01*
X140343477Y-66510000D01*
X141106523Y-66510000D01*
X141135289Y-66511413D01*
X141135289Y-66511413D01*
G37*
D13*
X140725000Y-67310000D03*
D12*
G36*
X139085289Y-66511413D02*
X139113778Y-66515639D01*
X139141715Y-66522637D01*
X139168832Y-66532340D01*
X139194867Y-66544653D01*
X139219570Y-66559460D01*
X139242703Y-66576616D01*
X139264043Y-66595957D01*
X139283384Y-66617297D01*
X139300540Y-66640430D01*
X139315347Y-66665133D01*
X139327660Y-66691168D01*
X139337363Y-66718285D01*
X139344361Y-66746222D01*
X139348587Y-66774711D01*
X139350000Y-66803477D01*
X139350000Y-67816523D01*
X139348587Y-67845289D01*
X139344361Y-67873778D01*
X139337363Y-67901715D01*
X139327660Y-67928832D01*
X139315347Y-67954867D01*
X139300540Y-67979570D01*
X139283384Y-68002703D01*
X139264043Y-68024043D01*
X139242703Y-68043384D01*
X139219570Y-68060540D01*
X139194867Y-68075347D01*
X139168832Y-68087660D01*
X139141715Y-68097363D01*
X139113778Y-68104361D01*
X139085289Y-68108587D01*
X139056523Y-68110000D01*
X138293477Y-68110000D01*
X138264711Y-68108587D01*
X138236222Y-68104361D01*
X138208285Y-68097363D01*
X138181168Y-68087660D01*
X138155133Y-68075347D01*
X138130430Y-68060540D01*
X138107297Y-68043384D01*
X138085957Y-68024043D01*
X138066616Y-68002703D01*
X138049460Y-67979570D01*
X138034653Y-67954867D01*
X138022340Y-67928832D01*
X138012637Y-67901715D01*
X138005639Y-67873778D01*
X138001413Y-67845289D01*
X138000000Y-67816523D01*
X138000000Y-66803477D01*
X138001413Y-66774711D01*
X138005639Y-66746222D01*
X138012637Y-66718285D01*
X138022340Y-66691168D01*
X138034653Y-66665133D01*
X138049460Y-66640430D01*
X138066616Y-66617297D01*
X138085957Y-66595957D01*
X138107297Y-66576616D01*
X138130430Y-66559460D01*
X138155133Y-66544653D01*
X138181168Y-66532340D01*
X138208285Y-66522637D01*
X138236222Y-66515639D01*
X138264711Y-66511413D01*
X138293477Y-66510000D01*
X139056523Y-66510000D01*
X139085289Y-66511413D01*
X139085289Y-66511413D01*
G37*
D13*
X138675000Y-67310000D03*
G04 #@! TD*
D12*
G04 #@! TO.C,C3*
G36*
X138513856Y-64050373D02*
X138541530Y-64054478D01*
X138568669Y-64061276D01*
X138595010Y-64070701D01*
X138620302Y-64082663D01*
X138644298Y-64097046D01*
X138666770Y-64113712D01*
X138687500Y-64132500D01*
X138706288Y-64153230D01*
X138722954Y-64175702D01*
X138737337Y-64199698D01*
X138749299Y-64224990D01*
X138758724Y-64251331D01*
X138765522Y-64278470D01*
X138769627Y-64306144D01*
X138771000Y-64334088D01*
X138771000Y-65713912D01*
X138769627Y-65741856D01*
X138765522Y-65769530D01*
X138758724Y-65796669D01*
X138749299Y-65823010D01*
X138737337Y-65848302D01*
X138722954Y-65872298D01*
X138706288Y-65894770D01*
X138687500Y-65915500D01*
X138666770Y-65934288D01*
X138644298Y-65950954D01*
X138620302Y-65965337D01*
X138595010Y-65977299D01*
X138568669Y-65986724D01*
X138541530Y-65993522D01*
X138513856Y-65997627D01*
X138485912Y-65999000D01*
X137431088Y-65999000D01*
X137403144Y-65997627D01*
X137375470Y-65993522D01*
X137348331Y-65986724D01*
X137321990Y-65977299D01*
X137296698Y-65965337D01*
X137272702Y-65950954D01*
X137250230Y-65934288D01*
X137229500Y-65915500D01*
X137210712Y-65894770D01*
X137194046Y-65872298D01*
X137179663Y-65848302D01*
X137167701Y-65823010D01*
X137158276Y-65796669D01*
X137151478Y-65769530D01*
X137147373Y-65741856D01*
X137146000Y-65713912D01*
X137146000Y-64334088D01*
X137147373Y-64306144D01*
X137151478Y-64278470D01*
X137158276Y-64251331D01*
X137167701Y-64224990D01*
X137179663Y-64199698D01*
X137194046Y-64175702D01*
X137210712Y-64153230D01*
X137229500Y-64132500D01*
X137250230Y-64113712D01*
X137272702Y-64097046D01*
X137296698Y-64082663D01*
X137321990Y-64070701D01*
X137348331Y-64061276D01*
X137375470Y-64054478D01*
X137403144Y-64050373D01*
X137431088Y-64049000D01*
X138485912Y-64049000D01*
X138513856Y-64050373D01*
X138513856Y-64050373D01*
G37*
D14*
X137958500Y-65024000D03*
D12*
G36*
X141488856Y-64050373D02*
X141516530Y-64054478D01*
X141543669Y-64061276D01*
X141570010Y-64070701D01*
X141595302Y-64082663D01*
X141619298Y-64097046D01*
X141641770Y-64113712D01*
X141662500Y-64132500D01*
X141681288Y-64153230D01*
X141697954Y-64175702D01*
X141712337Y-64199698D01*
X141724299Y-64224990D01*
X141733724Y-64251331D01*
X141740522Y-64278470D01*
X141744627Y-64306144D01*
X141746000Y-64334088D01*
X141746000Y-65713912D01*
X141744627Y-65741856D01*
X141740522Y-65769530D01*
X141733724Y-65796669D01*
X141724299Y-65823010D01*
X141712337Y-65848302D01*
X141697954Y-65872298D01*
X141681288Y-65894770D01*
X141662500Y-65915500D01*
X141641770Y-65934288D01*
X141619298Y-65950954D01*
X141595302Y-65965337D01*
X141570010Y-65977299D01*
X141543669Y-65986724D01*
X141516530Y-65993522D01*
X141488856Y-65997627D01*
X141460912Y-65999000D01*
X140406088Y-65999000D01*
X140378144Y-65997627D01*
X140350470Y-65993522D01*
X140323331Y-65986724D01*
X140296990Y-65977299D01*
X140271698Y-65965337D01*
X140247702Y-65950954D01*
X140225230Y-65934288D01*
X140204500Y-65915500D01*
X140185712Y-65894770D01*
X140169046Y-65872298D01*
X140154663Y-65848302D01*
X140142701Y-65823010D01*
X140133276Y-65796669D01*
X140126478Y-65769530D01*
X140122373Y-65741856D01*
X140121000Y-65713912D01*
X140121000Y-64334088D01*
X140122373Y-64306144D01*
X140126478Y-64278470D01*
X140133276Y-64251331D01*
X140142701Y-64224990D01*
X140154663Y-64199698D01*
X140169046Y-64175702D01*
X140185712Y-64153230D01*
X140204500Y-64132500D01*
X140225230Y-64113712D01*
X140247702Y-64097046D01*
X140271698Y-64082663D01*
X140296990Y-64070701D01*
X140323331Y-64061276D01*
X140350470Y-64054478D01*
X140378144Y-64050373D01*
X140406088Y-64049000D01*
X141460912Y-64049000D01*
X141488856Y-64050373D01*
X141488856Y-64050373D01*
G37*
D14*
X140933500Y-65024000D03*
G04 #@! TD*
D12*
G04 #@! TO.C,C4*
G36*
X141389289Y-82259413D02*
X141417778Y-82263639D01*
X141445715Y-82270637D01*
X141472832Y-82280340D01*
X141498867Y-82292653D01*
X141523570Y-82307460D01*
X141546703Y-82324616D01*
X141568043Y-82343957D01*
X141587384Y-82365297D01*
X141604540Y-82388430D01*
X141619347Y-82413133D01*
X141631660Y-82439168D01*
X141641363Y-82466285D01*
X141648361Y-82494222D01*
X141652587Y-82522711D01*
X141654000Y-82551477D01*
X141654000Y-83564523D01*
X141652587Y-83593289D01*
X141648361Y-83621778D01*
X141641363Y-83649715D01*
X141631660Y-83676832D01*
X141619347Y-83702867D01*
X141604540Y-83727570D01*
X141587384Y-83750703D01*
X141568043Y-83772043D01*
X141546703Y-83791384D01*
X141523570Y-83808540D01*
X141498867Y-83823347D01*
X141472832Y-83835660D01*
X141445715Y-83845363D01*
X141417778Y-83852361D01*
X141389289Y-83856587D01*
X141360523Y-83858000D01*
X140597477Y-83858000D01*
X140568711Y-83856587D01*
X140540222Y-83852361D01*
X140512285Y-83845363D01*
X140485168Y-83835660D01*
X140459133Y-83823347D01*
X140434430Y-83808540D01*
X140411297Y-83791384D01*
X140389957Y-83772043D01*
X140370616Y-83750703D01*
X140353460Y-83727570D01*
X140338653Y-83702867D01*
X140326340Y-83676832D01*
X140316637Y-83649715D01*
X140309639Y-83621778D01*
X140305413Y-83593289D01*
X140304000Y-83564523D01*
X140304000Y-82551477D01*
X140305413Y-82522711D01*
X140309639Y-82494222D01*
X140316637Y-82466285D01*
X140326340Y-82439168D01*
X140338653Y-82413133D01*
X140353460Y-82388430D01*
X140370616Y-82365297D01*
X140389957Y-82343957D01*
X140411297Y-82324616D01*
X140434430Y-82307460D01*
X140459133Y-82292653D01*
X140485168Y-82280340D01*
X140512285Y-82270637D01*
X140540222Y-82263639D01*
X140568711Y-82259413D01*
X140597477Y-82258000D01*
X141360523Y-82258000D01*
X141389289Y-82259413D01*
X141389289Y-82259413D01*
G37*
D13*
X140979000Y-83058000D03*
D12*
G36*
X139339289Y-82259413D02*
X139367778Y-82263639D01*
X139395715Y-82270637D01*
X139422832Y-82280340D01*
X139448867Y-82292653D01*
X139473570Y-82307460D01*
X139496703Y-82324616D01*
X139518043Y-82343957D01*
X139537384Y-82365297D01*
X139554540Y-82388430D01*
X139569347Y-82413133D01*
X139581660Y-82439168D01*
X139591363Y-82466285D01*
X139598361Y-82494222D01*
X139602587Y-82522711D01*
X139604000Y-82551477D01*
X139604000Y-83564523D01*
X139602587Y-83593289D01*
X139598361Y-83621778D01*
X139591363Y-83649715D01*
X139581660Y-83676832D01*
X139569347Y-83702867D01*
X139554540Y-83727570D01*
X139537384Y-83750703D01*
X139518043Y-83772043D01*
X139496703Y-83791384D01*
X139473570Y-83808540D01*
X139448867Y-83823347D01*
X139422832Y-83835660D01*
X139395715Y-83845363D01*
X139367778Y-83852361D01*
X139339289Y-83856587D01*
X139310523Y-83858000D01*
X138547477Y-83858000D01*
X138518711Y-83856587D01*
X138490222Y-83852361D01*
X138462285Y-83845363D01*
X138435168Y-83835660D01*
X138409133Y-83823347D01*
X138384430Y-83808540D01*
X138361297Y-83791384D01*
X138339957Y-83772043D01*
X138320616Y-83750703D01*
X138303460Y-83727570D01*
X138288653Y-83702867D01*
X138276340Y-83676832D01*
X138266637Y-83649715D01*
X138259639Y-83621778D01*
X138255413Y-83593289D01*
X138254000Y-83564523D01*
X138254000Y-82551477D01*
X138255413Y-82522711D01*
X138259639Y-82494222D01*
X138266637Y-82466285D01*
X138276340Y-82439168D01*
X138288653Y-82413133D01*
X138303460Y-82388430D01*
X138320616Y-82365297D01*
X138339957Y-82343957D01*
X138361297Y-82324616D01*
X138384430Y-82307460D01*
X138409133Y-82292653D01*
X138435168Y-82280340D01*
X138462285Y-82270637D01*
X138490222Y-82263639D01*
X138518711Y-82259413D01*
X138547477Y-82258000D01*
X139310523Y-82258000D01*
X139339289Y-82259413D01*
X139339289Y-82259413D01*
G37*
D13*
X138929000Y-83058000D03*
G04 #@! TD*
D15*
G04 #@! TO.C,D5*
X126440000Y-71540000D03*
X135240000Y-71540000D03*
G04 #@! TD*
D16*
G04 #@! TO.C,J1*
X157820000Y-71250000D03*
D17*
X157820000Y-73790000D03*
X157820000Y-76330000D03*
X157820000Y-78870000D03*
X157820000Y-81410000D03*
X157820000Y-83950000D03*
G04 #@! TD*
G04 #@! TO.C,J2*
X157820000Y-67610000D03*
D16*
X157820000Y-65070000D03*
G04 #@! TD*
G04 #@! TO.C,J3*
X125730000Y-84000000D03*
D17*
X128270000Y-84000000D03*
G04 #@! TD*
D18*
G04 #@! TO.C,Q1*
X127406000Y-64516000D03*
D19*
X133706000Y-64516000D03*
X133706000Y-66816000D03*
X133706000Y-62216000D03*
G04 #@! TD*
D12*
G04 #@! TO.C,R1*
G36*
X139021856Y-84370373D02*
X139049530Y-84374478D01*
X139076669Y-84381276D01*
X139103010Y-84390701D01*
X139128302Y-84402663D01*
X139152298Y-84417046D01*
X139174770Y-84433712D01*
X139195500Y-84452500D01*
X139214288Y-84473230D01*
X139230954Y-84495702D01*
X139245337Y-84519698D01*
X139257299Y-84544990D01*
X139266724Y-84571331D01*
X139273522Y-84598470D01*
X139277627Y-84626144D01*
X139279000Y-84654088D01*
X139279000Y-86033912D01*
X139277627Y-86061856D01*
X139273522Y-86089530D01*
X139266724Y-86116669D01*
X139257299Y-86143010D01*
X139245337Y-86168302D01*
X139230954Y-86192298D01*
X139214288Y-86214770D01*
X139195500Y-86235500D01*
X139174770Y-86254288D01*
X139152298Y-86270954D01*
X139128302Y-86285337D01*
X139103010Y-86297299D01*
X139076669Y-86306724D01*
X139049530Y-86313522D01*
X139021856Y-86317627D01*
X138993912Y-86319000D01*
X137939088Y-86319000D01*
X137911144Y-86317627D01*
X137883470Y-86313522D01*
X137856331Y-86306724D01*
X137829990Y-86297299D01*
X137804698Y-86285337D01*
X137780702Y-86270954D01*
X137758230Y-86254288D01*
X137737500Y-86235500D01*
X137718712Y-86214770D01*
X137702046Y-86192298D01*
X137687663Y-86168302D01*
X137675701Y-86143010D01*
X137666276Y-86116669D01*
X137659478Y-86089530D01*
X137655373Y-86061856D01*
X137654000Y-86033912D01*
X137654000Y-84654088D01*
X137655373Y-84626144D01*
X137659478Y-84598470D01*
X137666276Y-84571331D01*
X137675701Y-84544990D01*
X137687663Y-84519698D01*
X137702046Y-84495702D01*
X137718712Y-84473230D01*
X137737500Y-84452500D01*
X137758230Y-84433712D01*
X137780702Y-84417046D01*
X137804698Y-84402663D01*
X137829990Y-84390701D01*
X137856331Y-84381276D01*
X137883470Y-84374478D01*
X137911144Y-84370373D01*
X137939088Y-84369000D01*
X138993912Y-84369000D01*
X139021856Y-84370373D01*
X139021856Y-84370373D01*
G37*
D14*
X138466500Y-85344000D03*
D12*
G36*
X141996856Y-84370373D02*
X142024530Y-84374478D01*
X142051669Y-84381276D01*
X142078010Y-84390701D01*
X142103302Y-84402663D01*
X142127298Y-84417046D01*
X142149770Y-84433712D01*
X142170500Y-84452500D01*
X142189288Y-84473230D01*
X142205954Y-84495702D01*
X142220337Y-84519698D01*
X142232299Y-84544990D01*
X142241724Y-84571331D01*
X142248522Y-84598470D01*
X142252627Y-84626144D01*
X142254000Y-84654088D01*
X142254000Y-86033912D01*
X142252627Y-86061856D01*
X142248522Y-86089530D01*
X142241724Y-86116669D01*
X142232299Y-86143010D01*
X142220337Y-86168302D01*
X142205954Y-86192298D01*
X142189288Y-86214770D01*
X142170500Y-86235500D01*
X142149770Y-86254288D01*
X142127298Y-86270954D01*
X142103302Y-86285337D01*
X142078010Y-86297299D01*
X142051669Y-86306724D01*
X142024530Y-86313522D01*
X141996856Y-86317627D01*
X141968912Y-86319000D01*
X140914088Y-86319000D01*
X140886144Y-86317627D01*
X140858470Y-86313522D01*
X140831331Y-86306724D01*
X140804990Y-86297299D01*
X140779698Y-86285337D01*
X140755702Y-86270954D01*
X140733230Y-86254288D01*
X140712500Y-86235500D01*
X140693712Y-86214770D01*
X140677046Y-86192298D01*
X140662663Y-86168302D01*
X140650701Y-86143010D01*
X140641276Y-86116669D01*
X140634478Y-86089530D01*
X140630373Y-86061856D01*
X140629000Y-86033912D01*
X140629000Y-84654088D01*
X140630373Y-84626144D01*
X140634478Y-84598470D01*
X140641276Y-84571331D01*
X140650701Y-84544990D01*
X140662663Y-84519698D01*
X140677046Y-84495702D01*
X140693712Y-84473230D01*
X140712500Y-84452500D01*
X140733230Y-84433712D01*
X140755702Y-84417046D01*
X140779698Y-84402663D01*
X140804990Y-84390701D01*
X140831331Y-84381276D01*
X140858470Y-84374478D01*
X140886144Y-84370373D01*
X140914088Y-84369000D01*
X141968912Y-84369000D01*
X141996856Y-84370373D01*
X141996856Y-84370373D01*
G37*
D14*
X141441500Y-85344000D03*
G04 #@! TD*
D12*
G04 #@! TO.C,R4*
G36*
X144915289Y-66261413D02*
X144943778Y-66265639D01*
X144971715Y-66272637D01*
X144998832Y-66282340D01*
X145024867Y-66294653D01*
X145049570Y-66309460D01*
X145072703Y-66326616D01*
X145094043Y-66345957D01*
X145113384Y-66367297D01*
X145130540Y-66390430D01*
X145145347Y-66415133D01*
X145157660Y-66441168D01*
X145167363Y-66468285D01*
X145174361Y-66496222D01*
X145178587Y-66524711D01*
X145180000Y-66553477D01*
X145180000Y-67316523D01*
X145178587Y-67345289D01*
X145174361Y-67373778D01*
X145167363Y-67401715D01*
X145157660Y-67428832D01*
X145145347Y-67454867D01*
X145130540Y-67479570D01*
X145113384Y-67502703D01*
X145094043Y-67524043D01*
X145072703Y-67543384D01*
X145049570Y-67560540D01*
X145024867Y-67575347D01*
X144998832Y-67587660D01*
X144971715Y-67597363D01*
X144943778Y-67604361D01*
X144915289Y-67608587D01*
X144886523Y-67610000D01*
X143873477Y-67610000D01*
X143844711Y-67608587D01*
X143816222Y-67604361D01*
X143788285Y-67597363D01*
X143761168Y-67587660D01*
X143735133Y-67575347D01*
X143710430Y-67560540D01*
X143687297Y-67543384D01*
X143665957Y-67524043D01*
X143646616Y-67502703D01*
X143629460Y-67479570D01*
X143614653Y-67454867D01*
X143602340Y-67428832D01*
X143592637Y-67401715D01*
X143585639Y-67373778D01*
X143581413Y-67345289D01*
X143580000Y-67316523D01*
X143580000Y-66553477D01*
X143581413Y-66524711D01*
X143585639Y-66496222D01*
X143592637Y-66468285D01*
X143602340Y-66441168D01*
X143614653Y-66415133D01*
X143629460Y-66390430D01*
X143646616Y-66367297D01*
X143665957Y-66345957D01*
X143687297Y-66326616D01*
X143710430Y-66309460D01*
X143735133Y-66294653D01*
X143761168Y-66282340D01*
X143788285Y-66272637D01*
X143816222Y-66265639D01*
X143844711Y-66261413D01*
X143873477Y-66260000D01*
X144886523Y-66260000D01*
X144915289Y-66261413D01*
X144915289Y-66261413D01*
G37*
D13*
X144380000Y-66935000D03*
D12*
G36*
X144915289Y-64211413D02*
X144943778Y-64215639D01*
X144971715Y-64222637D01*
X144998832Y-64232340D01*
X145024867Y-64244653D01*
X145049570Y-64259460D01*
X145072703Y-64276616D01*
X145094043Y-64295957D01*
X145113384Y-64317297D01*
X145130540Y-64340430D01*
X145145347Y-64365133D01*
X145157660Y-64391168D01*
X145167363Y-64418285D01*
X145174361Y-64446222D01*
X145178587Y-64474711D01*
X145180000Y-64503477D01*
X145180000Y-65266523D01*
X145178587Y-65295289D01*
X145174361Y-65323778D01*
X145167363Y-65351715D01*
X145157660Y-65378832D01*
X145145347Y-65404867D01*
X145130540Y-65429570D01*
X145113384Y-65452703D01*
X145094043Y-65474043D01*
X145072703Y-65493384D01*
X145049570Y-65510540D01*
X145024867Y-65525347D01*
X144998832Y-65537660D01*
X144971715Y-65547363D01*
X144943778Y-65554361D01*
X144915289Y-65558587D01*
X144886523Y-65560000D01*
X143873477Y-65560000D01*
X143844711Y-65558587D01*
X143816222Y-65554361D01*
X143788285Y-65547363D01*
X143761168Y-65537660D01*
X143735133Y-65525347D01*
X143710430Y-65510540D01*
X143687297Y-65493384D01*
X143665957Y-65474043D01*
X143646616Y-65452703D01*
X143629460Y-65429570D01*
X143614653Y-65404867D01*
X143602340Y-65378832D01*
X143592637Y-65351715D01*
X143585639Y-65323778D01*
X143581413Y-65295289D01*
X143580000Y-65266523D01*
X143580000Y-64503477D01*
X143581413Y-64474711D01*
X143585639Y-64446222D01*
X143592637Y-64418285D01*
X143602340Y-64391168D01*
X143614653Y-64365133D01*
X143629460Y-64340430D01*
X143646616Y-64317297D01*
X143665957Y-64295957D01*
X143687297Y-64276616D01*
X143710430Y-64259460D01*
X143735133Y-64244653D01*
X143761168Y-64232340D01*
X143788285Y-64222637D01*
X143816222Y-64215639D01*
X143844711Y-64211413D01*
X143873477Y-64210000D01*
X144886523Y-64210000D01*
X144915289Y-64211413D01*
X144915289Y-64211413D01*
G37*
D13*
X144380000Y-64885000D03*
G04 #@! TD*
D12*
G04 #@! TO.C,R5*
G36*
X132289856Y-80251373D02*
X132317530Y-80255478D01*
X132344669Y-80262276D01*
X132371010Y-80271701D01*
X132396302Y-80283663D01*
X132420298Y-80298046D01*
X132442770Y-80314712D01*
X132463500Y-80333500D01*
X132482288Y-80354230D01*
X132498954Y-80376702D01*
X132513337Y-80400698D01*
X132525299Y-80425990D01*
X132534724Y-80452331D01*
X132541522Y-80479470D01*
X132545627Y-80507144D01*
X132547000Y-80535088D01*
X132547000Y-81589912D01*
X132545627Y-81617856D01*
X132541522Y-81645530D01*
X132534724Y-81672669D01*
X132525299Y-81699010D01*
X132513337Y-81724302D01*
X132498954Y-81748298D01*
X132482288Y-81770770D01*
X132463500Y-81791500D01*
X132442770Y-81810288D01*
X132420298Y-81826954D01*
X132396302Y-81841337D01*
X132371010Y-81853299D01*
X132344669Y-81862724D01*
X132317530Y-81869522D01*
X132289856Y-81873627D01*
X132261912Y-81875000D01*
X130882088Y-81875000D01*
X130854144Y-81873627D01*
X130826470Y-81869522D01*
X130799331Y-81862724D01*
X130772990Y-81853299D01*
X130747698Y-81841337D01*
X130723702Y-81826954D01*
X130701230Y-81810288D01*
X130680500Y-81791500D01*
X130661712Y-81770770D01*
X130645046Y-81748298D01*
X130630663Y-81724302D01*
X130618701Y-81699010D01*
X130609276Y-81672669D01*
X130602478Y-81645530D01*
X130598373Y-81617856D01*
X130597000Y-81589912D01*
X130597000Y-80535088D01*
X130598373Y-80507144D01*
X130602478Y-80479470D01*
X130609276Y-80452331D01*
X130618701Y-80425990D01*
X130630663Y-80400698D01*
X130645046Y-80376702D01*
X130661712Y-80354230D01*
X130680500Y-80333500D01*
X130701230Y-80314712D01*
X130723702Y-80298046D01*
X130747698Y-80283663D01*
X130772990Y-80271701D01*
X130799331Y-80262276D01*
X130826470Y-80255478D01*
X130854144Y-80251373D01*
X130882088Y-80250000D01*
X132261912Y-80250000D01*
X132289856Y-80251373D01*
X132289856Y-80251373D01*
G37*
D14*
X131572000Y-81062500D03*
D12*
G36*
X132289856Y-83226373D02*
X132317530Y-83230478D01*
X132344669Y-83237276D01*
X132371010Y-83246701D01*
X132396302Y-83258663D01*
X132420298Y-83273046D01*
X132442770Y-83289712D01*
X132463500Y-83308500D01*
X132482288Y-83329230D01*
X132498954Y-83351702D01*
X132513337Y-83375698D01*
X132525299Y-83400990D01*
X132534724Y-83427331D01*
X132541522Y-83454470D01*
X132545627Y-83482144D01*
X132547000Y-83510088D01*
X132547000Y-84564912D01*
X132545627Y-84592856D01*
X132541522Y-84620530D01*
X132534724Y-84647669D01*
X132525299Y-84674010D01*
X132513337Y-84699302D01*
X132498954Y-84723298D01*
X132482288Y-84745770D01*
X132463500Y-84766500D01*
X132442770Y-84785288D01*
X132420298Y-84801954D01*
X132396302Y-84816337D01*
X132371010Y-84828299D01*
X132344669Y-84837724D01*
X132317530Y-84844522D01*
X132289856Y-84848627D01*
X132261912Y-84850000D01*
X130882088Y-84850000D01*
X130854144Y-84848627D01*
X130826470Y-84844522D01*
X130799331Y-84837724D01*
X130772990Y-84828299D01*
X130747698Y-84816337D01*
X130723702Y-84801954D01*
X130701230Y-84785288D01*
X130680500Y-84766500D01*
X130661712Y-84745770D01*
X130645046Y-84723298D01*
X130630663Y-84699302D01*
X130618701Y-84674010D01*
X130609276Y-84647669D01*
X130602478Y-84620530D01*
X130598373Y-84592856D01*
X130597000Y-84564912D01*
X130597000Y-83510088D01*
X130598373Y-83482144D01*
X130602478Y-83454470D01*
X130609276Y-83427331D01*
X130618701Y-83400990D01*
X130630663Y-83375698D01*
X130645046Y-83351702D01*
X130661712Y-83329230D01*
X130680500Y-83308500D01*
X130701230Y-83289712D01*
X130723702Y-83273046D01*
X130747698Y-83258663D01*
X130772990Y-83246701D01*
X130799331Y-83237276D01*
X130826470Y-83230478D01*
X130854144Y-83226373D01*
X130882088Y-83225000D01*
X132261912Y-83225000D01*
X132289856Y-83226373D01*
X132289856Y-83226373D01*
G37*
D14*
X131572000Y-84037500D03*
G04 #@! TD*
D12*
G04 #@! TO.C,R6*
G36*
X132289856Y-78146373D02*
X132317530Y-78150478D01*
X132344669Y-78157276D01*
X132371010Y-78166701D01*
X132396302Y-78178663D01*
X132420298Y-78193046D01*
X132442770Y-78209712D01*
X132463500Y-78228500D01*
X132482288Y-78249230D01*
X132498954Y-78271702D01*
X132513337Y-78295698D01*
X132525299Y-78320990D01*
X132534724Y-78347331D01*
X132541522Y-78374470D01*
X132545627Y-78402144D01*
X132547000Y-78430088D01*
X132547000Y-79484912D01*
X132545627Y-79512856D01*
X132541522Y-79540530D01*
X132534724Y-79567669D01*
X132525299Y-79594010D01*
X132513337Y-79619302D01*
X132498954Y-79643298D01*
X132482288Y-79665770D01*
X132463500Y-79686500D01*
X132442770Y-79705288D01*
X132420298Y-79721954D01*
X132396302Y-79736337D01*
X132371010Y-79748299D01*
X132344669Y-79757724D01*
X132317530Y-79764522D01*
X132289856Y-79768627D01*
X132261912Y-79770000D01*
X130882088Y-79770000D01*
X130854144Y-79768627D01*
X130826470Y-79764522D01*
X130799331Y-79757724D01*
X130772990Y-79748299D01*
X130747698Y-79736337D01*
X130723702Y-79721954D01*
X130701230Y-79705288D01*
X130680500Y-79686500D01*
X130661712Y-79665770D01*
X130645046Y-79643298D01*
X130630663Y-79619302D01*
X130618701Y-79594010D01*
X130609276Y-79567669D01*
X130602478Y-79540530D01*
X130598373Y-79512856D01*
X130597000Y-79484912D01*
X130597000Y-78430088D01*
X130598373Y-78402144D01*
X130602478Y-78374470D01*
X130609276Y-78347331D01*
X130618701Y-78320990D01*
X130630663Y-78295698D01*
X130645046Y-78271702D01*
X130661712Y-78249230D01*
X130680500Y-78228500D01*
X130701230Y-78209712D01*
X130723702Y-78193046D01*
X130747698Y-78178663D01*
X130772990Y-78166701D01*
X130799331Y-78157276D01*
X130826470Y-78150478D01*
X130854144Y-78146373D01*
X130882088Y-78145000D01*
X132261912Y-78145000D01*
X132289856Y-78146373D01*
X132289856Y-78146373D01*
G37*
D14*
X131572000Y-78957500D03*
D12*
G36*
X132289856Y-75171373D02*
X132317530Y-75175478D01*
X132344669Y-75182276D01*
X132371010Y-75191701D01*
X132396302Y-75203663D01*
X132420298Y-75218046D01*
X132442770Y-75234712D01*
X132463500Y-75253500D01*
X132482288Y-75274230D01*
X132498954Y-75296702D01*
X132513337Y-75320698D01*
X132525299Y-75345990D01*
X132534724Y-75372331D01*
X132541522Y-75399470D01*
X132545627Y-75427144D01*
X132547000Y-75455088D01*
X132547000Y-76509912D01*
X132545627Y-76537856D01*
X132541522Y-76565530D01*
X132534724Y-76592669D01*
X132525299Y-76619010D01*
X132513337Y-76644302D01*
X132498954Y-76668298D01*
X132482288Y-76690770D01*
X132463500Y-76711500D01*
X132442770Y-76730288D01*
X132420298Y-76746954D01*
X132396302Y-76761337D01*
X132371010Y-76773299D01*
X132344669Y-76782724D01*
X132317530Y-76789522D01*
X132289856Y-76793627D01*
X132261912Y-76795000D01*
X130882088Y-76795000D01*
X130854144Y-76793627D01*
X130826470Y-76789522D01*
X130799331Y-76782724D01*
X130772990Y-76773299D01*
X130747698Y-76761337D01*
X130723702Y-76746954D01*
X130701230Y-76730288D01*
X130680500Y-76711500D01*
X130661712Y-76690770D01*
X130645046Y-76668298D01*
X130630663Y-76644302D01*
X130618701Y-76619010D01*
X130609276Y-76592669D01*
X130602478Y-76565530D01*
X130598373Y-76537856D01*
X130597000Y-76509912D01*
X130597000Y-75455088D01*
X130598373Y-75427144D01*
X130602478Y-75399470D01*
X130609276Y-75372331D01*
X130618701Y-75345990D01*
X130630663Y-75320698D01*
X130645046Y-75296702D01*
X130661712Y-75274230D01*
X130680500Y-75253500D01*
X130701230Y-75234712D01*
X130723702Y-75218046D01*
X130747698Y-75203663D01*
X130772990Y-75191701D01*
X130799331Y-75182276D01*
X130826470Y-75175478D01*
X130854144Y-75171373D01*
X130882088Y-75170000D01*
X132261912Y-75170000D01*
X132289856Y-75171373D01*
X132289856Y-75171373D01*
G37*
D14*
X131572000Y-75982500D03*
G04 #@! TD*
M02*
