G04 #@! TF.GenerationSoftware,KiCad,Pcbnew,(5.0.2)-1*
G04 #@! TF.CreationDate,2019-10-30T16:47:08+01:00*
G04 #@! TF.ProjectId,pcb_thesis,7063625f-7468-4657-9369-732e6b696361,rev?*
G04 #@! TF.SameCoordinates,Original*
G04 #@! TF.FileFunction,Soldermask,Top*
G04 #@! TF.FilePolarity,Negative*
%FSLAX46Y46*%
G04 Gerber Fmt 4.6, Leading zero omitted, Abs format (unit mm)*
G04 Created by KiCad (PCBNEW (5.0.2)-1) date 30.10.2019 16:47:08*
%MOMM*%
%LPD*%
G01*
G04 APERTURE LIST*
%ADD10C,0.100000*%
G04 APERTURE END LIST*
D10*
G36*
X150358000Y-85482000D02*
X148158000Y-85482000D01*
X148158000Y-83682000D01*
X150358000Y-83682000D01*
X150358000Y-85482000D01*
X150358000Y-85482000D01*
G37*
G36*
X144958000Y-85482000D02*
X142758000Y-85482000D01*
X142758000Y-83682000D01*
X144958000Y-83682000D01*
X144958000Y-85482000D01*
X144958000Y-85482000D01*
G37*
G36*
X128386448Y-83056873D02*
X128456232Y-83063746D01*
X128545770Y-83090907D01*
X128635309Y-83118068D01*
X128800347Y-83206283D01*
X128945001Y-83324999D01*
X129063717Y-83469653D01*
X129151932Y-83634691D01*
X129151932Y-83634692D01*
X129206254Y-83813768D01*
X129224596Y-84000000D01*
X129211179Y-84136232D01*
X129206254Y-84186231D01*
X129151932Y-84365309D01*
X129063717Y-84530347D01*
X128945001Y-84675001D01*
X128800347Y-84793717D01*
X128635309Y-84881932D01*
X128575746Y-84900000D01*
X128456232Y-84936254D01*
X128386448Y-84943127D01*
X128316666Y-84950000D01*
X128223334Y-84950000D01*
X128153552Y-84943127D01*
X128083768Y-84936254D01*
X127964254Y-84900000D01*
X127904691Y-84881932D01*
X127739653Y-84793717D01*
X127594999Y-84675001D01*
X127476283Y-84530347D01*
X127388068Y-84365309D01*
X127333746Y-84186231D01*
X127328822Y-84136232D01*
X127315404Y-84000000D01*
X127333746Y-83813768D01*
X127388068Y-83634692D01*
X127388068Y-83634691D01*
X127476283Y-83469653D01*
X127594999Y-83324999D01*
X127739653Y-83206283D01*
X127904691Y-83118068D01*
X127994230Y-83090907D01*
X128083768Y-83063746D01*
X128153552Y-83056873D01*
X128223334Y-83050000D01*
X128316666Y-83050000D01*
X128386448Y-83056873D01*
X128386448Y-83056873D01*
G37*
G36*
X126680000Y-84950000D02*
X124780000Y-84950000D01*
X124780000Y-83050000D01*
X126680000Y-83050000D01*
X126680000Y-84950000D01*
X126680000Y-84950000D01*
G37*
G36*
X157936448Y-83006873D02*
X158006232Y-83013746D01*
X158095770Y-83040907D01*
X158185309Y-83068068D01*
X158350347Y-83156283D01*
X158495001Y-83274999D01*
X158613717Y-83419653D01*
X158701932Y-83584691D01*
X158701932Y-83584692D01*
X158756254Y-83763768D01*
X158761179Y-83813769D01*
X158774596Y-83950000D01*
X158756254Y-84136231D01*
X158701932Y-84315309D01*
X158613717Y-84480347D01*
X158495001Y-84625001D01*
X158350347Y-84743717D01*
X158185309Y-84831932D01*
X158095770Y-84859093D01*
X158006232Y-84886254D01*
X157866666Y-84900000D01*
X157773334Y-84900000D01*
X157633768Y-84886254D01*
X157544230Y-84859093D01*
X157454691Y-84831932D01*
X157289653Y-84743717D01*
X157144999Y-84625001D01*
X157026283Y-84480347D01*
X156938068Y-84315309D01*
X156883746Y-84136231D01*
X156865404Y-83950000D01*
X156878821Y-83813769D01*
X156883746Y-83763768D01*
X156938068Y-83584692D01*
X156938068Y-83584691D01*
X157026283Y-83419653D01*
X157144999Y-83274999D01*
X157289653Y-83156283D01*
X157454691Y-83068068D01*
X157544230Y-83040907D01*
X157633768Y-83013746D01*
X157703552Y-83006873D01*
X157773334Y-83000000D01*
X157866666Y-83000000D01*
X157936448Y-83006873D01*
X157936448Y-83006873D01*
G37*
G36*
X157936448Y-80466873D02*
X158006232Y-80473746D01*
X158095770Y-80500907D01*
X158185309Y-80528068D01*
X158350347Y-80616283D01*
X158495001Y-80734999D01*
X158613717Y-80879653D01*
X158701932Y-81044691D01*
X158756254Y-81223769D01*
X158774596Y-81410000D01*
X158756254Y-81596231D01*
X158701932Y-81775309D01*
X158613717Y-81940347D01*
X158495001Y-82085001D01*
X158350347Y-82203717D01*
X158185309Y-82291932D01*
X158095770Y-82319093D01*
X158006232Y-82346254D01*
X157866666Y-82360000D01*
X157773334Y-82360000D01*
X157633768Y-82346254D01*
X157544230Y-82319093D01*
X157454691Y-82291932D01*
X157289653Y-82203717D01*
X157144999Y-82085001D01*
X157026283Y-81940347D01*
X156938068Y-81775309D01*
X156883746Y-81596231D01*
X156865404Y-81410000D01*
X156883746Y-81223769D01*
X156938068Y-81044691D01*
X157026283Y-80879653D01*
X157144999Y-80734999D01*
X157289653Y-80616283D01*
X157454691Y-80528068D01*
X157544230Y-80500907D01*
X157633768Y-80473746D01*
X157703552Y-80466873D01*
X157773334Y-80460000D01*
X157866666Y-80460000D01*
X157936448Y-80466873D01*
X157936448Y-80466873D01*
G37*
G36*
X152270000Y-82285000D02*
X150070000Y-82285000D01*
X150070000Y-74210000D01*
X152270000Y-74210000D01*
X152270000Y-82285000D01*
X152270000Y-82285000D01*
G37*
G36*
X144583000Y-81734000D02*
X135833000Y-81734000D01*
X135833000Y-80034000D01*
X144583000Y-80034000D01*
X144583000Y-81734000D01*
X144583000Y-81734000D01*
G37*
G36*
X158006232Y-77933746D02*
X158089483Y-77959000D01*
X158185309Y-77988068D01*
X158350347Y-78076283D01*
X158495001Y-78194999D01*
X158613717Y-78339653D01*
X158701932Y-78504691D01*
X158756254Y-78683769D01*
X158774596Y-78870000D01*
X158756254Y-79056231D01*
X158701932Y-79235309D01*
X158613717Y-79400347D01*
X158495001Y-79545001D01*
X158350347Y-79663717D01*
X158185309Y-79751932D01*
X158095770Y-79779093D01*
X158006232Y-79806254D01*
X157866666Y-79820000D01*
X157773334Y-79820000D01*
X157633768Y-79806254D01*
X157544230Y-79779093D01*
X157454691Y-79751932D01*
X157289653Y-79663717D01*
X157144999Y-79545001D01*
X157026283Y-79400347D01*
X156938068Y-79235309D01*
X156883746Y-79056231D01*
X156865404Y-78870000D01*
X156883746Y-78683769D01*
X156938068Y-78504691D01*
X157026283Y-78339653D01*
X157144999Y-78194999D01*
X157289653Y-78076283D01*
X157454691Y-77988068D01*
X157550517Y-77959000D01*
X157633768Y-77933746D01*
X157773334Y-77920000D01*
X157866666Y-77920000D01*
X158006232Y-77933746D01*
X158006232Y-77933746D01*
G37*
G36*
X135358000Y-79559000D02*
X133658000Y-79559000D01*
X133658000Y-70809000D01*
X135358000Y-70809000D01*
X135358000Y-79559000D01*
X135358000Y-79559000D01*
G37*
G36*
X146758000Y-79559000D02*
X145058000Y-79559000D01*
X145058000Y-70809000D01*
X146758000Y-70809000D01*
X146758000Y-79559000D01*
X146758000Y-79559000D01*
G37*
G36*
X155500527Y-78144874D02*
X155542216Y-78157521D01*
X155580630Y-78178053D01*
X155614308Y-78205692D01*
X155641947Y-78239370D01*
X155662479Y-78277784D01*
X155675126Y-78319473D01*
X155680000Y-78368964D01*
X155680000Y-79261036D01*
X155675126Y-79310527D01*
X155662479Y-79352216D01*
X155641947Y-79390630D01*
X155614308Y-79424308D01*
X155580630Y-79451947D01*
X155542216Y-79472479D01*
X155500527Y-79485126D01*
X155451036Y-79490000D01*
X154308964Y-79490000D01*
X154259473Y-79485126D01*
X154217784Y-79472479D01*
X154179370Y-79451947D01*
X154145692Y-79424308D01*
X154118053Y-79390630D01*
X154097521Y-79352216D01*
X154084874Y-79310527D01*
X154080000Y-79261036D01*
X154080000Y-78368964D01*
X154084874Y-78319473D01*
X154097521Y-78277784D01*
X154118053Y-78239370D01*
X154145692Y-78205692D01*
X154179370Y-78178053D01*
X154217784Y-78157521D01*
X154259473Y-78144874D01*
X154308964Y-78140000D01*
X155451036Y-78140000D01*
X155500527Y-78144874D01*
X155500527Y-78144874D01*
G37*
G36*
X155500527Y-76094874D02*
X155542216Y-76107521D01*
X155580630Y-76128053D01*
X155614308Y-76155692D01*
X155641947Y-76189370D01*
X155662479Y-76227784D01*
X155675126Y-76269473D01*
X155680000Y-76318964D01*
X155680000Y-77211036D01*
X155675126Y-77260527D01*
X155662479Y-77302216D01*
X155641947Y-77340630D01*
X155614308Y-77374308D01*
X155580630Y-77401947D01*
X155542216Y-77422479D01*
X155500527Y-77435126D01*
X155451036Y-77440000D01*
X154308964Y-77440000D01*
X154259473Y-77435126D01*
X154217784Y-77422479D01*
X154179370Y-77401947D01*
X154145692Y-77374308D01*
X154118053Y-77340630D01*
X154097521Y-77302216D01*
X154084874Y-77260527D01*
X154080000Y-77211036D01*
X154080000Y-76318964D01*
X154084874Y-76269473D01*
X154097521Y-76227784D01*
X154118053Y-76189370D01*
X154145692Y-76155692D01*
X154179370Y-76128053D01*
X154217784Y-76107521D01*
X154259473Y-76094874D01*
X154308964Y-76090000D01*
X155451036Y-76090000D01*
X155500527Y-76094874D01*
X155500527Y-76094874D01*
G37*
G36*
X158006232Y-75393746D02*
X158095770Y-75420907D01*
X158185309Y-75448068D01*
X158350347Y-75536283D01*
X158495001Y-75654999D01*
X158613717Y-75799653D01*
X158701932Y-75964691D01*
X158701932Y-75964692D01*
X158745259Y-76107521D01*
X158756254Y-76143769D01*
X158774596Y-76330000D01*
X158756254Y-76516231D01*
X158701932Y-76695309D01*
X158613717Y-76860347D01*
X158495001Y-77005001D01*
X158350347Y-77123717D01*
X158185309Y-77211932D01*
X158095770Y-77239093D01*
X158006232Y-77266254D01*
X157866666Y-77280000D01*
X157773334Y-77280000D01*
X157633768Y-77266254D01*
X157544230Y-77239093D01*
X157454691Y-77211932D01*
X157289653Y-77123717D01*
X157144999Y-77005001D01*
X157026283Y-76860347D01*
X156938068Y-76695309D01*
X156883746Y-76516231D01*
X156865404Y-76330000D01*
X156883746Y-76143769D01*
X156894742Y-76107521D01*
X156938068Y-75964692D01*
X156938068Y-75964691D01*
X157026283Y-75799653D01*
X157144999Y-75654999D01*
X157289653Y-75536283D01*
X157454691Y-75448068D01*
X157544230Y-75420907D01*
X157633768Y-75393746D01*
X157773334Y-75380000D01*
X157866666Y-75380000D01*
X158006232Y-75393746D01*
X158006232Y-75393746D01*
G37*
G36*
X158006232Y-72853746D02*
X158095770Y-72880907D01*
X158185309Y-72908068D01*
X158350347Y-72996283D01*
X158495001Y-73114999D01*
X158613717Y-73259653D01*
X158701932Y-73424691D01*
X158756254Y-73603769D01*
X158774596Y-73790000D01*
X158756254Y-73976231D01*
X158701932Y-74155309D01*
X158613717Y-74320347D01*
X158495001Y-74465001D01*
X158350347Y-74583717D01*
X158185309Y-74671932D01*
X158095770Y-74699093D01*
X158006232Y-74726254D01*
X157866666Y-74740000D01*
X157773334Y-74740000D01*
X157633768Y-74726254D01*
X157544230Y-74699093D01*
X157454691Y-74671932D01*
X157289653Y-74583717D01*
X157144999Y-74465001D01*
X157026283Y-74320347D01*
X156938068Y-74155309D01*
X156883746Y-73976231D01*
X156865404Y-73790000D01*
X156883746Y-73603769D01*
X156938068Y-73424691D01*
X157026283Y-73259653D01*
X157144999Y-73114999D01*
X157289653Y-72996283D01*
X157454691Y-72908068D01*
X157544230Y-72880907D01*
X157633768Y-72853746D01*
X157773334Y-72840000D01*
X157866666Y-72840000D01*
X158006232Y-72853746D01*
X158006232Y-72853746D01*
G37*
G36*
X158770000Y-72200000D02*
X156870000Y-72200000D01*
X156870000Y-70300000D01*
X158770000Y-70300000D01*
X158770000Y-72200000D01*
X158770000Y-72200000D01*
G37*
G36*
X152270000Y-70410000D02*
X150070000Y-70410000D01*
X150070000Y-62335000D01*
X152270000Y-62335000D01*
X152270000Y-70410000D01*
X152270000Y-70410000D01*
G37*
G36*
X144583000Y-70334000D02*
X135833000Y-70334000D01*
X135833000Y-68634000D01*
X144583000Y-68634000D01*
X144583000Y-70334000D01*
X144583000Y-70334000D01*
G37*
G36*
X157936448Y-66666873D02*
X158006232Y-66673746D01*
X158095770Y-66700907D01*
X158185309Y-66728068D01*
X158350347Y-66816283D01*
X158495001Y-66934999D01*
X158613717Y-67079653D01*
X158701932Y-67244691D01*
X158716441Y-67292523D01*
X158731516Y-67342216D01*
X158756254Y-67423769D01*
X158774596Y-67610000D01*
X158756254Y-67796231D01*
X158701932Y-67975309D01*
X158613717Y-68140347D01*
X158495001Y-68285001D01*
X158350347Y-68403717D01*
X158185309Y-68491932D01*
X158095770Y-68519093D01*
X158006232Y-68546254D01*
X157866666Y-68560000D01*
X157773334Y-68560000D01*
X157633768Y-68546254D01*
X157544230Y-68519093D01*
X157454691Y-68491932D01*
X157289653Y-68403717D01*
X157144999Y-68285001D01*
X157026283Y-68140347D01*
X156938068Y-67975309D01*
X156883746Y-67796231D01*
X156865404Y-67610000D01*
X156883746Y-67423769D01*
X156908485Y-67342216D01*
X156923559Y-67292523D01*
X156938068Y-67244691D01*
X157026283Y-67079653D01*
X157144999Y-66934999D01*
X157289653Y-66816283D01*
X157454691Y-66728068D01*
X157544230Y-66700907D01*
X157633768Y-66673746D01*
X157703552Y-66666873D01*
X157773334Y-66660000D01*
X157866666Y-66660000D01*
X157936448Y-66666873D01*
X157936448Y-66666873D01*
G37*
G36*
X132584527Y-65990874D02*
X132626216Y-66003521D01*
X132664630Y-66024053D01*
X132698308Y-66051692D01*
X132725947Y-66085370D01*
X132746479Y-66123784D01*
X132759126Y-66165473D01*
X132764000Y-66214964D01*
X132764000Y-67357036D01*
X132759126Y-67406527D01*
X132746479Y-67448216D01*
X132725947Y-67486630D01*
X132698308Y-67520308D01*
X132664630Y-67547947D01*
X132626216Y-67568479D01*
X132584527Y-67581126D01*
X132535036Y-67586000D01*
X131642964Y-67586000D01*
X131593473Y-67581126D01*
X131551784Y-67568479D01*
X131513370Y-67547947D01*
X131479692Y-67520308D01*
X131452053Y-67486630D01*
X131431521Y-67448216D01*
X131418874Y-67406527D01*
X131414000Y-67357036D01*
X131414000Y-66214964D01*
X131418874Y-66165473D01*
X131431521Y-66123784D01*
X131452053Y-66085370D01*
X131479692Y-66051692D01*
X131513370Y-66024053D01*
X131551784Y-66003521D01*
X131593473Y-65990874D01*
X131642964Y-65986000D01*
X132535036Y-65986000D01*
X132584527Y-65990874D01*
X132584527Y-65990874D01*
G37*
G36*
X126470527Y-65990874D02*
X126512216Y-66003521D01*
X126550630Y-66024053D01*
X126584308Y-66051692D01*
X126611947Y-66085370D01*
X126632479Y-66123784D01*
X126645126Y-66165473D01*
X126650000Y-66214964D01*
X126650000Y-67357036D01*
X126645126Y-67406527D01*
X126632479Y-67448216D01*
X126611947Y-67486630D01*
X126584308Y-67520308D01*
X126550630Y-67547947D01*
X126512216Y-67568479D01*
X126470527Y-67581126D01*
X126421036Y-67586000D01*
X125528964Y-67586000D01*
X125479473Y-67581126D01*
X125437784Y-67568479D01*
X125399370Y-67547947D01*
X125365692Y-67520308D01*
X125338053Y-67486630D01*
X125317521Y-67448216D01*
X125304874Y-67406527D01*
X125300000Y-67357036D01*
X125300000Y-66214964D01*
X125304874Y-66165473D01*
X125317521Y-66123784D01*
X125338053Y-66085370D01*
X125365692Y-66051692D01*
X125399370Y-66024053D01*
X125437784Y-66003521D01*
X125479473Y-65990874D01*
X125528964Y-65986000D01*
X126421036Y-65986000D01*
X126470527Y-65990874D01*
X126470527Y-65990874D01*
G37*
G36*
X128520527Y-65990874D02*
X128562216Y-66003521D01*
X128600630Y-66024053D01*
X128634308Y-66051692D01*
X128661947Y-66085370D01*
X128682479Y-66123784D01*
X128695126Y-66165473D01*
X128700000Y-66214964D01*
X128700000Y-67357036D01*
X128695126Y-67406527D01*
X128682479Y-67448216D01*
X128661947Y-67486630D01*
X128634308Y-67520308D01*
X128600630Y-67547947D01*
X128562216Y-67568479D01*
X128520527Y-67581126D01*
X128471036Y-67586000D01*
X127578964Y-67586000D01*
X127529473Y-67581126D01*
X127487784Y-67568479D01*
X127449370Y-67547947D01*
X127415692Y-67520308D01*
X127388053Y-67486630D01*
X127367521Y-67448216D01*
X127354874Y-67406527D01*
X127350000Y-67357036D01*
X127350000Y-66214964D01*
X127354874Y-66165473D01*
X127367521Y-66123784D01*
X127388053Y-66085370D01*
X127415692Y-66051692D01*
X127449370Y-66024053D01*
X127487784Y-66003521D01*
X127529473Y-65990874D01*
X127578964Y-65986000D01*
X128471036Y-65986000D01*
X128520527Y-65990874D01*
X128520527Y-65990874D01*
G37*
G36*
X130534527Y-65990874D02*
X130576216Y-66003521D01*
X130614630Y-66024053D01*
X130648308Y-66051692D01*
X130675947Y-66085370D01*
X130696479Y-66123784D01*
X130709126Y-66165473D01*
X130714000Y-66214964D01*
X130714000Y-67357036D01*
X130709126Y-67406527D01*
X130696479Y-67448216D01*
X130675947Y-67486630D01*
X130648308Y-67520308D01*
X130614630Y-67547947D01*
X130576216Y-67568479D01*
X130534527Y-67581126D01*
X130485036Y-67586000D01*
X129592964Y-67586000D01*
X129543473Y-67581126D01*
X129501784Y-67568479D01*
X129463370Y-67547947D01*
X129429692Y-67520308D01*
X129402053Y-67486630D01*
X129381521Y-67448216D01*
X129368874Y-67406527D01*
X129364000Y-67357036D01*
X129364000Y-66214964D01*
X129368874Y-66165473D01*
X129381521Y-66123784D01*
X129402053Y-66085370D01*
X129429692Y-66051692D01*
X129463370Y-66024053D01*
X129501784Y-66003521D01*
X129543473Y-65990874D01*
X129592964Y-65986000D01*
X130485036Y-65986000D01*
X130534527Y-65990874D01*
X130534527Y-65990874D01*
G37*
G36*
X155480527Y-66134874D02*
X155522216Y-66147521D01*
X155560630Y-66168053D01*
X155594308Y-66195692D01*
X155621947Y-66229370D01*
X155642479Y-66267784D01*
X155655126Y-66309473D01*
X155660000Y-66358964D01*
X155660000Y-67251036D01*
X155655126Y-67300527D01*
X155642479Y-67342216D01*
X155621947Y-67380630D01*
X155594308Y-67414308D01*
X155560630Y-67441947D01*
X155522216Y-67462479D01*
X155480527Y-67475126D01*
X155431036Y-67480000D01*
X154288964Y-67480000D01*
X154239473Y-67475126D01*
X154197784Y-67462479D01*
X154159370Y-67441947D01*
X154125692Y-67414308D01*
X154098053Y-67380630D01*
X154077521Y-67342216D01*
X154064874Y-67300527D01*
X154060000Y-67251036D01*
X154060000Y-66358964D01*
X154064874Y-66309473D01*
X154077521Y-66267784D01*
X154098053Y-66229370D01*
X154125692Y-66195692D01*
X154159370Y-66168053D01*
X154197784Y-66147521D01*
X154239473Y-66134874D01*
X154288964Y-66130000D01*
X155431036Y-66130000D01*
X155480527Y-66134874D01*
X155480527Y-66134874D01*
G37*
G36*
X158770000Y-66020000D02*
X156870000Y-66020000D01*
X156870000Y-64120000D01*
X158770000Y-64120000D01*
X158770000Y-66020000D01*
X158770000Y-66020000D01*
G37*
G36*
X155480527Y-64084874D02*
X155522216Y-64097521D01*
X155560630Y-64118053D01*
X155594308Y-64145692D01*
X155621947Y-64179370D01*
X155642479Y-64217784D01*
X155655126Y-64259473D01*
X155660000Y-64308964D01*
X155660000Y-65201036D01*
X155655126Y-65250527D01*
X155642479Y-65292216D01*
X155621947Y-65330630D01*
X155594308Y-65364308D01*
X155560630Y-65391947D01*
X155522216Y-65412479D01*
X155480527Y-65425126D01*
X155431036Y-65430000D01*
X154288964Y-65430000D01*
X154239473Y-65425126D01*
X154197784Y-65412479D01*
X154159370Y-65391947D01*
X154125692Y-65364308D01*
X154098053Y-65330630D01*
X154077521Y-65292216D01*
X154064874Y-65250527D01*
X154060000Y-65201036D01*
X154060000Y-64308964D01*
X154064874Y-64259473D01*
X154077521Y-64217784D01*
X154098053Y-64179370D01*
X154125692Y-64145692D01*
X154159370Y-64118053D01*
X154197784Y-64097521D01*
X154239473Y-64084874D01*
X154288964Y-64080000D01*
X155431036Y-64080000D01*
X155480527Y-64084874D01*
X155480527Y-64084874D01*
G37*
G36*
X132330527Y-62942874D02*
X132372216Y-62955521D01*
X132410630Y-62976053D01*
X132444308Y-63003692D01*
X132471947Y-63037370D01*
X132492479Y-63075784D01*
X132505126Y-63117473D01*
X132510000Y-63166964D01*
X132510000Y-64309036D01*
X132505126Y-64358527D01*
X132492479Y-64400216D01*
X132471947Y-64438630D01*
X132444308Y-64472308D01*
X132410630Y-64499947D01*
X132372216Y-64520479D01*
X132330527Y-64533126D01*
X132281036Y-64538000D01*
X131388964Y-64538000D01*
X131339473Y-64533126D01*
X131297784Y-64520479D01*
X131259370Y-64499947D01*
X131225692Y-64472308D01*
X131198053Y-64438630D01*
X131177521Y-64400216D01*
X131164874Y-64358527D01*
X131160000Y-64309036D01*
X131160000Y-63166964D01*
X131164874Y-63117473D01*
X131177521Y-63075784D01*
X131198053Y-63037370D01*
X131225692Y-63003692D01*
X131259370Y-62976053D01*
X131297784Y-62955521D01*
X131339473Y-62942874D01*
X131388964Y-62938000D01*
X132281036Y-62938000D01*
X132330527Y-62942874D01*
X132330527Y-62942874D01*
G37*
G36*
X130280527Y-62942874D02*
X130322216Y-62955521D01*
X130360630Y-62976053D01*
X130394308Y-63003692D01*
X130421947Y-63037370D01*
X130442479Y-63075784D01*
X130455126Y-63117473D01*
X130460000Y-63166964D01*
X130460000Y-64309036D01*
X130455126Y-64358527D01*
X130442479Y-64400216D01*
X130421947Y-64438630D01*
X130394308Y-64472308D01*
X130360630Y-64499947D01*
X130322216Y-64520479D01*
X130280527Y-64533126D01*
X130231036Y-64538000D01*
X129338964Y-64538000D01*
X129289473Y-64533126D01*
X129247784Y-64520479D01*
X129209370Y-64499947D01*
X129175692Y-64472308D01*
X129148053Y-64438630D01*
X129127521Y-64400216D01*
X129114874Y-64358527D01*
X129110000Y-64309036D01*
X129110000Y-63166964D01*
X129114874Y-63117473D01*
X129127521Y-63075784D01*
X129148053Y-63037370D01*
X129175692Y-63003692D01*
X129209370Y-62976053D01*
X129247784Y-62955521D01*
X129289473Y-62942874D01*
X129338964Y-62938000D01*
X130231036Y-62938000D01*
X130280527Y-62942874D01*
X130280527Y-62942874D01*
G37*
G36*
X126470527Y-62942874D02*
X126512216Y-62955521D01*
X126550630Y-62976053D01*
X126584308Y-63003692D01*
X126611947Y-63037370D01*
X126632479Y-63075784D01*
X126645126Y-63117473D01*
X126650000Y-63166964D01*
X126650000Y-64309036D01*
X126645126Y-64358527D01*
X126632479Y-64400216D01*
X126611947Y-64438630D01*
X126584308Y-64472308D01*
X126550630Y-64499947D01*
X126512216Y-64520479D01*
X126470527Y-64533126D01*
X126421036Y-64538000D01*
X125528964Y-64538000D01*
X125479473Y-64533126D01*
X125437784Y-64520479D01*
X125399370Y-64499947D01*
X125365692Y-64472308D01*
X125338053Y-64438630D01*
X125317521Y-64400216D01*
X125304874Y-64358527D01*
X125300000Y-64309036D01*
X125300000Y-63166964D01*
X125304874Y-63117473D01*
X125317521Y-63075784D01*
X125338053Y-63037370D01*
X125365692Y-63003692D01*
X125399370Y-62976053D01*
X125437784Y-62955521D01*
X125479473Y-62942874D01*
X125528964Y-62938000D01*
X126421036Y-62938000D01*
X126470527Y-62942874D01*
X126470527Y-62942874D01*
G37*
G36*
X128520527Y-62942874D02*
X128562216Y-62955521D01*
X128600630Y-62976053D01*
X128634308Y-63003692D01*
X128661947Y-63037370D01*
X128682479Y-63075784D01*
X128695126Y-63117473D01*
X128700000Y-63166964D01*
X128700000Y-64309036D01*
X128695126Y-64358527D01*
X128682479Y-64400216D01*
X128661947Y-64438630D01*
X128634308Y-64472308D01*
X128600630Y-64499947D01*
X128562216Y-64520479D01*
X128520527Y-64533126D01*
X128471036Y-64538000D01*
X127578964Y-64538000D01*
X127529473Y-64533126D01*
X127487784Y-64520479D01*
X127449370Y-64499947D01*
X127415692Y-64472308D01*
X127388053Y-64438630D01*
X127367521Y-64400216D01*
X127354874Y-64358527D01*
X127350000Y-64309036D01*
X127350000Y-63166964D01*
X127354874Y-63117473D01*
X127367521Y-63075784D01*
X127388053Y-63037370D01*
X127415692Y-63003692D01*
X127449370Y-62976053D01*
X127487784Y-62955521D01*
X127529473Y-62942874D01*
X127578964Y-62938000D01*
X128471036Y-62938000D01*
X128520527Y-62942874D01*
X128520527Y-62942874D01*
G37*
G36*
X146212000Y-64342000D02*
X144488000Y-64342000D01*
X144488000Y-62618000D01*
X146212000Y-62618000D01*
X146212000Y-64342000D01*
X146212000Y-64342000D01*
G37*
G36*
X142212000Y-64342000D02*
X140488000Y-64342000D01*
X140488000Y-62618000D01*
X142212000Y-62618000D01*
X142212000Y-64342000D01*
X142212000Y-64342000D01*
G37*
G36*
X138212000Y-64342000D02*
X136488000Y-64342000D01*
X136488000Y-62618000D01*
X138212000Y-62618000D01*
X138212000Y-64342000D01*
X138212000Y-64342000D01*
G37*
M02*
