G04 #@! TF.GenerationSoftware,KiCad,Pcbnew,(5.0.2)-1*
G04 #@! TF.CreationDate,2019-10-30T16:47:08+01:00*
G04 #@! TF.ProjectId,pcb_thesis,7063625f-7468-4657-9369-732e6b696361,rev?*
G04 #@! TF.SameCoordinates,Original*
G04 #@! TF.FileFunction,Copper,L2,Bot*
G04 #@! TF.FilePolarity,Positive*
%FSLAX46Y46*%
G04 Gerber Fmt 4.6, Leading zero omitted, Abs format (unit mm)*
G04 Created by KiCad (PCBNEW (5.0.2)-1) date 30.10.2019 16:47:08*
%MOMM*%
%LPD*%
G01*
G04 APERTURE LIST*
G04 #@! TA.AperFunction,NonConductor*
%ADD10C,0.300000*%
G04 #@! TD*
G04 #@! TA.AperFunction,Conductor*
%ADD11C,0.100000*%
G04 #@! TD*
G04 #@! TA.AperFunction,SMDPad,CuDef*
%ADD12C,1.150000*%
G04 #@! TD*
G04 #@! TA.AperFunction,SMDPad,CuDef*
%ADD13C,1.425000*%
G04 #@! TD*
G04 #@! TA.AperFunction,SMDPad,CuDef*
%ADD14R,4.500000X3.300000*%
G04 #@! TD*
G04 #@! TA.AperFunction,ComponentPad*
%ADD15R,1.700000X1.700000*%
G04 #@! TD*
G04 #@! TA.AperFunction,ComponentPad*
%ADD16O,1.700000X1.700000*%
G04 #@! TD*
G04 #@! TA.AperFunction,SMDPad,CuDef*
%ADD17R,2.000000X3.800000*%
G04 #@! TD*
G04 #@! TA.AperFunction,SMDPad,CuDef*
%ADD18R,2.000000X1.500000*%
G04 #@! TD*
G04 #@! TA.AperFunction,ViaPad*
%ADD19C,1.300000*%
G04 #@! TD*
G04 #@! TA.AperFunction,Conductor*
%ADD20C,0.350000*%
G04 #@! TD*
G04 #@! TA.AperFunction,Conductor*
%ADD21C,0.254000*%
G04 #@! TD*
G04 APERTURE END LIST*
D10*
X154357142Y-62678571D02*
X154357142Y-61178571D01*
X154000000Y-61178571D01*
X153785714Y-61250000D01*
X153642857Y-61392857D01*
X153571428Y-61535714D01*
X153500000Y-61821428D01*
X153500000Y-62035714D01*
X153571428Y-62321428D01*
X153642857Y-62464285D01*
X153785714Y-62607142D01*
X154000000Y-62678571D01*
X154357142Y-62678571D01*
X152214285Y-61678571D02*
X152214285Y-62678571D01*
X152857142Y-61678571D02*
X152857142Y-62464285D01*
X152785714Y-62607142D01*
X152642857Y-62678571D01*
X152428571Y-62678571D01*
X152285714Y-62607142D01*
X152214285Y-62535714D01*
X151500000Y-61678571D02*
X151500000Y-62678571D01*
X151500000Y-61821428D02*
X151428571Y-61750000D01*
X151285714Y-61678571D01*
X151071428Y-61678571D01*
X150928571Y-61750000D01*
X150857142Y-61892857D01*
X150857142Y-62678571D01*
X149500000Y-62678571D02*
X149500000Y-61892857D01*
X149571428Y-61750000D01*
X149714285Y-61678571D01*
X150000000Y-61678571D01*
X150142857Y-61750000D01*
X149500000Y-62607142D02*
X149642857Y-62678571D01*
X150000000Y-62678571D01*
X150142857Y-62607142D01*
X150214285Y-62464285D01*
X150214285Y-62321428D01*
X150142857Y-62178571D01*
X150000000Y-62107142D01*
X149642857Y-62107142D01*
X149500000Y-62035714D01*
X148785714Y-61678571D02*
X148785714Y-62964285D01*
X148857142Y-63107142D01*
X149000000Y-63178571D01*
X149071428Y-63178571D01*
X148785714Y-61178571D02*
X148857142Y-61250000D01*
X148785714Y-61321428D01*
X148714285Y-61250000D01*
X148785714Y-61178571D01*
X148785714Y-61321428D01*
X148142857Y-62607142D02*
X148000000Y-62678571D01*
X147714285Y-62678571D01*
X147571428Y-62607142D01*
X147500000Y-62464285D01*
X147500000Y-62392857D01*
X147571428Y-62250000D01*
X147714285Y-62178571D01*
X147928571Y-62178571D01*
X148071428Y-62107142D01*
X148142857Y-61964285D01*
X148142857Y-61892857D01*
X148071428Y-61750000D01*
X147928571Y-61678571D01*
X147714285Y-61678571D01*
X147571428Y-61750000D01*
X146857142Y-62678571D02*
X146857142Y-61178571D01*
X146714285Y-62107142D02*
X146285714Y-62678571D01*
X146285714Y-61678571D02*
X146857142Y-62250000D01*
X145642857Y-62678571D02*
X145642857Y-61678571D01*
X145642857Y-61178571D02*
X145714285Y-61250000D01*
X145642857Y-61321428D01*
X145571428Y-61250000D01*
X145642857Y-61178571D01*
X145642857Y-61321428D01*
D11*
G04 #@! TO.N,VCC*
G04 #@! TO.C,C5*
G36*
X141074505Y-66611204D02*
X141098773Y-66614804D01*
X141122572Y-66620765D01*
X141145671Y-66629030D01*
X141167850Y-66639520D01*
X141188893Y-66652132D01*
X141208599Y-66666747D01*
X141226777Y-66683223D01*
X141243253Y-66701401D01*
X141257868Y-66721107D01*
X141270480Y-66742150D01*
X141280970Y-66764329D01*
X141289235Y-66787428D01*
X141295196Y-66811227D01*
X141298796Y-66835495D01*
X141300000Y-66859999D01*
X141300000Y-67760001D01*
X141298796Y-67784505D01*
X141295196Y-67808773D01*
X141289235Y-67832572D01*
X141280970Y-67855671D01*
X141270480Y-67877850D01*
X141257868Y-67898893D01*
X141243253Y-67918599D01*
X141226777Y-67936777D01*
X141208599Y-67953253D01*
X141188893Y-67967868D01*
X141167850Y-67980480D01*
X141145671Y-67990970D01*
X141122572Y-67999235D01*
X141098773Y-68005196D01*
X141074505Y-68008796D01*
X141050001Y-68010000D01*
X140399999Y-68010000D01*
X140375495Y-68008796D01*
X140351227Y-68005196D01*
X140327428Y-67999235D01*
X140304329Y-67990970D01*
X140282150Y-67980480D01*
X140261107Y-67967868D01*
X140241401Y-67953253D01*
X140223223Y-67936777D01*
X140206747Y-67918599D01*
X140192132Y-67898893D01*
X140179520Y-67877850D01*
X140169030Y-67855671D01*
X140160765Y-67832572D01*
X140154804Y-67808773D01*
X140151204Y-67784505D01*
X140150000Y-67760001D01*
X140150000Y-66859999D01*
X140151204Y-66835495D01*
X140154804Y-66811227D01*
X140160765Y-66787428D01*
X140169030Y-66764329D01*
X140179520Y-66742150D01*
X140192132Y-66721107D01*
X140206747Y-66701401D01*
X140223223Y-66683223D01*
X140241401Y-66666747D01*
X140261107Y-66652132D01*
X140282150Y-66639520D01*
X140304329Y-66629030D01*
X140327428Y-66620765D01*
X140351227Y-66614804D01*
X140375495Y-66611204D01*
X140399999Y-66610000D01*
X141050001Y-66610000D01*
X141074505Y-66611204D01*
X141074505Y-66611204D01*
G37*
D12*
G04 #@! TD*
G04 #@! TO.P,C5,2*
G04 #@! TO.N,VCC*
X140725000Y-67310000D03*
D11*
G04 #@! TO.N,GND*
G04 #@! TO.C,C5*
G36*
X139024505Y-66611204D02*
X139048773Y-66614804D01*
X139072572Y-66620765D01*
X139095671Y-66629030D01*
X139117850Y-66639520D01*
X139138893Y-66652132D01*
X139158599Y-66666747D01*
X139176777Y-66683223D01*
X139193253Y-66701401D01*
X139207868Y-66721107D01*
X139220480Y-66742150D01*
X139230970Y-66764329D01*
X139239235Y-66787428D01*
X139245196Y-66811227D01*
X139248796Y-66835495D01*
X139250000Y-66859999D01*
X139250000Y-67760001D01*
X139248796Y-67784505D01*
X139245196Y-67808773D01*
X139239235Y-67832572D01*
X139230970Y-67855671D01*
X139220480Y-67877850D01*
X139207868Y-67898893D01*
X139193253Y-67918599D01*
X139176777Y-67936777D01*
X139158599Y-67953253D01*
X139138893Y-67967868D01*
X139117850Y-67980480D01*
X139095671Y-67990970D01*
X139072572Y-67999235D01*
X139048773Y-68005196D01*
X139024505Y-68008796D01*
X139000001Y-68010000D01*
X138349999Y-68010000D01*
X138325495Y-68008796D01*
X138301227Y-68005196D01*
X138277428Y-67999235D01*
X138254329Y-67990970D01*
X138232150Y-67980480D01*
X138211107Y-67967868D01*
X138191401Y-67953253D01*
X138173223Y-67936777D01*
X138156747Y-67918599D01*
X138142132Y-67898893D01*
X138129520Y-67877850D01*
X138119030Y-67855671D01*
X138110765Y-67832572D01*
X138104804Y-67808773D01*
X138101204Y-67784505D01*
X138100000Y-67760001D01*
X138100000Y-66859999D01*
X138101204Y-66835495D01*
X138104804Y-66811227D01*
X138110765Y-66787428D01*
X138119030Y-66764329D01*
X138129520Y-66742150D01*
X138142132Y-66721107D01*
X138156747Y-66701401D01*
X138173223Y-66683223D01*
X138191401Y-66666747D01*
X138211107Y-66652132D01*
X138232150Y-66639520D01*
X138254329Y-66629030D01*
X138277428Y-66620765D01*
X138301227Y-66614804D01*
X138325495Y-66611204D01*
X138349999Y-66610000D01*
X139000001Y-66610000D01*
X139024505Y-66611204D01*
X139024505Y-66611204D01*
G37*
D12*
G04 #@! TD*
G04 #@! TO.P,C5,1*
G04 #@! TO.N,GND*
X138675000Y-67310000D03*
D11*
G04 #@! TO.N,GND*
G04 #@! TO.C,C3*
G36*
X138445504Y-64150204D02*
X138469773Y-64153804D01*
X138493571Y-64159765D01*
X138516671Y-64168030D01*
X138538849Y-64178520D01*
X138559893Y-64191133D01*
X138579598Y-64205747D01*
X138597777Y-64222223D01*
X138614253Y-64240402D01*
X138628867Y-64260107D01*
X138641480Y-64281151D01*
X138651970Y-64303329D01*
X138660235Y-64326429D01*
X138666196Y-64350227D01*
X138669796Y-64374496D01*
X138671000Y-64399000D01*
X138671000Y-65649000D01*
X138669796Y-65673504D01*
X138666196Y-65697773D01*
X138660235Y-65721571D01*
X138651970Y-65744671D01*
X138641480Y-65766849D01*
X138628867Y-65787893D01*
X138614253Y-65807598D01*
X138597777Y-65825777D01*
X138579598Y-65842253D01*
X138559893Y-65856867D01*
X138538849Y-65869480D01*
X138516671Y-65879970D01*
X138493571Y-65888235D01*
X138469773Y-65894196D01*
X138445504Y-65897796D01*
X138421000Y-65899000D01*
X137496000Y-65899000D01*
X137471496Y-65897796D01*
X137447227Y-65894196D01*
X137423429Y-65888235D01*
X137400329Y-65879970D01*
X137378151Y-65869480D01*
X137357107Y-65856867D01*
X137337402Y-65842253D01*
X137319223Y-65825777D01*
X137302747Y-65807598D01*
X137288133Y-65787893D01*
X137275520Y-65766849D01*
X137265030Y-65744671D01*
X137256765Y-65721571D01*
X137250804Y-65697773D01*
X137247204Y-65673504D01*
X137246000Y-65649000D01*
X137246000Y-64399000D01*
X137247204Y-64374496D01*
X137250804Y-64350227D01*
X137256765Y-64326429D01*
X137265030Y-64303329D01*
X137275520Y-64281151D01*
X137288133Y-64260107D01*
X137302747Y-64240402D01*
X137319223Y-64222223D01*
X137337402Y-64205747D01*
X137357107Y-64191133D01*
X137378151Y-64178520D01*
X137400329Y-64168030D01*
X137423429Y-64159765D01*
X137447227Y-64153804D01*
X137471496Y-64150204D01*
X137496000Y-64149000D01*
X138421000Y-64149000D01*
X138445504Y-64150204D01*
X138445504Y-64150204D01*
G37*
D13*
G04 #@! TD*
G04 #@! TO.P,C3,2*
G04 #@! TO.N,GND*
X137958500Y-65024000D03*
D11*
G04 #@! TO.N,VCC*
G04 #@! TO.C,C3*
G36*
X141420504Y-64150204D02*
X141444773Y-64153804D01*
X141468571Y-64159765D01*
X141491671Y-64168030D01*
X141513849Y-64178520D01*
X141534893Y-64191133D01*
X141554598Y-64205747D01*
X141572777Y-64222223D01*
X141589253Y-64240402D01*
X141603867Y-64260107D01*
X141616480Y-64281151D01*
X141626970Y-64303329D01*
X141635235Y-64326429D01*
X141641196Y-64350227D01*
X141644796Y-64374496D01*
X141646000Y-64399000D01*
X141646000Y-65649000D01*
X141644796Y-65673504D01*
X141641196Y-65697773D01*
X141635235Y-65721571D01*
X141626970Y-65744671D01*
X141616480Y-65766849D01*
X141603867Y-65787893D01*
X141589253Y-65807598D01*
X141572777Y-65825777D01*
X141554598Y-65842253D01*
X141534893Y-65856867D01*
X141513849Y-65869480D01*
X141491671Y-65879970D01*
X141468571Y-65888235D01*
X141444773Y-65894196D01*
X141420504Y-65897796D01*
X141396000Y-65899000D01*
X140471000Y-65899000D01*
X140446496Y-65897796D01*
X140422227Y-65894196D01*
X140398429Y-65888235D01*
X140375329Y-65879970D01*
X140353151Y-65869480D01*
X140332107Y-65856867D01*
X140312402Y-65842253D01*
X140294223Y-65825777D01*
X140277747Y-65807598D01*
X140263133Y-65787893D01*
X140250520Y-65766849D01*
X140240030Y-65744671D01*
X140231765Y-65721571D01*
X140225804Y-65697773D01*
X140222204Y-65673504D01*
X140221000Y-65649000D01*
X140221000Y-64399000D01*
X140222204Y-64374496D01*
X140225804Y-64350227D01*
X140231765Y-64326429D01*
X140240030Y-64303329D01*
X140250520Y-64281151D01*
X140263133Y-64260107D01*
X140277747Y-64240402D01*
X140294223Y-64222223D01*
X140312402Y-64205747D01*
X140332107Y-64191133D01*
X140353151Y-64178520D01*
X140375329Y-64168030D01*
X140398429Y-64159765D01*
X140422227Y-64153804D01*
X140446496Y-64150204D01*
X140471000Y-64149000D01*
X141396000Y-64149000D01*
X141420504Y-64150204D01*
X141420504Y-64150204D01*
G37*
D13*
G04 #@! TD*
G04 #@! TO.P,C3,1*
G04 #@! TO.N,VCC*
X140933500Y-65024000D03*
D11*
G04 #@! TO.N,GND*
G04 #@! TO.C,C4*
G36*
X141328505Y-82359204D02*
X141352773Y-82362804D01*
X141376572Y-82368765D01*
X141399671Y-82377030D01*
X141421850Y-82387520D01*
X141442893Y-82400132D01*
X141462599Y-82414747D01*
X141480777Y-82431223D01*
X141497253Y-82449401D01*
X141511868Y-82469107D01*
X141524480Y-82490150D01*
X141534970Y-82512329D01*
X141543235Y-82535428D01*
X141549196Y-82559227D01*
X141552796Y-82583495D01*
X141554000Y-82607999D01*
X141554000Y-83508001D01*
X141552796Y-83532505D01*
X141549196Y-83556773D01*
X141543235Y-83580572D01*
X141534970Y-83603671D01*
X141524480Y-83625850D01*
X141511868Y-83646893D01*
X141497253Y-83666599D01*
X141480777Y-83684777D01*
X141462599Y-83701253D01*
X141442893Y-83715868D01*
X141421850Y-83728480D01*
X141399671Y-83738970D01*
X141376572Y-83747235D01*
X141352773Y-83753196D01*
X141328505Y-83756796D01*
X141304001Y-83758000D01*
X140653999Y-83758000D01*
X140629495Y-83756796D01*
X140605227Y-83753196D01*
X140581428Y-83747235D01*
X140558329Y-83738970D01*
X140536150Y-83728480D01*
X140515107Y-83715868D01*
X140495401Y-83701253D01*
X140477223Y-83684777D01*
X140460747Y-83666599D01*
X140446132Y-83646893D01*
X140433520Y-83625850D01*
X140423030Y-83603671D01*
X140414765Y-83580572D01*
X140408804Y-83556773D01*
X140405204Y-83532505D01*
X140404000Y-83508001D01*
X140404000Y-82607999D01*
X140405204Y-82583495D01*
X140408804Y-82559227D01*
X140414765Y-82535428D01*
X140423030Y-82512329D01*
X140433520Y-82490150D01*
X140446132Y-82469107D01*
X140460747Y-82449401D01*
X140477223Y-82431223D01*
X140495401Y-82414747D01*
X140515107Y-82400132D01*
X140536150Y-82387520D01*
X140558329Y-82377030D01*
X140581428Y-82368765D01*
X140605227Y-82362804D01*
X140629495Y-82359204D01*
X140653999Y-82358000D01*
X141304001Y-82358000D01*
X141328505Y-82359204D01*
X141328505Y-82359204D01*
G37*
D12*
G04 #@! TD*
G04 #@! TO.P,C4,1*
G04 #@! TO.N,GND*
X140979000Y-83058000D03*
D11*
G04 #@! TO.N,VCC*
G04 #@! TO.C,C4*
G36*
X139278505Y-82359204D02*
X139302773Y-82362804D01*
X139326572Y-82368765D01*
X139349671Y-82377030D01*
X139371850Y-82387520D01*
X139392893Y-82400132D01*
X139412599Y-82414747D01*
X139430777Y-82431223D01*
X139447253Y-82449401D01*
X139461868Y-82469107D01*
X139474480Y-82490150D01*
X139484970Y-82512329D01*
X139493235Y-82535428D01*
X139499196Y-82559227D01*
X139502796Y-82583495D01*
X139504000Y-82607999D01*
X139504000Y-83508001D01*
X139502796Y-83532505D01*
X139499196Y-83556773D01*
X139493235Y-83580572D01*
X139484970Y-83603671D01*
X139474480Y-83625850D01*
X139461868Y-83646893D01*
X139447253Y-83666599D01*
X139430777Y-83684777D01*
X139412599Y-83701253D01*
X139392893Y-83715868D01*
X139371850Y-83728480D01*
X139349671Y-83738970D01*
X139326572Y-83747235D01*
X139302773Y-83753196D01*
X139278505Y-83756796D01*
X139254001Y-83758000D01*
X138603999Y-83758000D01*
X138579495Y-83756796D01*
X138555227Y-83753196D01*
X138531428Y-83747235D01*
X138508329Y-83738970D01*
X138486150Y-83728480D01*
X138465107Y-83715868D01*
X138445401Y-83701253D01*
X138427223Y-83684777D01*
X138410747Y-83666599D01*
X138396132Y-83646893D01*
X138383520Y-83625850D01*
X138373030Y-83603671D01*
X138364765Y-83580572D01*
X138358804Y-83556773D01*
X138355204Y-83532505D01*
X138354000Y-83508001D01*
X138354000Y-82607999D01*
X138355204Y-82583495D01*
X138358804Y-82559227D01*
X138364765Y-82535428D01*
X138373030Y-82512329D01*
X138383520Y-82490150D01*
X138396132Y-82469107D01*
X138410747Y-82449401D01*
X138427223Y-82431223D01*
X138445401Y-82414747D01*
X138465107Y-82400132D01*
X138486150Y-82387520D01*
X138508329Y-82377030D01*
X138531428Y-82368765D01*
X138555227Y-82362804D01*
X138579495Y-82359204D01*
X138603999Y-82358000D01*
X139254001Y-82358000D01*
X139278505Y-82359204D01*
X139278505Y-82359204D01*
G37*
D12*
G04 #@! TD*
G04 #@! TO.P,C4,2*
G04 #@! TO.N,VCC*
X138929000Y-83058000D03*
D14*
G04 #@! TO.P,D5,1*
G04 #@! TO.N,Net-(D5-Pad1)*
X126440000Y-71540000D03*
G04 #@! TO.P,D5,2*
G04 #@! TO.N,GND*
X135240000Y-71540000D03*
G04 #@! TD*
D15*
G04 #@! TO.P,J1,1*
G04 #@! TO.N,/~RESET*
X157820000Y-71250000D03*
D16*
G04 #@! TO.P,J1,2*
G04 #@! TO.N,Net-(J1-Pad2)*
X157820000Y-73790000D03*
G04 #@! TO.P,J1,3*
G04 #@! TO.N,Net-(J1-Pad3)*
X157820000Y-76330000D03*
G04 #@! TO.P,J1,4*
G04 #@! TO.N,Net-(J1-Pad4)*
X157820000Y-78870000D03*
G04 #@! TO.P,J1,5*
G04 #@! TO.N,VCC*
X157820000Y-81410000D03*
G04 #@! TO.P,J1,6*
G04 #@! TO.N,GND*
X157820000Y-83950000D03*
G04 #@! TD*
G04 #@! TO.P,J2,2*
G04 #@! TO.N,Net-(J2-Pad2)*
X157820000Y-67610000D03*
D15*
G04 #@! TO.P,J2,1*
G04 #@! TO.N,Net-(J2-Pad1)*
X157820000Y-65070000D03*
G04 #@! TD*
G04 #@! TO.P,J3,1*
G04 #@! TO.N,Net-(D5-Pad1)*
X125730000Y-84000000D03*
D16*
G04 #@! TO.P,J3,2*
G04 #@! TO.N,GND*
X128270000Y-84000000D03*
G04 #@! TD*
D17*
G04 #@! TO.P,Q1,4*
G04 #@! TO.N,N/C*
X127406000Y-64516000D03*
D18*
G04 #@! TO.P,Q1,2*
G04 #@! TO.N,VCC*
X133706000Y-64516000D03*
G04 #@! TO.P,Q1,3*
G04 #@! TO.N,Net-(D5-Pad1)*
X133706000Y-66816000D03*
G04 #@! TO.P,Q1,1*
G04 #@! TO.N,Net-(Q1-Pad1)*
X133706000Y-62216000D03*
G04 #@! TD*
D11*
G04 #@! TO.N,VCC*
G04 #@! TO.C,R1*
G36*
X138953504Y-84470204D02*
X138977773Y-84473804D01*
X139001571Y-84479765D01*
X139024671Y-84488030D01*
X139046849Y-84498520D01*
X139067893Y-84511133D01*
X139087598Y-84525747D01*
X139105777Y-84542223D01*
X139122253Y-84560402D01*
X139136867Y-84580107D01*
X139149480Y-84601151D01*
X139159970Y-84623329D01*
X139168235Y-84646429D01*
X139174196Y-84670227D01*
X139177796Y-84694496D01*
X139179000Y-84719000D01*
X139179000Y-85969000D01*
X139177796Y-85993504D01*
X139174196Y-86017773D01*
X139168235Y-86041571D01*
X139159970Y-86064671D01*
X139149480Y-86086849D01*
X139136867Y-86107893D01*
X139122253Y-86127598D01*
X139105777Y-86145777D01*
X139087598Y-86162253D01*
X139067893Y-86176867D01*
X139046849Y-86189480D01*
X139024671Y-86199970D01*
X139001571Y-86208235D01*
X138977773Y-86214196D01*
X138953504Y-86217796D01*
X138929000Y-86219000D01*
X138004000Y-86219000D01*
X137979496Y-86217796D01*
X137955227Y-86214196D01*
X137931429Y-86208235D01*
X137908329Y-86199970D01*
X137886151Y-86189480D01*
X137865107Y-86176867D01*
X137845402Y-86162253D01*
X137827223Y-86145777D01*
X137810747Y-86127598D01*
X137796133Y-86107893D01*
X137783520Y-86086849D01*
X137773030Y-86064671D01*
X137764765Y-86041571D01*
X137758804Y-86017773D01*
X137755204Y-85993504D01*
X137754000Y-85969000D01*
X137754000Y-84719000D01*
X137755204Y-84694496D01*
X137758804Y-84670227D01*
X137764765Y-84646429D01*
X137773030Y-84623329D01*
X137783520Y-84601151D01*
X137796133Y-84580107D01*
X137810747Y-84560402D01*
X137827223Y-84542223D01*
X137845402Y-84525747D01*
X137865107Y-84511133D01*
X137886151Y-84498520D01*
X137908329Y-84488030D01*
X137931429Y-84479765D01*
X137955227Y-84473804D01*
X137979496Y-84470204D01*
X138004000Y-84469000D01*
X138929000Y-84469000D01*
X138953504Y-84470204D01*
X138953504Y-84470204D01*
G37*
D13*
G04 #@! TD*
G04 #@! TO.P,R1,1*
G04 #@! TO.N,VCC*
X138466500Y-85344000D03*
D11*
G04 #@! TO.N,/~RESET*
G04 #@! TO.C,R1*
G36*
X141928504Y-84470204D02*
X141952773Y-84473804D01*
X141976571Y-84479765D01*
X141999671Y-84488030D01*
X142021849Y-84498520D01*
X142042893Y-84511133D01*
X142062598Y-84525747D01*
X142080777Y-84542223D01*
X142097253Y-84560402D01*
X142111867Y-84580107D01*
X142124480Y-84601151D01*
X142134970Y-84623329D01*
X142143235Y-84646429D01*
X142149196Y-84670227D01*
X142152796Y-84694496D01*
X142154000Y-84719000D01*
X142154000Y-85969000D01*
X142152796Y-85993504D01*
X142149196Y-86017773D01*
X142143235Y-86041571D01*
X142134970Y-86064671D01*
X142124480Y-86086849D01*
X142111867Y-86107893D01*
X142097253Y-86127598D01*
X142080777Y-86145777D01*
X142062598Y-86162253D01*
X142042893Y-86176867D01*
X142021849Y-86189480D01*
X141999671Y-86199970D01*
X141976571Y-86208235D01*
X141952773Y-86214196D01*
X141928504Y-86217796D01*
X141904000Y-86219000D01*
X140979000Y-86219000D01*
X140954496Y-86217796D01*
X140930227Y-86214196D01*
X140906429Y-86208235D01*
X140883329Y-86199970D01*
X140861151Y-86189480D01*
X140840107Y-86176867D01*
X140820402Y-86162253D01*
X140802223Y-86145777D01*
X140785747Y-86127598D01*
X140771133Y-86107893D01*
X140758520Y-86086849D01*
X140748030Y-86064671D01*
X140739765Y-86041571D01*
X140733804Y-86017773D01*
X140730204Y-85993504D01*
X140729000Y-85969000D01*
X140729000Y-84719000D01*
X140730204Y-84694496D01*
X140733804Y-84670227D01*
X140739765Y-84646429D01*
X140748030Y-84623329D01*
X140758520Y-84601151D01*
X140771133Y-84580107D01*
X140785747Y-84560402D01*
X140802223Y-84542223D01*
X140820402Y-84525747D01*
X140840107Y-84511133D01*
X140861151Y-84498520D01*
X140883329Y-84488030D01*
X140906429Y-84479765D01*
X140930227Y-84473804D01*
X140954496Y-84470204D01*
X140979000Y-84469000D01*
X141904000Y-84469000D01*
X141928504Y-84470204D01*
X141928504Y-84470204D01*
G37*
D13*
G04 #@! TD*
G04 #@! TO.P,R1,2*
G04 #@! TO.N,/~RESET*
X141441500Y-85344000D03*
D11*
G04 #@! TO.N,/PWM_M*
G04 #@! TO.C,R4*
G36*
X144854505Y-66361204D02*
X144878773Y-66364804D01*
X144902572Y-66370765D01*
X144925671Y-66379030D01*
X144947850Y-66389520D01*
X144968893Y-66402132D01*
X144988599Y-66416747D01*
X145006777Y-66433223D01*
X145023253Y-66451401D01*
X145037868Y-66471107D01*
X145050480Y-66492150D01*
X145060970Y-66514329D01*
X145069235Y-66537428D01*
X145075196Y-66561227D01*
X145078796Y-66585495D01*
X145080000Y-66609999D01*
X145080000Y-67260001D01*
X145078796Y-67284505D01*
X145075196Y-67308773D01*
X145069235Y-67332572D01*
X145060970Y-67355671D01*
X145050480Y-67377850D01*
X145037868Y-67398893D01*
X145023253Y-67418599D01*
X145006777Y-67436777D01*
X144988599Y-67453253D01*
X144968893Y-67467868D01*
X144947850Y-67480480D01*
X144925671Y-67490970D01*
X144902572Y-67499235D01*
X144878773Y-67505196D01*
X144854505Y-67508796D01*
X144830001Y-67510000D01*
X143929999Y-67510000D01*
X143905495Y-67508796D01*
X143881227Y-67505196D01*
X143857428Y-67499235D01*
X143834329Y-67490970D01*
X143812150Y-67480480D01*
X143791107Y-67467868D01*
X143771401Y-67453253D01*
X143753223Y-67436777D01*
X143736747Y-67418599D01*
X143722132Y-67398893D01*
X143709520Y-67377850D01*
X143699030Y-67355671D01*
X143690765Y-67332572D01*
X143684804Y-67308773D01*
X143681204Y-67284505D01*
X143680000Y-67260001D01*
X143680000Y-66609999D01*
X143681204Y-66585495D01*
X143684804Y-66561227D01*
X143690765Y-66537428D01*
X143699030Y-66514329D01*
X143709520Y-66492150D01*
X143722132Y-66471107D01*
X143736747Y-66451401D01*
X143753223Y-66433223D01*
X143771401Y-66416747D01*
X143791107Y-66402132D01*
X143812150Y-66389520D01*
X143834329Y-66379030D01*
X143857428Y-66370765D01*
X143881227Y-66364804D01*
X143905495Y-66361204D01*
X143929999Y-66360000D01*
X144830001Y-66360000D01*
X144854505Y-66361204D01*
X144854505Y-66361204D01*
G37*
D12*
G04 #@! TD*
G04 #@! TO.P,R4,2*
G04 #@! TO.N,/PWM_M*
X144380000Y-66935000D03*
D11*
G04 #@! TO.N,Net-(Q1-Pad1)*
G04 #@! TO.C,R4*
G36*
X144854505Y-64311204D02*
X144878773Y-64314804D01*
X144902572Y-64320765D01*
X144925671Y-64329030D01*
X144947850Y-64339520D01*
X144968893Y-64352132D01*
X144988599Y-64366747D01*
X145006777Y-64383223D01*
X145023253Y-64401401D01*
X145037868Y-64421107D01*
X145050480Y-64442150D01*
X145060970Y-64464329D01*
X145069235Y-64487428D01*
X145075196Y-64511227D01*
X145078796Y-64535495D01*
X145080000Y-64559999D01*
X145080000Y-65210001D01*
X145078796Y-65234505D01*
X145075196Y-65258773D01*
X145069235Y-65282572D01*
X145060970Y-65305671D01*
X145050480Y-65327850D01*
X145037868Y-65348893D01*
X145023253Y-65368599D01*
X145006777Y-65386777D01*
X144988599Y-65403253D01*
X144968893Y-65417868D01*
X144947850Y-65430480D01*
X144925671Y-65440970D01*
X144902572Y-65449235D01*
X144878773Y-65455196D01*
X144854505Y-65458796D01*
X144830001Y-65460000D01*
X143929999Y-65460000D01*
X143905495Y-65458796D01*
X143881227Y-65455196D01*
X143857428Y-65449235D01*
X143834329Y-65440970D01*
X143812150Y-65430480D01*
X143791107Y-65417868D01*
X143771401Y-65403253D01*
X143753223Y-65386777D01*
X143736747Y-65368599D01*
X143722132Y-65348893D01*
X143709520Y-65327850D01*
X143699030Y-65305671D01*
X143690765Y-65282572D01*
X143684804Y-65258773D01*
X143681204Y-65234505D01*
X143680000Y-65210001D01*
X143680000Y-64559999D01*
X143681204Y-64535495D01*
X143684804Y-64511227D01*
X143690765Y-64487428D01*
X143699030Y-64464329D01*
X143709520Y-64442150D01*
X143722132Y-64421107D01*
X143736747Y-64401401D01*
X143753223Y-64383223D01*
X143771401Y-64366747D01*
X143791107Y-64352132D01*
X143812150Y-64339520D01*
X143834329Y-64329030D01*
X143857428Y-64320765D01*
X143881227Y-64314804D01*
X143905495Y-64311204D01*
X143929999Y-64310000D01*
X144830001Y-64310000D01*
X144854505Y-64311204D01*
X144854505Y-64311204D01*
G37*
D12*
G04 #@! TD*
G04 #@! TO.P,R4,1*
G04 #@! TO.N,Net-(Q1-Pad1)*
X144380000Y-64885000D03*
D11*
G04 #@! TO.N,/VCC_half*
G04 #@! TO.C,R5*
G36*
X132221504Y-80351204D02*
X132245773Y-80354804D01*
X132269571Y-80360765D01*
X132292671Y-80369030D01*
X132314849Y-80379520D01*
X132335893Y-80392133D01*
X132355598Y-80406747D01*
X132373777Y-80423223D01*
X132390253Y-80441402D01*
X132404867Y-80461107D01*
X132417480Y-80482151D01*
X132427970Y-80504329D01*
X132436235Y-80527429D01*
X132442196Y-80551227D01*
X132445796Y-80575496D01*
X132447000Y-80600000D01*
X132447000Y-81525000D01*
X132445796Y-81549504D01*
X132442196Y-81573773D01*
X132436235Y-81597571D01*
X132427970Y-81620671D01*
X132417480Y-81642849D01*
X132404867Y-81663893D01*
X132390253Y-81683598D01*
X132373777Y-81701777D01*
X132355598Y-81718253D01*
X132335893Y-81732867D01*
X132314849Y-81745480D01*
X132292671Y-81755970D01*
X132269571Y-81764235D01*
X132245773Y-81770196D01*
X132221504Y-81773796D01*
X132197000Y-81775000D01*
X130947000Y-81775000D01*
X130922496Y-81773796D01*
X130898227Y-81770196D01*
X130874429Y-81764235D01*
X130851329Y-81755970D01*
X130829151Y-81745480D01*
X130808107Y-81732867D01*
X130788402Y-81718253D01*
X130770223Y-81701777D01*
X130753747Y-81683598D01*
X130739133Y-81663893D01*
X130726520Y-81642849D01*
X130716030Y-81620671D01*
X130707765Y-81597571D01*
X130701804Y-81573773D01*
X130698204Y-81549504D01*
X130697000Y-81525000D01*
X130697000Y-80600000D01*
X130698204Y-80575496D01*
X130701804Y-80551227D01*
X130707765Y-80527429D01*
X130716030Y-80504329D01*
X130726520Y-80482151D01*
X130739133Y-80461107D01*
X130753747Y-80441402D01*
X130770223Y-80423223D01*
X130788402Y-80406747D01*
X130808107Y-80392133D01*
X130829151Y-80379520D01*
X130851329Y-80369030D01*
X130874429Y-80360765D01*
X130898227Y-80354804D01*
X130922496Y-80351204D01*
X130947000Y-80350000D01*
X132197000Y-80350000D01*
X132221504Y-80351204D01*
X132221504Y-80351204D01*
G37*
D13*
G04 #@! TD*
G04 #@! TO.P,R5,2*
G04 #@! TO.N,/VCC_half*
X131572000Y-81062500D03*
D11*
G04 #@! TO.N,VCC*
G04 #@! TO.C,R5*
G36*
X132221504Y-83326204D02*
X132245773Y-83329804D01*
X132269571Y-83335765D01*
X132292671Y-83344030D01*
X132314849Y-83354520D01*
X132335893Y-83367133D01*
X132355598Y-83381747D01*
X132373777Y-83398223D01*
X132390253Y-83416402D01*
X132404867Y-83436107D01*
X132417480Y-83457151D01*
X132427970Y-83479329D01*
X132436235Y-83502429D01*
X132442196Y-83526227D01*
X132445796Y-83550496D01*
X132447000Y-83575000D01*
X132447000Y-84500000D01*
X132445796Y-84524504D01*
X132442196Y-84548773D01*
X132436235Y-84572571D01*
X132427970Y-84595671D01*
X132417480Y-84617849D01*
X132404867Y-84638893D01*
X132390253Y-84658598D01*
X132373777Y-84676777D01*
X132355598Y-84693253D01*
X132335893Y-84707867D01*
X132314849Y-84720480D01*
X132292671Y-84730970D01*
X132269571Y-84739235D01*
X132245773Y-84745196D01*
X132221504Y-84748796D01*
X132197000Y-84750000D01*
X130947000Y-84750000D01*
X130922496Y-84748796D01*
X130898227Y-84745196D01*
X130874429Y-84739235D01*
X130851329Y-84730970D01*
X130829151Y-84720480D01*
X130808107Y-84707867D01*
X130788402Y-84693253D01*
X130770223Y-84676777D01*
X130753747Y-84658598D01*
X130739133Y-84638893D01*
X130726520Y-84617849D01*
X130716030Y-84595671D01*
X130707765Y-84572571D01*
X130701804Y-84548773D01*
X130698204Y-84524504D01*
X130697000Y-84500000D01*
X130697000Y-83575000D01*
X130698204Y-83550496D01*
X130701804Y-83526227D01*
X130707765Y-83502429D01*
X130716030Y-83479329D01*
X130726520Y-83457151D01*
X130739133Y-83436107D01*
X130753747Y-83416402D01*
X130770223Y-83398223D01*
X130788402Y-83381747D01*
X130808107Y-83367133D01*
X130829151Y-83354520D01*
X130851329Y-83344030D01*
X130874429Y-83335765D01*
X130898227Y-83329804D01*
X130922496Y-83326204D01*
X130947000Y-83325000D01*
X132197000Y-83325000D01*
X132221504Y-83326204D01*
X132221504Y-83326204D01*
G37*
D13*
G04 #@! TD*
G04 #@! TO.P,R5,1*
G04 #@! TO.N,VCC*
X131572000Y-84037500D03*
D11*
G04 #@! TO.N,/VCC_half*
G04 #@! TO.C,R6*
G36*
X132221504Y-78246204D02*
X132245773Y-78249804D01*
X132269571Y-78255765D01*
X132292671Y-78264030D01*
X132314849Y-78274520D01*
X132335893Y-78287133D01*
X132355598Y-78301747D01*
X132373777Y-78318223D01*
X132390253Y-78336402D01*
X132404867Y-78356107D01*
X132417480Y-78377151D01*
X132427970Y-78399329D01*
X132436235Y-78422429D01*
X132442196Y-78446227D01*
X132445796Y-78470496D01*
X132447000Y-78495000D01*
X132447000Y-79420000D01*
X132445796Y-79444504D01*
X132442196Y-79468773D01*
X132436235Y-79492571D01*
X132427970Y-79515671D01*
X132417480Y-79537849D01*
X132404867Y-79558893D01*
X132390253Y-79578598D01*
X132373777Y-79596777D01*
X132355598Y-79613253D01*
X132335893Y-79627867D01*
X132314849Y-79640480D01*
X132292671Y-79650970D01*
X132269571Y-79659235D01*
X132245773Y-79665196D01*
X132221504Y-79668796D01*
X132197000Y-79670000D01*
X130947000Y-79670000D01*
X130922496Y-79668796D01*
X130898227Y-79665196D01*
X130874429Y-79659235D01*
X130851329Y-79650970D01*
X130829151Y-79640480D01*
X130808107Y-79627867D01*
X130788402Y-79613253D01*
X130770223Y-79596777D01*
X130753747Y-79578598D01*
X130739133Y-79558893D01*
X130726520Y-79537849D01*
X130716030Y-79515671D01*
X130707765Y-79492571D01*
X130701804Y-79468773D01*
X130698204Y-79444504D01*
X130697000Y-79420000D01*
X130697000Y-78495000D01*
X130698204Y-78470496D01*
X130701804Y-78446227D01*
X130707765Y-78422429D01*
X130716030Y-78399329D01*
X130726520Y-78377151D01*
X130739133Y-78356107D01*
X130753747Y-78336402D01*
X130770223Y-78318223D01*
X130788402Y-78301747D01*
X130808107Y-78287133D01*
X130829151Y-78274520D01*
X130851329Y-78264030D01*
X130874429Y-78255765D01*
X130898227Y-78249804D01*
X130922496Y-78246204D01*
X130947000Y-78245000D01*
X132197000Y-78245000D01*
X132221504Y-78246204D01*
X132221504Y-78246204D01*
G37*
D13*
G04 #@! TD*
G04 #@! TO.P,R6,1*
G04 #@! TO.N,/VCC_half*
X131572000Y-78957500D03*
D11*
G04 #@! TO.N,GND*
G04 #@! TO.C,R6*
G36*
X132221504Y-75271204D02*
X132245773Y-75274804D01*
X132269571Y-75280765D01*
X132292671Y-75289030D01*
X132314849Y-75299520D01*
X132335893Y-75312133D01*
X132355598Y-75326747D01*
X132373777Y-75343223D01*
X132390253Y-75361402D01*
X132404867Y-75381107D01*
X132417480Y-75402151D01*
X132427970Y-75424329D01*
X132436235Y-75447429D01*
X132442196Y-75471227D01*
X132445796Y-75495496D01*
X132447000Y-75520000D01*
X132447000Y-76445000D01*
X132445796Y-76469504D01*
X132442196Y-76493773D01*
X132436235Y-76517571D01*
X132427970Y-76540671D01*
X132417480Y-76562849D01*
X132404867Y-76583893D01*
X132390253Y-76603598D01*
X132373777Y-76621777D01*
X132355598Y-76638253D01*
X132335893Y-76652867D01*
X132314849Y-76665480D01*
X132292671Y-76675970D01*
X132269571Y-76684235D01*
X132245773Y-76690196D01*
X132221504Y-76693796D01*
X132197000Y-76695000D01*
X130947000Y-76695000D01*
X130922496Y-76693796D01*
X130898227Y-76690196D01*
X130874429Y-76684235D01*
X130851329Y-76675970D01*
X130829151Y-76665480D01*
X130808107Y-76652867D01*
X130788402Y-76638253D01*
X130770223Y-76621777D01*
X130753747Y-76603598D01*
X130739133Y-76583893D01*
X130726520Y-76562849D01*
X130716030Y-76540671D01*
X130707765Y-76517571D01*
X130701804Y-76493773D01*
X130698204Y-76469504D01*
X130697000Y-76445000D01*
X130697000Y-75520000D01*
X130698204Y-75495496D01*
X130701804Y-75471227D01*
X130707765Y-75447429D01*
X130716030Y-75424329D01*
X130726520Y-75402151D01*
X130739133Y-75381107D01*
X130753747Y-75361402D01*
X130770223Y-75343223D01*
X130788402Y-75326747D01*
X130808107Y-75312133D01*
X130829151Y-75299520D01*
X130851329Y-75289030D01*
X130874429Y-75280765D01*
X130898227Y-75274804D01*
X130922496Y-75271204D01*
X130947000Y-75270000D01*
X132197000Y-75270000D01*
X132221504Y-75271204D01*
X132221504Y-75271204D01*
G37*
D13*
G04 #@! TD*
G04 #@! TO.P,R6,2*
G04 #@! TO.N,GND*
X131572000Y-75982500D03*
D19*
G04 #@! TO.N,GND*
X136652000Y-67310000D03*
X141732000Y-76708000D03*
X142600000Y-82600000D03*
X137427010Y-73695917D03*
G04 #@! TO.N,VCC*
X136652000Y-83058000D03*
X141908000Y-66802000D03*
X146200000Y-81410000D03*
G04 #@! TO.N,/~RESET*
X144018000Y-85852000D03*
X147841597Y-75604990D03*
G04 #@! TO.N,Net-(J1-Pad2)*
X147870000Y-77440000D03*
G04 #@! TO.N,Net-(J1-Pad3)*
X148710000Y-79100000D03*
G04 #@! TO.N,Net-(J1-Pad4)*
X147569000Y-80370000D03*
G04 #@! TO.N,Net-(J2-Pad2)*
X147801485Y-72558990D03*
G04 #@! TO.N,Net-(J2-Pad1)*
X147697403Y-71062593D03*
G04 #@! TO.N,/PWM_M*
X146140000Y-67480000D03*
G04 #@! TO.N,/VCC_half*
X133096000Y-80264000D03*
G04 #@! TD*
D20*
G04 #@! TO.N,GND*
X140979000Y-83058000D02*
X141478000Y-83058000D01*
X142142000Y-83058000D02*
X142600000Y-82600000D01*
X140979000Y-83058000D02*
X142142000Y-83058000D01*
X137958500Y-65024000D02*
X137958500Y-66003500D01*
X135140427Y-75982500D02*
X137427010Y-73695917D01*
X131572000Y-75982500D02*
X135140427Y-75982500D01*
G04 #@! TO.N,VCC*
X140725000Y-65232500D02*
X140933500Y-65024000D01*
X140725000Y-67310000D02*
X140725000Y-65232500D01*
X135056000Y-64516000D02*
X133706000Y-64516000D01*
X135798010Y-63773990D02*
X135056000Y-64516000D01*
X139683490Y-63773990D02*
X135798010Y-63773990D01*
X140933500Y-65024000D02*
X139683490Y-63773990D01*
X138466500Y-83520500D02*
X138929000Y-83058000D01*
X138466500Y-85344000D02*
X138466500Y-83520500D01*
X132551500Y-83058000D02*
X136652000Y-83058000D01*
X131572000Y-84037500D02*
X132551500Y-83058000D01*
X136652000Y-83058000D02*
X138929000Y-83058000D01*
X141400000Y-67310000D02*
X141908000Y-66802000D01*
X140725000Y-67310000D02*
X141400000Y-67310000D01*
X140577000Y-81410000D02*
X138929000Y-83058000D01*
X157820000Y-81410000D02*
X146200000Y-81410000D01*
X137051999Y-82658001D02*
X136652000Y-83058000D01*
X138929000Y-80781000D02*
X137051999Y-82658001D01*
X138929000Y-69106000D02*
X138929000Y-80781000D01*
X140725000Y-67310000D02*
X138929000Y-69106000D01*
X146200000Y-81410000D02*
X140577000Y-81410000D01*
G04 #@! TO.N,Net-(D5-Pad1)*
X130892000Y-71628000D02*
X128292000Y-71628000D01*
X133456000Y-66816000D02*
X133706000Y-66816000D01*
X130892000Y-69380000D02*
X133456000Y-66816000D01*
X130892000Y-71628000D02*
X130892000Y-69380000D01*
X126440000Y-83290000D02*
X125730000Y-84000000D01*
X126440000Y-71540000D02*
X126440000Y-83290000D01*
G04 #@! TO.N,/~RESET*
X141949500Y-85852000D02*
X141441500Y-85344000D01*
X144018000Y-85852000D02*
X141949500Y-85852000D01*
X152196587Y-71250000D02*
X148491596Y-74954991D01*
X157820000Y-71250000D02*
X152196587Y-71250000D01*
X148491596Y-74954991D02*
X147841597Y-75604990D01*
G04 #@! TO.N,Net-(J1-Pad2)*
X156617919Y-73790000D02*
X153777919Y-76630000D01*
X157820000Y-73790000D02*
X156617919Y-73790000D01*
X148680000Y-76630000D02*
X147870000Y-77440000D01*
X153777919Y-76630000D02*
X148680000Y-76630000D01*
G04 #@! TO.N,Net-(J1-Pad3)*
X152610000Y-79100000D02*
X148710000Y-79100000D01*
X157820000Y-76330000D02*
X155380000Y-76330000D01*
X155380000Y-76330000D02*
X152610000Y-79100000D01*
G04 #@! TO.N,Net-(J1-Pad4)*
X156320000Y-80370000D02*
X157820000Y-78870000D01*
X147569000Y-80370000D02*
X156320000Y-80370000D01*
G04 #@! TO.N,Net-(J2-Pad2)*
X157820000Y-67610000D02*
X152750475Y-67610000D01*
X148451484Y-71908991D02*
X147801485Y-72558990D01*
X152750475Y-67610000D02*
X148451484Y-71908991D01*
G04 #@! TO.N,Net-(J2-Pad1)*
X153689996Y-65070000D02*
X148347402Y-70412594D01*
X157820000Y-65070000D02*
X153689996Y-65070000D01*
X148347402Y-70412594D02*
X147697403Y-71062593D01*
G04 #@! TO.N,Net-(Q1-Pad1)*
X135622000Y-62216000D02*
X135636000Y-62230000D01*
X133706000Y-62216000D02*
X135622000Y-62216000D01*
X135622000Y-62216000D02*
X140203000Y-62216000D01*
X142386000Y-62216000D02*
X140203000Y-62216000D01*
X144380000Y-64210000D02*
X142386000Y-62216000D01*
X144380000Y-64885000D02*
X144380000Y-64210000D01*
G04 #@! TO.N,/PWM_M*
X145595000Y-66935000D02*
X146140000Y-67480000D01*
X144380000Y-66935000D02*
X145595000Y-66935000D01*
G04 #@! TO.N,/VCC_half*
X131572000Y-81062500D02*
X131572000Y-78957500D01*
X132297500Y-81062500D02*
X133096000Y-80264000D01*
X131572000Y-81062500D02*
X132297500Y-81062500D01*
G04 #@! TD*
D21*
G04 #@! TO.N,GND*
G36*
X162315001Y-87315000D02*
X123685000Y-87315000D01*
X123685000Y-73575611D01*
X123738815Y-73641185D01*
X123835506Y-73720537D01*
X123945820Y-73779502D01*
X124065518Y-73815812D01*
X124190000Y-73828072D01*
X125630000Y-73828072D01*
X125630001Y-82511928D01*
X124880000Y-82511928D01*
X124755518Y-82524188D01*
X124635820Y-82560498D01*
X124525506Y-82619463D01*
X124428815Y-82698815D01*
X124349463Y-82795506D01*
X124290498Y-82905820D01*
X124254188Y-83025518D01*
X124241928Y-83150000D01*
X124241928Y-84850000D01*
X124254188Y-84974482D01*
X124290498Y-85094180D01*
X124349463Y-85204494D01*
X124428815Y-85301185D01*
X124525506Y-85380537D01*
X124635820Y-85439502D01*
X124755518Y-85475812D01*
X124880000Y-85488072D01*
X126580000Y-85488072D01*
X126704482Y-85475812D01*
X126824180Y-85439502D01*
X126934494Y-85380537D01*
X127031185Y-85301185D01*
X127110537Y-85204494D01*
X127169502Y-85094180D01*
X127193966Y-85013534D01*
X127269731Y-85097588D01*
X127503080Y-85271641D01*
X127765901Y-85396825D01*
X127913110Y-85441476D01*
X128143000Y-85320155D01*
X128143000Y-84127000D01*
X128397000Y-84127000D01*
X128397000Y-85320155D01*
X128626890Y-85441476D01*
X128774099Y-85396825D01*
X129036920Y-85271641D01*
X129270269Y-85097588D01*
X129465178Y-84881355D01*
X129614157Y-84631252D01*
X129711481Y-84356891D01*
X129590814Y-84127000D01*
X128397000Y-84127000D01*
X128143000Y-84127000D01*
X128123000Y-84127000D01*
X128123000Y-83873000D01*
X128143000Y-83873000D01*
X128143000Y-82679845D01*
X128397000Y-82679845D01*
X128397000Y-83873000D01*
X129590814Y-83873000D01*
X129711481Y-83643109D01*
X129614157Y-83368748D01*
X129465178Y-83118645D01*
X129270269Y-82902412D01*
X129036920Y-82728359D01*
X128774099Y-82603175D01*
X128626890Y-82558524D01*
X128397000Y-82679845D01*
X128143000Y-82679845D01*
X127913110Y-82558524D01*
X127765901Y-82603175D01*
X127503080Y-82728359D01*
X127269731Y-82902412D01*
X127250000Y-82924302D01*
X127250000Y-76268250D01*
X130062000Y-76268250D01*
X130062000Y-76757542D01*
X130086403Y-76880223D01*
X130134270Y-76995785D01*
X130203763Y-77099789D01*
X130292211Y-77188237D01*
X130396215Y-77257730D01*
X130511777Y-77305597D01*
X130634458Y-77330000D01*
X131286250Y-77330000D01*
X131445000Y-77171250D01*
X131445000Y-76109500D01*
X131699000Y-76109500D01*
X131699000Y-77171250D01*
X131857750Y-77330000D01*
X132509542Y-77330000D01*
X132632223Y-77305597D01*
X132747785Y-77257730D01*
X132851789Y-77188237D01*
X132940237Y-77099789D01*
X133009730Y-76995785D01*
X133057597Y-76880223D01*
X133082000Y-76757542D01*
X133082000Y-76268250D01*
X132923250Y-76109500D01*
X131699000Y-76109500D01*
X131445000Y-76109500D01*
X130220750Y-76109500D01*
X130062000Y-76268250D01*
X127250000Y-76268250D01*
X127250000Y-75207458D01*
X130062000Y-75207458D01*
X130062000Y-75696750D01*
X130220750Y-75855500D01*
X131445000Y-75855500D01*
X131445000Y-74793750D01*
X131699000Y-74793750D01*
X131699000Y-75855500D01*
X132923250Y-75855500D01*
X133082000Y-75696750D01*
X133082000Y-75207458D01*
X133057597Y-75084777D01*
X133009730Y-74969215D01*
X132940237Y-74865211D01*
X132851789Y-74776763D01*
X132747785Y-74707270D01*
X132632223Y-74659403D01*
X132509542Y-74635000D01*
X131857750Y-74635000D01*
X131699000Y-74793750D01*
X131445000Y-74793750D01*
X131286250Y-74635000D01*
X130634458Y-74635000D01*
X130511777Y-74659403D01*
X130396215Y-74707270D01*
X130292211Y-74776763D01*
X130203763Y-74865211D01*
X130134270Y-74969215D01*
X130086403Y-75084777D01*
X130062000Y-75207458D01*
X127250000Y-75207458D01*
X127250000Y-73828072D01*
X128690000Y-73828072D01*
X128814482Y-73815812D01*
X128934180Y-73779502D01*
X129044494Y-73720537D01*
X129141185Y-73641185D01*
X129220537Y-73544494D01*
X129279502Y-73434180D01*
X129315812Y-73314482D01*
X129328072Y-73190000D01*
X129328072Y-72438000D01*
X130852209Y-72438000D01*
X130892000Y-72441919D01*
X130931791Y-72438000D01*
X131050788Y-72426280D01*
X131203473Y-72379963D01*
X131344189Y-72304749D01*
X131467528Y-72203528D01*
X131568749Y-72080189D01*
X131643963Y-71939473D01*
X131678460Y-71825750D01*
X132355000Y-71825750D01*
X132355000Y-73252542D01*
X132379403Y-73375223D01*
X132427270Y-73490785D01*
X132496763Y-73594789D01*
X132585211Y-73683237D01*
X132689215Y-73752730D01*
X132804777Y-73800597D01*
X132927458Y-73825000D01*
X134954250Y-73825000D01*
X135113000Y-73666250D01*
X135113000Y-71667000D01*
X132513750Y-71667000D01*
X132355000Y-71825750D01*
X131678460Y-71825750D01*
X131690280Y-71786788D01*
X131705919Y-71628000D01*
X131702000Y-71588209D01*
X131702000Y-69827458D01*
X132355000Y-69827458D01*
X132355000Y-71254250D01*
X132513750Y-71413000D01*
X135113000Y-71413000D01*
X135113000Y-69413750D01*
X134954250Y-69255000D01*
X132927458Y-69255000D01*
X132804777Y-69279403D01*
X132689215Y-69327270D01*
X132585211Y-69396763D01*
X132496763Y-69485211D01*
X132427270Y-69589215D01*
X132379403Y-69704777D01*
X132355000Y-69827458D01*
X131702000Y-69827458D01*
X131702000Y-69715512D01*
X133213441Y-68204072D01*
X134706000Y-68204072D01*
X134830482Y-68191812D01*
X134950180Y-68155502D01*
X135060494Y-68096537D01*
X135157185Y-68017185D01*
X135236537Y-67920494D01*
X135295502Y-67810180D01*
X135331812Y-67690482D01*
X135344072Y-67566000D01*
X135344072Y-66066000D01*
X135331812Y-65941518D01*
X135295502Y-65821820D01*
X135236537Y-65711506D01*
X135199191Y-65666000D01*
X135236537Y-65620494D01*
X135295502Y-65510180D01*
X135331812Y-65390482D01*
X135343152Y-65275341D01*
X135367473Y-65267963D01*
X135508189Y-65192749D01*
X135631528Y-65091528D01*
X135656899Y-65060613D01*
X136133523Y-64583990D01*
X136611000Y-64583990D01*
X136611000Y-64738250D01*
X136769750Y-64897000D01*
X137831500Y-64897000D01*
X137831500Y-64877000D01*
X138085500Y-64877000D01*
X138085500Y-64897000D01*
X139147250Y-64897000D01*
X139306000Y-64738250D01*
X139306000Y-64583990D01*
X139347978Y-64583990D01*
X139582928Y-64818940D01*
X139582928Y-65649000D01*
X139599992Y-65822254D01*
X139650528Y-65988850D01*
X139732595Y-66142386D01*
X139792433Y-66215300D01*
X139772038Y-66232038D01*
X139766043Y-66239343D01*
X139743237Y-66205211D01*
X139654789Y-66116763D01*
X139550785Y-66047270D01*
X139435223Y-65999403D01*
X139312542Y-65975000D01*
X139303323Y-65975000D01*
X139306000Y-65961542D01*
X139306000Y-65309750D01*
X139147250Y-65151000D01*
X138085500Y-65151000D01*
X138085500Y-65171000D01*
X137831500Y-65171000D01*
X137831500Y-65151000D01*
X136769750Y-65151000D01*
X136611000Y-65309750D01*
X136611000Y-65961542D01*
X136635403Y-66084223D01*
X136683270Y-66199785D01*
X136752763Y-66303789D01*
X136841211Y-66392237D01*
X136945215Y-66461730D01*
X137060777Y-66509597D01*
X137183458Y-66534000D01*
X137467677Y-66534000D01*
X137465000Y-66547458D01*
X137465000Y-67024250D01*
X137623750Y-67183000D01*
X138548000Y-67183000D01*
X138548000Y-67163000D01*
X138802000Y-67163000D01*
X138802000Y-67183000D01*
X138822000Y-67183000D01*
X138822000Y-67437000D01*
X138802000Y-67437000D01*
X138802000Y-67457000D01*
X138548000Y-67457000D01*
X138548000Y-67437000D01*
X137623750Y-67437000D01*
X137465000Y-67595750D01*
X137465000Y-68072542D01*
X137489403Y-68195223D01*
X137537270Y-68310785D01*
X137606763Y-68414789D01*
X137695211Y-68503237D01*
X137799215Y-68572730D01*
X137914777Y-68620597D01*
X138037458Y-68645000D01*
X138259482Y-68645000D01*
X138252251Y-68653811D01*
X138212049Y-68729025D01*
X138177037Y-68794528D01*
X138130720Y-68947213D01*
X138119000Y-69066209D01*
X138115081Y-69106000D01*
X138119000Y-69145788D01*
X138119000Y-69797295D01*
X138100597Y-69704777D01*
X138052730Y-69589215D01*
X137983237Y-69485211D01*
X137894789Y-69396763D01*
X137790785Y-69327270D01*
X137675223Y-69279403D01*
X137552542Y-69255000D01*
X135525750Y-69255000D01*
X135367000Y-69413750D01*
X135367000Y-71413000D01*
X135387000Y-71413000D01*
X135387000Y-71667000D01*
X135367000Y-71667000D01*
X135367000Y-73666250D01*
X135525750Y-73825000D01*
X137552542Y-73825000D01*
X137675223Y-73800597D01*
X137790785Y-73752730D01*
X137894789Y-73683237D01*
X137983237Y-73594789D01*
X138052730Y-73490785D01*
X138100597Y-73375223D01*
X138119000Y-73282704D01*
X138119001Y-80445486D01*
X136789343Y-81775145D01*
X136778561Y-81773000D01*
X136525439Y-81773000D01*
X136277179Y-81822381D01*
X136043324Y-81919247D01*
X135832860Y-82059875D01*
X135653875Y-82238860D01*
X135647768Y-82248000D01*
X132709157Y-82248000D01*
X132824962Y-82152962D01*
X132935405Y-82018386D01*
X133017472Y-81864850D01*
X133068008Y-81698254D01*
X133082708Y-81549000D01*
X133222561Y-81549000D01*
X133470821Y-81499619D01*
X133704676Y-81402753D01*
X133915140Y-81262125D01*
X134094125Y-81083140D01*
X134234753Y-80872676D01*
X134331619Y-80638821D01*
X134381000Y-80390561D01*
X134381000Y-80137439D01*
X134331619Y-79889179D01*
X134234753Y-79655324D01*
X134094125Y-79444860D01*
X133915140Y-79265875D01*
X133704676Y-79125247D01*
X133470821Y-79028381D01*
X133222561Y-78979000D01*
X133085072Y-78979000D01*
X133085072Y-78495000D01*
X133068008Y-78321746D01*
X133017472Y-78155150D01*
X132935405Y-78001614D01*
X132824962Y-77867038D01*
X132690386Y-77756595D01*
X132536850Y-77674528D01*
X132370254Y-77623992D01*
X132197000Y-77606928D01*
X130947000Y-77606928D01*
X130773746Y-77623992D01*
X130607150Y-77674528D01*
X130453614Y-77756595D01*
X130319038Y-77867038D01*
X130208595Y-78001614D01*
X130126528Y-78155150D01*
X130075992Y-78321746D01*
X130058928Y-78495000D01*
X130058928Y-79420000D01*
X130075992Y-79593254D01*
X130126528Y-79759850D01*
X130208595Y-79913386D01*
X130287884Y-80010000D01*
X130208595Y-80106614D01*
X130126528Y-80260150D01*
X130075992Y-80426746D01*
X130058928Y-80600000D01*
X130058928Y-81525000D01*
X130075992Y-81698254D01*
X130126528Y-81864850D01*
X130208595Y-82018386D01*
X130319038Y-82152962D01*
X130453614Y-82263405D01*
X130607150Y-82345472D01*
X130773746Y-82396008D01*
X130947000Y-82413072D01*
X132060536Y-82413072D01*
X132043710Y-82426881D01*
X131975972Y-82482472D01*
X131950607Y-82513380D01*
X131777059Y-82686928D01*
X130947000Y-82686928D01*
X130773746Y-82703992D01*
X130607150Y-82754528D01*
X130453614Y-82836595D01*
X130319038Y-82947038D01*
X130208595Y-83081614D01*
X130126528Y-83235150D01*
X130075992Y-83401746D01*
X130058928Y-83575000D01*
X130058928Y-84500000D01*
X130075992Y-84673254D01*
X130126528Y-84839850D01*
X130208595Y-84993386D01*
X130319038Y-85127962D01*
X130453614Y-85238405D01*
X130607150Y-85320472D01*
X130773746Y-85371008D01*
X130947000Y-85388072D01*
X132197000Y-85388072D01*
X132370254Y-85371008D01*
X132536850Y-85320472D01*
X132690386Y-85238405D01*
X132824962Y-85127962D01*
X132935405Y-84993386D01*
X133017472Y-84839850D01*
X133068008Y-84673254D01*
X133085072Y-84500000D01*
X133085072Y-83868000D01*
X135647768Y-83868000D01*
X135653875Y-83877140D01*
X135832860Y-84056125D01*
X136043324Y-84196753D01*
X136277179Y-84293619D01*
X136525439Y-84343000D01*
X136778561Y-84343000D01*
X137026821Y-84293619D01*
X137260676Y-84196753D01*
X137324010Y-84154434D01*
X137265595Y-84225614D01*
X137183528Y-84379150D01*
X137132992Y-84545746D01*
X137115928Y-84719000D01*
X137115928Y-85969000D01*
X137132992Y-86142254D01*
X137183528Y-86308850D01*
X137265595Y-86462386D01*
X137376038Y-86596962D01*
X137510614Y-86707405D01*
X137664150Y-86789472D01*
X137830746Y-86840008D01*
X138004000Y-86857072D01*
X138929000Y-86857072D01*
X139102254Y-86840008D01*
X139268850Y-86789472D01*
X139422386Y-86707405D01*
X139556962Y-86596962D01*
X139667405Y-86462386D01*
X139749472Y-86308850D01*
X139800008Y-86142254D01*
X139817072Y-85969000D01*
X139817072Y-84719000D01*
X139800008Y-84545746D01*
X139749472Y-84379150D01*
X139693822Y-84275036D01*
X139747387Y-84246405D01*
X139881962Y-84135962D01*
X139887957Y-84128657D01*
X139910763Y-84162789D01*
X139999211Y-84251237D01*
X140103215Y-84320730D01*
X140174067Y-84350078D01*
X140158528Y-84379150D01*
X140107992Y-84545746D01*
X140090928Y-84719000D01*
X140090928Y-85969000D01*
X140107992Y-86142254D01*
X140158528Y-86308850D01*
X140240595Y-86462386D01*
X140351038Y-86596962D01*
X140485614Y-86707405D01*
X140639150Y-86789472D01*
X140805746Y-86840008D01*
X140979000Y-86857072D01*
X141904000Y-86857072D01*
X142077254Y-86840008D01*
X142243850Y-86789472D01*
X142397386Y-86707405D01*
X142452712Y-86662000D01*
X143013768Y-86662000D01*
X143019875Y-86671140D01*
X143198860Y-86850125D01*
X143409324Y-86990753D01*
X143643179Y-87087619D01*
X143891439Y-87137000D01*
X144144561Y-87137000D01*
X144392821Y-87087619D01*
X144626676Y-86990753D01*
X144837140Y-86850125D01*
X145016125Y-86671140D01*
X145156753Y-86460676D01*
X145253619Y-86226821D01*
X145303000Y-85978561D01*
X145303000Y-85725439D01*
X145253619Y-85477179D01*
X145156753Y-85243324D01*
X145016125Y-85032860D01*
X144837140Y-84853875D01*
X144626676Y-84713247D01*
X144392821Y-84616381D01*
X144144561Y-84567000D01*
X143891439Y-84567000D01*
X143643179Y-84616381D01*
X143409324Y-84713247D01*
X143198860Y-84853875D01*
X143019875Y-85032860D01*
X143013768Y-85042000D01*
X142792072Y-85042000D01*
X142792072Y-84719000D01*
X142775008Y-84545746D01*
X142724472Y-84379150D01*
X142685849Y-84306890D01*
X156378524Y-84306890D01*
X156423175Y-84454099D01*
X156548359Y-84716920D01*
X156722412Y-84950269D01*
X156938645Y-85145178D01*
X157188748Y-85294157D01*
X157463109Y-85391481D01*
X157693000Y-85270814D01*
X157693000Y-84077000D01*
X157947000Y-84077000D01*
X157947000Y-85270814D01*
X158176891Y-85391481D01*
X158451252Y-85294157D01*
X158701355Y-85145178D01*
X158917588Y-84950269D01*
X159091641Y-84716920D01*
X159216825Y-84454099D01*
X159261476Y-84306890D01*
X159140155Y-84077000D01*
X157947000Y-84077000D01*
X157693000Y-84077000D01*
X156499845Y-84077000D01*
X156378524Y-84306890D01*
X142685849Y-84306890D01*
X142642405Y-84225614D01*
X142531962Y-84091038D01*
X142397386Y-83980595D01*
X142243850Y-83898528D01*
X142177492Y-83878399D01*
X142189000Y-83820542D01*
X142189000Y-83343750D01*
X142030250Y-83185000D01*
X141106000Y-83185000D01*
X141106000Y-83205000D01*
X140852000Y-83205000D01*
X140852000Y-83185000D01*
X140832000Y-83185000D01*
X140832000Y-82931000D01*
X140852000Y-82931000D01*
X140852000Y-82911000D01*
X141106000Y-82911000D01*
X141106000Y-82931000D01*
X142030250Y-82931000D01*
X142189000Y-82772250D01*
X142189000Y-82295458D01*
X142173990Y-82220000D01*
X145195768Y-82220000D01*
X145201875Y-82229140D01*
X145380860Y-82408125D01*
X145591324Y-82548753D01*
X145825179Y-82645619D01*
X146073439Y-82695000D01*
X146326561Y-82695000D01*
X146574821Y-82645619D01*
X146808676Y-82548753D01*
X147019140Y-82408125D01*
X147198125Y-82229140D01*
X147204232Y-82220000D01*
X156569131Y-82220000D01*
X156579294Y-82239014D01*
X156764866Y-82465134D01*
X156990986Y-82650706D01*
X157055523Y-82685201D01*
X156938645Y-82754822D01*
X156722412Y-82949731D01*
X156548359Y-83183080D01*
X156423175Y-83445901D01*
X156378524Y-83593110D01*
X156499845Y-83823000D01*
X157693000Y-83823000D01*
X157693000Y-83803000D01*
X157947000Y-83803000D01*
X157947000Y-83823000D01*
X159140155Y-83823000D01*
X159261476Y-83593110D01*
X159216825Y-83445901D01*
X159091641Y-83183080D01*
X158917588Y-82949731D01*
X158701355Y-82754822D01*
X158584477Y-82685201D01*
X158649014Y-82650706D01*
X158875134Y-82465134D01*
X159060706Y-82239014D01*
X159198599Y-81981034D01*
X159283513Y-81701111D01*
X159312185Y-81410000D01*
X159283513Y-81118889D01*
X159198599Y-80838966D01*
X159060706Y-80580986D01*
X158875134Y-80354866D01*
X158649014Y-80169294D01*
X158594209Y-80140000D01*
X158649014Y-80110706D01*
X158875134Y-79925134D01*
X159060706Y-79699014D01*
X159198599Y-79441034D01*
X159283513Y-79161111D01*
X159312185Y-78870000D01*
X159283513Y-78578889D01*
X159198599Y-78298966D01*
X159060706Y-78040986D01*
X158875134Y-77814866D01*
X158649014Y-77629294D01*
X158594209Y-77600000D01*
X158649014Y-77570706D01*
X158875134Y-77385134D01*
X159060706Y-77159014D01*
X159198599Y-76901034D01*
X159283513Y-76621111D01*
X159312185Y-76330000D01*
X159283513Y-76038889D01*
X159198599Y-75758966D01*
X159060706Y-75500986D01*
X158875134Y-75274866D01*
X158649014Y-75089294D01*
X158594209Y-75060000D01*
X158649014Y-75030706D01*
X158875134Y-74845134D01*
X159060706Y-74619014D01*
X159198599Y-74361034D01*
X159283513Y-74081111D01*
X159312185Y-73790000D01*
X159283513Y-73498889D01*
X159198599Y-73218966D01*
X159060706Y-72960986D01*
X158875134Y-72734866D01*
X158845313Y-72710393D01*
X158914180Y-72689502D01*
X159024494Y-72630537D01*
X159121185Y-72551185D01*
X159200537Y-72454494D01*
X159259502Y-72344180D01*
X159295812Y-72224482D01*
X159308072Y-72100000D01*
X159308072Y-70400000D01*
X159295812Y-70275518D01*
X159259502Y-70155820D01*
X159200537Y-70045506D01*
X159121185Y-69948815D01*
X159024494Y-69869463D01*
X158914180Y-69810498D01*
X158794482Y-69774188D01*
X158670000Y-69761928D01*
X156970000Y-69761928D01*
X156845518Y-69774188D01*
X156725820Y-69810498D01*
X156615506Y-69869463D01*
X156518815Y-69948815D01*
X156439463Y-70045506D01*
X156380498Y-70155820D01*
X156344188Y-70275518D01*
X156331928Y-70400000D01*
X156331928Y-70440000D01*
X152236378Y-70440000D01*
X152196587Y-70436081D01*
X152037799Y-70451720D01*
X151885113Y-70498037D01*
X151747897Y-70571381D01*
X151744398Y-70573251D01*
X151621059Y-70674472D01*
X151595692Y-70705382D01*
X147978940Y-74322135D01*
X147968158Y-74319990D01*
X147715036Y-74319990D01*
X147466776Y-74369371D01*
X147232921Y-74466237D01*
X147022457Y-74606865D01*
X146843472Y-74785850D01*
X146702844Y-74996314D01*
X146605978Y-75230169D01*
X146556597Y-75478429D01*
X146556597Y-75731551D01*
X146605978Y-75979811D01*
X146702844Y-76213666D01*
X146843472Y-76424130D01*
X146956039Y-76536697D01*
X146871875Y-76620860D01*
X146731247Y-76831324D01*
X146634381Y-77065179D01*
X146585000Y-77313439D01*
X146585000Y-77566561D01*
X146634381Y-77814821D01*
X146731247Y-78048676D01*
X146871875Y-78259140D01*
X147050860Y-78438125D01*
X147261324Y-78578753D01*
X147494949Y-78675524D01*
X147474381Y-78725179D01*
X147425000Y-78973439D01*
X147425000Y-79088469D01*
X147194179Y-79134381D01*
X146960324Y-79231247D01*
X146749860Y-79371875D01*
X146570875Y-79550860D01*
X146430247Y-79761324D01*
X146333381Y-79995179D01*
X146307559Y-80125000D01*
X146073439Y-80125000D01*
X145825179Y-80174381D01*
X145591324Y-80271247D01*
X145380860Y-80411875D01*
X145201875Y-80590860D01*
X145195768Y-80600000D01*
X140616788Y-80600000D01*
X140577000Y-80596081D01*
X140537212Y-80600000D01*
X140537209Y-80600000D01*
X140418212Y-80611720D01*
X140265527Y-80658037D01*
X140221681Y-80681473D01*
X140124810Y-80733251D01*
X140066627Y-80781001D01*
X140001472Y-80834472D01*
X139976105Y-80865382D01*
X139594086Y-81247401D01*
X139605749Y-81233190D01*
X139675715Y-81102291D01*
X139680963Y-81092473D01*
X139727280Y-80939788D01*
X139739000Y-80820791D01*
X139739000Y-80820789D01*
X139742919Y-80781001D01*
X139739000Y-80741213D01*
X139739000Y-70936032D01*
X146412403Y-70936032D01*
X146412403Y-71189154D01*
X146461784Y-71437414D01*
X146558650Y-71671269D01*
X146699278Y-71881733D01*
X146704840Y-71887295D01*
X146662732Y-71950314D01*
X146565866Y-72184169D01*
X146516485Y-72432429D01*
X146516485Y-72685551D01*
X146565866Y-72933811D01*
X146662732Y-73167666D01*
X146803360Y-73378130D01*
X146982345Y-73557115D01*
X147192809Y-73697743D01*
X147426664Y-73794609D01*
X147674924Y-73843990D01*
X147928046Y-73843990D01*
X148176306Y-73794609D01*
X148410161Y-73697743D01*
X148620625Y-73557115D01*
X148799610Y-73378130D01*
X148940238Y-73167666D01*
X149037104Y-72933811D01*
X149086485Y-72685551D01*
X149086485Y-72432429D01*
X149084340Y-72421647D01*
X153085988Y-68420000D01*
X156569131Y-68420000D01*
X156579294Y-68439014D01*
X156764866Y-68665134D01*
X156990986Y-68850706D01*
X157248966Y-68988599D01*
X157528889Y-69073513D01*
X157747050Y-69095000D01*
X157892950Y-69095000D01*
X158111111Y-69073513D01*
X158391034Y-68988599D01*
X158649014Y-68850706D01*
X158875134Y-68665134D01*
X159060706Y-68439014D01*
X159198599Y-68181034D01*
X159283513Y-67901111D01*
X159312185Y-67610000D01*
X159283513Y-67318889D01*
X159198599Y-67038966D01*
X159060706Y-66780986D01*
X158875134Y-66554866D01*
X158845313Y-66530393D01*
X158914180Y-66509502D01*
X159024494Y-66450537D01*
X159121185Y-66371185D01*
X159200537Y-66274494D01*
X159259502Y-66164180D01*
X159295812Y-66044482D01*
X159308072Y-65920000D01*
X159308072Y-64220000D01*
X159295812Y-64095518D01*
X159259502Y-63975820D01*
X159200537Y-63865506D01*
X159121185Y-63768815D01*
X159024494Y-63689463D01*
X158914180Y-63630498D01*
X158794482Y-63594188D01*
X158670000Y-63581928D01*
X156970000Y-63581928D01*
X156845518Y-63594188D01*
X156725820Y-63630498D01*
X156615506Y-63689463D01*
X156518815Y-63768815D01*
X156439463Y-63865506D01*
X156380498Y-63975820D01*
X156344188Y-64095518D01*
X156331928Y-64220000D01*
X156331928Y-64260000D01*
X153729784Y-64260000D01*
X153689996Y-64256081D01*
X153650208Y-64260000D01*
X153650205Y-64260000D01*
X153531208Y-64271720D01*
X153378523Y-64318037D01*
X153323867Y-64347251D01*
X153237806Y-64393251D01*
X153206942Y-64418581D01*
X153114468Y-64494472D01*
X153089101Y-64525382D01*
X147834746Y-69779738D01*
X147823964Y-69777593D01*
X147570842Y-69777593D01*
X147322582Y-69826974D01*
X147088727Y-69923840D01*
X146878263Y-70064468D01*
X146699278Y-70243453D01*
X146558650Y-70453917D01*
X146461784Y-70687772D01*
X146412403Y-70936032D01*
X139739000Y-70936032D01*
X139739000Y-69441512D01*
X140532441Y-68648072D01*
X141050001Y-68648072D01*
X141223255Y-68631008D01*
X141389851Y-68580472D01*
X141543387Y-68498405D01*
X141677962Y-68387962D01*
X141788405Y-68253387D01*
X141870472Y-68099851D01*
X141874370Y-68087000D01*
X142034561Y-68087000D01*
X142282821Y-68037619D01*
X142516676Y-67940753D01*
X142727140Y-67800125D01*
X142906125Y-67621140D01*
X143046753Y-67410676D01*
X143054844Y-67391142D01*
X143058992Y-67433255D01*
X143109528Y-67599851D01*
X143191595Y-67753387D01*
X143302038Y-67887962D01*
X143436613Y-67998405D01*
X143590149Y-68080472D01*
X143756745Y-68131008D01*
X143929999Y-68148072D01*
X144830001Y-68148072D01*
X145003255Y-68131008D01*
X145025104Y-68124380D01*
X145141875Y-68299140D01*
X145320860Y-68478125D01*
X145531324Y-68618753D01*
X145765179Y-68715619D01*
X146013439Y-68765000D01*
X146266561Y-68765000D01*
X146514821Y-68715619D01*
X146748676Y-68618753D01*
X146959140Y-68478125D01*
X147138125Y-68299140D01*
X147278753Y-68088676D01*
X147375619Y-67854821D01*
X147425000Y-67606561D01*
X147425000Y-67353439D01*
X147375619Y-67105179D01*
X147278753Y-66871324D01*
X147138125Y-66660860D01*
X146959140Y-66481875D01*
X146748676Y-66341247D01*
X146514821Y-66244381D01*
X146266561Y-66195000D01*
X146013439Y-66195000D01*
X145951794Y-66207262D01*
X145906473Y-66183037D01*
X145753788Y-66136720D01*
X145634791Y-66125000D01*
X145634788Y-66125000D01*
X145595000Y-66121081D01*
X145572004Y-66123346D01*
X145568405Y-66116613D01*
X145457962Y-65982038D01*
X145370184Y-65910000D01*
X145457962Y-65837962D01*
X145568405Y-65703387D01*
X145650472Y-65549851D01*
X145701008Y-65383255D01*
X145718072Y-65210001D01*
X145718072Y-64559999D01*
X145701008Y-64386745D01*
X145650472Y-64220149D01*
X145568405Y-64066613D01*
X145538357Y-64030000D01*
X155499286Y-64030000D01*
X155499286Y-60685000D01*
X162315000Y-60685000D01*
X162315001Y-87315000D01*
X162315001Y-87315000D01*
G37*
X162315001Y-87315000D02*
X123685000Y-87315000D01*
X123685000Y-73575611D01*
X123738815Y-73641185D01*
X123835506Y-73720537D01*
X123945820Y-73779502D01*
X124065518Y-73815812D01*
X124190000Y-73828072D01*
X125630000Y-73828072D01*
X125630001Y-82511928D01*
X124880000Y-82511928D01*
X124755518Y-82524188D01*
X124635820Y-82560498D01*
X124525506Y-82619463D01*
X124428815Y-82698815D01*
X124349463Y-82795506D01*
X124290498Y-82905820D01*
X124254188Y-83025518D01*
X124241928Y-83150000D01*
X124241928Y-84850000D01*
X124254188Y-84974482D01*
X124290498Y-85094180D01*
X124349463Y-85204494D01*
X124428815Y-85301185D01*
X124525506Y-85380537D01*
X124635820Y-85439502D01*
X124755518Y-85475812D01*
X124880000Y-85488072D01*
X126580000Y-85488072D01*
X126704482Y-85475812D01*
X126824180Y-85439502D01*
X126934494Y-85380537D01*
X127031185Y-85301185D01*
X127110537Y-85204494D01*
X127169502Y-85094180D01*
X127193966Y-85013534D01*
X127269731Y-85097588D01*
X127503080Y-85271641D01*
X127765901Y-85396825D01*
X127913110Y-85441476D01*
X128143000Y-85320155D01*
X128143000Y-84127000D01*
X128397000Y-84127000D01*
X128397000Y-85320155D01*
X128626890Y-85441476D01*
X128774099Y-85396825D01*
X129036920Y-85271641D01*
X129270269Y-85097588D01*
X129465178Y-84881355D01*
X129614157Y-84631252D01*
X129711481Y-84356891D01*
X129590814Y-84127000D01*
X128397000Y-84127000D01*
X128143000Y-84127000D01*
X128123000Y-84127000D01*
X128123000Y-83873000D01*
X128143000Y-83873000D01*
X128143000Y-82679845D01*
X128397000Y-82679845D01*
X128397000Y-83873000D01*
X129590814Y-83873000D01*
X129711481Y-83643109D01*
X129614157Y-83368748D01*
X129465178Y-83118645D01*
X129270269Y-82902412D01*
X129036920Y-82728359D01*
X128774099Y-82603175D01*
X128626890Y-82558524D01*
X128397000Y-82679845D01*
X128143000Y-82679845D01*
X127913110Y-82558524D01*
X127765901Y-82603175D01*
X127503080Y-82728359D01*
X127269731Y-82902412D01*
X127250000Y-82924302D01*
X127250000Y-76268250D01*
X130062000Y-76268250D01*
X130062000Y-76757542D01*
X130086403Y-76880223D01*
X130134270Y-76995785D01*
X130203763Y-77099789D01*
X130292211Y-77188237D01*
X130396215Y-77257730D01*
X130511777Y-77305597D01*
X130634458Y-77330000D01*
X131286250Y-77330000D01*
X131445000Y-77171250D01*
X131445000Y-76109500D01*
X131699000Y-76109500D01*
X131699000Y-77171250D01*
X131857750Y-77330000D01*
X132509542Y-77330000D01*
X132632223Y-77305597D01*
X132747785Y-77257730D01*
X132851789Y-77188237D01*
X132940237Y-77099789D01*
X133009730Y-76995785D01*
X133057597Y-76880223D01*
X133082000Y-76757542D01*
X133082000Y-76268250D01*
X132923250Y-76109500D01*
X131699000Y-76109500D01*
X131445000Y-76109500D01*
X130220750Y-76109500D01*
X130062000Y-76268250D01*
X127250000Y-76268250D01*
X127250000Y-75207458D01*
X130062000Y-75207458D01*
X130062000Y-75696750D01*
X130220750Y-75855500D01*
X131445000Y-75855500D01*
X131445000Y-74793750D01*
X131699000Y-74793750D01*
X131699000Y-75855500D01*
X132923250Y-75855500D01*
X133082000Y-75696750D01*
X133082000Y-75207458D01*
X133057597Y-75084777D01*
X133009730Y-74969215D01*
X132940237Y-74865211D01*
X132851789Y-74776763D01*
X132747785Y-74707270D01*
X132632223Y-74659403D01*
X132509542Y-74635000D01*
X131857750Y-74635000D01*
X131699000Y-74793750D01*
X131445000Y-74793750D01*
X131286250Y-74635000D01*
X130634458Y-74635000D01*
X130511777Y-74659403D01*
X130396215Y-74707270D01*
X130292211Y-74776763D01*
X130203763Y-74865211D01*
X130134270Y-74969215D01*
X130086403Y-75084777D01*
X130062000Y-75207458D01*
X127250000Y-75207458D01*
X127250000Y-73828072D01*
X128690000Y-73828072D01*
X128814482Y-73815812D01*
X128934180Y-73779502D01*
X129044494Y-73720537D01*
X129141185Y-73641185D01*
X129220537Y-73544494D01*
X129279502Y-73434180D01*
X129315812Y-73314482D01*
X129328072Y-73190000D01*
X129328072Y-72438000D01*
X130852209Y-72438000D01*
X130892000Y-72441919D01*
X130931791Y-72438000D01*
X131050788Y-72426280D01*
X131203473Y-72379963D01*
X131344189Y-72304749D01*
X131467528Y-72203528D01*
X131568749Y-72080189D01*
X131643963Y-71939473D01*
X131678460Y-71825750D01*
X132355000Y-71825750D01*
X132355000Y-73252542D01*
X132379403Y-73375223D01*
X132427270Y-73490785D01*
X132496763Y-73594789D01*
X132585211Y-73683237D01*
X132689215Y-73752730D01*
X132804777Y-73800597D01*
X132927458Y-73825000D01*
X134954250Y-73825000D01*
X135113000Y-73666250D01*
X135113000Y-71667000D01*
X132513750Y-71667000D01*
X132355000Y-71825750D01*
X131678460Y-71825750D01*
X131690280Y-71786788D01*
X131705919Y-71628000D01*
X131702000Y-71588209D01*
X131702000Y-69827458D01*
X132355000Y-69827458D01*
X132355000Y-71254250D01*
X132513750Y-71413000D01*
X135113000Y-71413000D01*
X135113000Y-69413750D01*
X134954250Y-69255000D01*
X132927458Y-69255000D01*
X132804777Y-69279403D01*
X132689215Y-69327270D01*
X132585211Y-69396763D01*
X132496763Y-69485211D01*
X132427270Y-69589215D01*
X132379403Y-69704777D01*
X132355000Y-69827458D01*
X131702000Y-69827458D01*
X131702000Y-69715512D01*
X133213441Y-68204072D01*
X134706000Y-68204072D01*
X134830482Y-68191812D01*
X134950180Y-68155502D01*
X135060494Y-68096537D01*
X135157185Y-68017185D01*
X135236537Y-67920494D01*
X135295502Y-67810180D01*
X135331812Y-67690482D01*
X135344072Y-67566000D01*
X135344072Y-66066000D01*
X135331812Y-65941518D01*
X135295502Y-65821820D01*
X135236537Y-65711506D01*
X135199191Y-65666000D01*
X135236537Y-65620494D01*
X135295502Y-65510180D01*
X135331812Y-65390482D01*
X135343152Y-65275341D01*
X135367473Y-65267963D01*
X135508189Y-65192749D01*
X135631528Y-65091528D01*
X135656899Y-65060613D01*
X136133523Y-64583990D01*
X136611000Y-64583990D01*
X136611000Y-64738250D01*
X136769750Y-64897000D01*
X137831500Y-64897000D01*
X137831500Y-64877000D01*
X138085500Y-64877000D01*
X138085500Y-64897000D01*
X139147250Y-64897000D01*
X139306000Y-64738250D01*
X139306000Y-64583990D01*
X139347978Y-64583990D01*
X139582928Y-64818940D01*
X139582928Y-65649000D01*
X139599992Y-65822254D01*
X139650528Y-65988850D01*
X139732595Y-66142386D01*
X139792433Y-66215300D01*
X139772038Y-66232038D01*
X139766043Y-66239343D01*
X139743237Y-66205211D01*
X139654789Y-66116763D01*
X139550785Y-66047270D01*
X139435223Y-65999403D01*
X139312542Y-65975000D01*
X139303323Y-65975000D01*
X139306000Y-65961542D01*
X139306000Y-65309750D01*
X139147250Y-65151000D01*
X138085500Y-65151000D01*
X138085500Y-65171000D01*
X137831500Y-65171000D01*
X137831500Y-65151000D01*
X136769750Y-65151000D01*
X136611000Y-65309750D01*
X136611000Y-65961542D01*
X136635403Y-66084223D01*
X136683270Y-66199785D01*
X136752763Y-66303789D01*
X136841211Y-66392237D01*
X136945215Y-66461730D01*
X137060777Y-66509597D01*
X137183458Y-66534000D01*
X137467677Y-66534000D01*
X137465000Y-66547458D01*
X137465000Y-67024250D01*
X137623750Y-67183000D01*
X138548000Y-67183000D01*
X138548000Y-67163000D01*
X138802000Y-67163000D01*
X138802000Y-67183000D01*
X138822000Y-67183000D01*
X138822000Y-67437000D01*
X138802000Y-67437000D01*
X138802000Y-67457000D01*
X138548000Y-67457000D01*
X138548000Y-67437000D01*
X137623750Y-67437000D01*
X137465000Y-67595750D01*
X137465000Y-68072542D01*
X137489403Y-68195223D01*
X137537270Y-68310785D01*
X137606763Y-68414789D01*
X137695211Y-68503237D01*
X137799215Y-68572730D01*
X137914777Y-68620597D01*
X138037458Y-68645000D01*
X138259482Y-68645000D01*
X138252251Y-68653811D01*
X138212049Y-68729025D01*
X138177037Y-68794528D01*
X138130720Y-68947213D01*
X138119000Y-69066209D01*
X138115081Y-69106000D01*
X138119000Y-69145788D01*
X138119000Y-69797295D01*
X138100597Y-69704777D01*
X138052730Y-69589215D01*
X137983237Y-69485211D01*
X137894789Y-69396763D01*
X137790785Y-69327270D01*
X137675223Y-69279403D01*
X137552542Y-69255000D01*
X135525750Y-69255000D01*
X135367000Y-69413750D01*
X135367000Y-71413000D01*
X135387000Y-71413000D01*
X135387000Y-71667000D01*
X135367000Y-71667000D01*
X135367000Y-73666250D01*
X135525750Y-73825000D01*
X137552542Y-73825000D01*
X137675223Y-73800597D01*
X137790785Y-73752730D01*
X137894789Y-73683237D01*
X137983237Y-73594789D01*
X138052730Y-73490785D01*
X138100597Y-73375223D01*
X138119000Y-73282704D01*
X138119001Y-80445486D01*
X136789343Y-81775145D01*
X136778561Y-81773000D01*
X136525439Y-81773000D01*
X136277179Y-81822381D01*
X136043324Y-81919247D01*
X135832860Y-82059875D01*
X135653875Y-82238860D01*
X135647768Y-82248000D01*
X132709157Y-82248000D01*
X132824962Y-82152962D01*
X132935405Y-82018386D01*
X133017472Y-81864850D01*
X133068008Y-81698254D01*
X133082708Y-81549000D01*
X133222561Y-81549000D01*
X133470821Y-81499619D01*
X133704676Y-81402753D01*
X133915140Y-81262125D01*
X134094125Y-81083140D01*
X134234753Y-80872676D01*
X134331619Y-80638821D01*
X134381000Y-80390561D01*
X134381000Y-80137439D01*
X134331619Y-79889179D01*
X134234753Y-79655324D01*
X134094125Y-79444860D01*
X133915140Y-79265875D01*
X133704676Y-79125247D01*
X133470821Y-79028381D01*
X133222561Y-78979000D01*
X133085072Y-78979000D01*
X133085072Y-78495000D01*
X133068008Y-78321746D01*
X133017472Y-78155150D01*
X132935405Y-78001614D01*
X132824962Y-77867038D01*
X132690386Y-77756595D01*
X132536850Y-77674528D01*
X132370254Y-77623992D01*
X132197000Y-77606928D01*
X130947000Y-77606928D01*
X130773746Y-77623992D01*
X130607150Y-77674528D01*
X130453614Y-77756595D01*
X130319038Y-77867038D01*
X130208595Y-78001614D01*
X130126528Y-78155150D01*
X130075992Y-78321746D01*
X130058928Y-78495000D01*
X130058928Y-79420000D01*
X130075992Y-79593254D01*
X130126528Y-79759850D01*
X130208595Y-79913386D01*
X130287884Y-80010000D01*
X130208595Y-80106614D01*
X130126528Y-80260150D01*
X130075992Y-80426746D01*
X130058928Y-80600000D01*
X130058928Y-81525000D01*
X130075992Y-81698254D01*
X130126528Y-81864850D01*
X130208595Y-82018386D01*
X130319038Y-82152962D01*
X130453614Y-82263405D01*
X130607150Y-82345472D01*
X130773746Y-82396008D01*
X130947000Y-82413072D01*
X132060536Y-82413072D01*
X132043710Y-82426881D01*
X131975972Y-82482472D01*
X131950607Y-82513380D01*
X131777059Y-82686928D01*
X130947000Y-82686928D01*
X130773746Y-82703992D01*
X130607150Y-82754528D01*
X130453614Y-82836595D01*
X130319038Y-82947038D01*
X130208595Y-83081614D01*
X130126528Y-83235150D01*
X130075992Y-83401746D01*
X130058928Y-83575000D01*
X130058928Y-84500000D01*
X130075992Y-84673254D01*
X130126528Y-84839850D01*
X130208595Y-84993386D01*
X130319038Y-85127962D01*
X130453614Y-85238405D01*
X130607150Y-85320472D01*
X130773746Y-85371008D01*
X130947000Y-85388072D01*
X132197000Y-85388072D01*
X132370254Y-85371008D01*
X132536850Y-85320472D01*
X132690386Y-85238405D01*
X132824962Y-85127962D01*
X132935405Y-84993386D01*
X133017472Y-84839850D01*
X133068008Y-84673254D01*
X133085072Y-84500000D01*
X133085072Y-83868000D01*
X135647768Y-83868000D01*
X135653875Y-83877140D01*
X135832860Y-84056125D01*
X136043324Y-84196753D01*
X136277179Y-84293619D01*
X136525439Y-84343000D01*
X136778561Y-84343000D01*
X137026821Y-84293619D01*
X137260676Y-84196753D01*
X137324010Y-84154434D01*
X137265595Y-84225614D01*
X137183528Y-84379150D01*
X137132992Y-84545746D01*
X137115928Y-84719000D01*
X137115928Y-85969000D01*
X137132992Y-86142254D01*
X137183528Y-86308850D01*
X137265595Y-86462386D01*
X137376038Y-86596962D01*
X137510614Y-86707405D01*
X137664150Y-86789472D01*
X137830746Y-86840008D01*
X138004000Y-86857072D01*
X138929000Y-86857072D01*
X139102254Y-86840008D01*
X139268850Y-86789472D01*
X139422386Y-86707405D01*
X139556962Y-86596962D01*
X139667405Y-86462386D01*
X139749472Y-86308850D01*
X139800008Y-86142254D01*
X139817072Y-85969000D01*
X139817072Y-84719000D01*
X139800008Y-84545746D01*
X139749472Y-84379150D01*
X139693822Y-84275036D01*
X139747387Y-84246405D01*
X139881962Y-84135962D01*
X139887957Y-84128657D01*
X139910763Y-84162789D01*
X139999211Y-84251237D01*
X140103215Y-84320730D01*
X140174067Y-84350078D01*
X140158528Y-84379150D01*
X140107992Y-84545746D01*
X140090928Y-84719000D01*
X140090928Y-85969000D01*
X140107992Y-86142254D01*
X140158528Y-86308850D01*
X140240595Y-86462386D01*
X140351038Y-86596962D01*
X140485614Y-86707405D01*
X140639150Y-86789472D01*
X140805746Y-86840008D01*
X140979000Y-86857072D01*
X141904000Y-86857072D01*
X142077254Y-86840008D01*
X142243850Y-86789472D01*
X142397386Y-86707405D01*
X142452712Y-86662000D01*
X143013768Y-86662000D01*
X143019875Y-86671140D01*
X143198860Y-86850125D01*
X143409324Y-86990753D01*
X143643179Y-87087619D01*
X143891439Y-87137000D01*
X144144561Y-87137000D01*
X144392821Y-87087619D01*
X144626676Y-86990753D01*
X144837140Y-86850125D01*
X145016125Y-86671140D01*
X145156753Y-86460676D01*
X145253619Y-86226821D01*
X145303000Y-85978561D01*
X145303000Y-85725439D01*
X145253619Y-85477179D01*
X145156753Y-85243324D01*
X145016125Y-85032860D01*
X144837140Y-84853875D01*
X144626676Y-84713247D01*
X144392821Y-84616381D01*
X144144561Y-84567000D01*
X143891439Y-84567000D01*
X143643179Y-84616381D01*
X143409324Y-84713247D01*
X143198860Y-84853875D01*
X143019875Y-85032860D01*
X143013768Y-85042000D01*
X142792072Y-85042000D01*
X142792072Y-84719000D01*
X142775008Y-84545746D01*
X142724472Y-84379150D01*
X142685849Y-84306890D01*
X156378524Y-84306890D01*
X156423175Y-84454099D01*
X156548359Y-84716920D01*
X156722412Y-84950269D01*
X156938645Y-85145178D01*
X157188748Y-85294157D01*
X157463109Y-85391481D01*
X157693000Y-85270814D01*
X157693000Y-84077000D01*
X157947000Y-84077000D01*
X157947000Y-85270814D01*
X158176891Y-85391481D01*
X158451252Y-85294157D01*
X158701355Y-85145178D01*
X158917588Y-84950269D01*
X159091641Y-84716920D01*
X159216825Y-84454099D01*
X159261476Y-84306890D01*
X159140155Y-84077000D01*
X157947000Y-84077000D01*
X157693000Y-84077000D01*
X156499845Y-84077000D01*
X156378524Y-84306890D01*
X142685849Y-84306890D01*
X142642405Y-84225614D01*
X142531962Y-84091038D01*
X142397386Y-83980595D01*
X142243850Y-83898528D01*
X142177492Y-83878399D01*
X142189000Y-83820542D01*
X142189000Y-83343750D01*
X142030250Y-83185000D01*
X141106000Y-83185000D01*
X141106000Y-83205000D01*
X140852000Y-83205000D01*
X140852000Y-83185000D01*
X140832000Y-83185000D01*
X140832000Y-82931000D01*
X140852000Y-82931000D01*
X140852000Y-82911000D01*
X141106000Y-82911000D01*
X141106000Y-82931000D01*
X142030250Y-82931000D01*
X142189000Y-82772250D01*
X142189000Y-82295458D01*
X142173990Y-82220000D01*
X145195768Y-82220000D01*
X145201875Y-82229140D01*
X145380860Y-82408125D01*
X145591324Y-82548753D01*
X145825179Y-82645619D01*
X146073439Y-82695000D01*
X146326561Y-82695000D01*
X146574821Y-82645619D01*
X146808676Y-82548753D01*
X147019140Y-82408125D01*
X147198125Y-82229140D01*
X147204232Y-82220000D01*
X156569131Y-82220000D01*
X156579294Y-82239014D01*
X156764866Y-82465134D01*
X156990986Y-82650706D01*
X157055523Y-82685201D01*
X156938645Y-82754822D01*
X156722412Y-82949731D01*
X156548359Y-83183080D01*
X156423175Y-83445901D01*
X156378524Y-83593110D01*
X156499845Y-83823000D01*
X157693000Y-83823000D01*
X157693000Y-83803000D01*
X157947000Y-83803000D01*
X157947000Y-83823000D01*
X159140155Y-83823000D01*
X159261476Y-83593110D01*
X159216825Y-83445901D01*
X159091641Y-83183080D01*
X158917588Y-82949731D01*
X158701355Y-82754822D01*
X158584477Y-82685201D01*
X158649014Y-82650706D01*
X158875134Y-82465134D01*
X159060706Y-82239014D01*
X159198599Y-81981034D01*
X159283513Y-81701111D01*
X159312185Y-81410000D01*
X159283513Y-81118889D01*
X159198599Y-80838966D01*
X159060706Y-80580986D01*
X158875134Y-80354866D01*
X158649014Y-80169294D01*
X158594209Y-80140000D01*
X158649014Y-80110706D01*
X158875134Y-79925134D01*
X159060706Y-79699014D01*
X159198599Y-79441034D01*
X159283513Y-79161111D01*
X159312185Y-78870000D01*
X159283513Y-78578889D01*
X159198599Y-78298966D01*
X159060706Y-78040986D01*
X158875134Y-77814866D01*
X158649014Y-77629294D01*
X158594209Y-77600000D01*
X158649014Y-77570706D01*
X158875134Y-77385134D01*
X159060706Y-77159014D01*
X159198599Y-76901034D01*
X159283513Y-76621111D01*
X159312185Y-76330000D01*
X159283513Y-76038889D01*
X159198599Y-75758966D01*
X159060706Y-75500986D01*
X158875134Y-75274866D01*
X158649014Y-75089294D01*
X158594209Y-75060000D01*
X158649014Y-75030706D01*
X158875134Y-74845134D01*
X159060706Y-74619014D01*
X159198599Y-74361034D01*
X159283513Y-74081111D01*
X159312185Y-73790000D01*
X159283513Y-73498889D01*
X159198599Y-73218966D01*
X159060706Y-72960986D01*
X158875134Y-72734866D01*
X158845313Y-72710393D01*
X158914180Y-72689502D01*
X159024494Y-72630537D01*
X159121185Y-72551185D01*
X159200537Y-72454494D01*
X159259502Y-72344180D01*
X159295812Y-72224482D01*
X159308072Y-72100000D01*
X159308072Y-70400000D01*
X159295812Y-70275518D01*
X159259502Y-70155820D01*
X159200537Y-70045506D01*
X159121185Y-69948815D01*
X159024494Y-69869463D01*
X158914180Y-69810498D01*
X158794482Y-69774188D01*
X158670000Y-69761928D01*
X156970000Y-69761928D01*
X156845518Y-69774188D01*
X156725820Y-69810498D01*
X156615506Y-69869463D01*
X156518815Y-69948815D01*
X156439463Y-70045506D01*
X156380498Y-70155820D01*
X156344188Y-70275518D01*
X156331928Y-70400000D01*
X156331928Y-70440000D01*
X152236378Y-70440000D01*
X152196587Y-70436081D01*
X152037799Y-70451720D01*
X151885113Y-70498037D01*
X151747897Y-70571381D01*
X151744398Y-70573251D01*
X151621059Y-70674472D01*
X151595692Y-70705382D01*
X147978940Y-74322135D01*
X147968158Y-74319990D01*
X147715036Y-74319990D01*
X147466776Y-74369371D01*
X147232921Y-74466237D01*
X147022457Y-74606865D01*
X146843472Y-74785850D01*
X146702844Y-74996314D01*
X146605978Y-75230169D01*
X146556597Y-75478429D01*
X146556597Y-75731551D01*
X146605978Y-75979811D01*
X146702844Y-76213666D01*
X146843472Y-76424130D01*
X146956039Y-76536697D01*
X146871875Y-76620860D01*
X146731247Y-76831324D01*
X146634381Y-77065179D01*
X146585000Y-77313439D01*
X146585000Y-77566561D01*
X146634381Y-77814821D01*
X146731247Y-78048676D01*
X146871875Y-78259140D01*
X147050860Y-78438125D01*
X147261324Y-78578753D01*
X147494949Y-78675524D01*
X147474381Y-78725179D01*
X147425000Y-78973439D01*
X147425000Y-79088469D01*
X147194179Y-79134381D01*
X146960324Y-79231247D01*
X146749860Y-79371875D01*
X146570875Y-79550860D01*
X146430247Y-79761324D01*
X146333381Y-79995179D01*
X146307559Y-80125000D01*
X146073439Y-80125000D01*
X145825179Y-80174381D01*
X145591324Y-80271247D01*
X145380860Y-80411875D01*
X145201875Y-80590860D01*
X145195768Y-80600000D01*
X140616788Y-80600000D01*
X140577000Y-80596081D01*
X140537212Y-80600000D01*
X140537209Y-80600000D01*
X140418212Y-80611720D01*
X140265527Y-80658037D01*
X140221681Y-80681473D01*
X140124810Y-80733251D01*
X140066627Y-80781001D01*
X140001472Y-80834472D01*
X139976105Y-80865382D01*
X139594086Y-81247401D01*
X139605749Y-81233190D01*
X139675715Y-81102291D01*
X139680963Y-81092473D01*
X139727280Y-80939788D01*
X139739000Y-80820791D01*
X139739000Y-80820789D01*
X139742919Y-80781001D01*
X139739000Y-80741213D01*
X139739000Y-70936032D01*
X146412403Y-70936032D01*
X146412403Y-71189154D01*
X146461784Y-71437414D01*
X146558650Y-71671269D01*
X146699278Y-71881733D01*
X146704840Y-71887295D01*
X146662732Y-71950314D01*
X146565866Y-72184169D01*
X146516485Y-72432429D01*
X146516485Y-72685551D01*
X146565866Y-72933811D01*
X146662732Y-73167666D01*
X146803360Y-73378130D01*
X146982345Y-73557115D01*
X147192809Y-73697743D01*
X147426664Y-73794609D01*
X147674924Y-73843990D01*
X147928046Y-73843990D01*
X148176306Y-73794609D01*
X148410161Y-73697743D01*
X148620625Y-73557115D01*
X148799610Y-73378130D01*
X148940238Y-73167666D01*
X149037104Y-72933811D01*
X149086485Y-72685551D01*
X149086485Y-72432429D01*
X149084340Y-72421647D01*
X153085988Y-68420000D01*
X156569131Y-68420000D01*
X156579294Y-68439014D01*
X156764866Y-68665134D01*
X156990986Y-68850706D01*
X157248966Y-68988599D01*
X157528889Y-69073513D01*
X157747050Y-69095000D01*
X157892950Y-69095000D01*
X158111111Y-69073513D01*
X158391034Y-68988599D01*
X158649014Y-68850706D01*
X158875134Y-68665134D01*
X159060706Y-68439014D01*
X159198599Y-68181034D01*
X159283513Y-67901111D01*
X159312185Y-67610000D01*
X159283513Y-67318889D01*
X159198599Y-67038966D01*
X159060706Y-66780986D01*
X158875134Y-66554866D01*
X158845313Y-66530393D01*
X158914180Y-66509502D01*
X159024494Y-66450537D01*
X159121185Y-66371185D01*
X159200537Y-66274494D01*
X159259502Y-66164180D01*
X159295812Y-66044482D01*
X159308072Y-65920000D01*
X159308072Y-64220000D01*
X159295812Y-64095518D01*
X159259502Y-63975820D01*
X159200537Y-63865506D01*
X159121185Y-63768815D01*
X159024494Y-63689463D01*
X158914180Y-63630498D01*
X158794482Y-63594188D01*
X158670000Y-63581928D01*
X156970000Y-63581928D01*
X156845518Y-63594188D01*
X156725820Y-63630498D01*
X156615506Y-63689463D01*
X156518815Y-63768815D01*
X156439463Y-63865506D01*
X156380498Y-63975820D01*
X156344188Y-64095518D01*
X156331928Y-64220000D01*
X156331928Y-64260000D01*
X153729784Y-64260000D01*
X153689996Y-64256081D01*
X153650208Y-64260000D01*
X153650205Y-64260000D01*
X153531208Y-64271720D01*
X153378523Y-64318037D01*
X153323867Y-64347251D01*
X153237806Y-64393251D01*
X153206942Y-64418581D01*
X153114468Y-64494472D01*
X153089101Y-64525382D01*
X147834746Y-69779738D01*
X147823964Y-69777593D01*
X147570842Y-69777593D01*
X147322582Y-69826974D01*
X147088727Y-69923840D01*
X146878263Y-70064468D01*
X146699278Y-70243453D01*
X146558650Y-70453917D01*
X146461784Y-70687772D01*
X146412403Y-70936032D01*
X139739000Y-70936032D01*
X139739000Y-69441512D01*
X140532441Y-68648072D01*
X141050001Y-68648072D01*
X141223255Y-68631008D01*
X141389851Y-68580472D01*
X141543387Y-68498405D01*
X141677962Y-68387962D01*
X141788405Y-68253387D01*
X141870472Y-68099851D01*
X141874370Y-68087000D01*
X142034561Y-68087000D01*
X142282821Y-68037619D01*
X142516676Y-67940753D01*
X142727140Y-67800125D01*
X142906125Y-67621140D01*
X143046753Y-67410676D01*
X143054844Y-67391142D01*
X143058992Y-67433255D01*
X143109528Y-67599851D01*
X143191595Y-67753387D01*
X143302038Y-67887962D01*
X143436613Y-67998405D01*
X143590149Y-68080472D01*
X143756745Y-68131008D01*
X143929999Y-68148072D01*
X144830001Y-68148072D01*
X145003255Y-68131008D01*
X145025104Y-68124380D01*
X145141875Y-68299140D01*
X145320860Y-68478125D01*
X145531324Y-68618753D01*
X145765179Y-68715619D01*
X146013439Y-68765000D01*
X146266561Y-68765000D01*
X146514821Y-68715619D01*
X146748676Y-68618753D01*
X146959140Y-68478125D01*
X147138125Y-68299140D01*
X147278753Y-68088676D01*
X147375619Y-67854821D01*
X147425000Y-67606561D01*
X147425000Y-67353439D01*
X147375619Y-67105179D01*
X147278753Y-66871324D01*
X147138125Y-66660860D01*
X146959140Y-66481875D01*
X146748676Y-66341247D01*
X146514821Y-66244381D01*
X146266561Y-66195000D01*
X146013439Y-66195000D01*
X145951794Y-66207262D01*
X145906473Y-66183037D01*
X145753788Y-66136720D01*
X145634791Y-66125000D01*
X145634788Y-66125000D01*
X145595000Y-66121081D01*
X145572004Y-66123346D01*
X145568405Y-66116613D01*
X145457962Y-65982038D01*
X145370184Y-65910000D01*
X145457962Y-65837962D01*
X145568405Y-65703387D01*
X145650472Y-65549851D01*
X145701008Y-65383255D01*
X145718072Y-65210001D01*
X145718072Y-64559999D01*
X145701008Y-64386745D01*
X145650472Y-64220149D01*
X145568405Y-64066613D01*
X145538357Y-64030000D01*
X155499286Y-64030000D01*
X155499286Y-60685000D01*
X162315000Y-60685000D01*
X162315001Y-87315000D01*
G04 #@! TD*
M02*
